<svg width="231" height="167" viewBox="0 0 231 167" fill="none" xmlns="http://www.w3.org/2000/svg">
<g clip-path="url(#clip0)">
<path d="M178.513 144.288L179.215 153.399C179.215 153.399 174.072 162.363 179.489 162.229C184.905 162.096 185.334 161.536 185.334 161.536L185.337 158.732L185.345 152.705L183.788 143.453L178.513 144.288Z" fill="#2F2E41"/>
<path d="M200.033 146.556C200.033 146.556 201.313 150.342 200.311 152.864C199.31 155.386 198.875 161.272 199.588 161.413C200.3 161.554 203.721 162.259 203.721 162.259C203.721 162.259 211.985 165.072 215.549 163.955C219.115 162.838 218.546 161.155 218.546 161.155C218.546 161.155 217.694 158.771 214.986 158.628C212.278 158.485 206.019 148.386 205.879 146.143C205.739 143.9 200.033 146.556 200.033 146.556Z" fill="#2F2E41"/>
<path d="M182.304 30.273C189.311 30.273 194.99 24.6881 194.99 17.7989C194.99 10.9096 189.311 5.32471 182.304 5.32471C175.298 5.32471 169.618 10.9096 169.618 17.7989C169.618 24.6881 175.298 30.273 182.304 30.273Z" fill="#FF6584"/>
<path d="M177.804 25.8525C177.804 25.8525 178.937 32.021 175.514 33.6988C172.091 35.3766 181.922 38.6119 181.922 38.6119L186.2 37.4958L188.916 31.7525C188.916 31.7525 185.494 31.4682 186.356 26.4235L177.804 25.8525Z" fill="#FFB9B9"/>
<path opacity="0.1" d="M177.804 25.8525C177.804 25.8525 178.937 32.021 175.514 33.6988C172.091 35.3766 181.922 38.6119 181.922 38.6119L186.2 37.4958L188.916 31.7525C188.916 31.7525 185.494 31.4682 186.356 26.4235L177.804 25.8525Z" fill="black"/>
<path d="M164.665 46.8599L164.363 60.3149L160.771 83.2967C160.771 83.2967 160.899 95.2104 164.604 95.9156C168.309 96.6208 164.62 83.161 164.62 83.161L169.993 64.1423L171.078 47.5683L164.665 46.8599Z" fill="#FFB9B9"/>
<path d="M181.872 29.151C186.36 29.151 189.997 25.5742 189.997 21.1619C189.997 16.7497 186.36 13.1729 181.872 13.1729C177.385 13.1729 173.748 16.7497 173.748 21.1619C173.748 25.5742 177.385 29.151 181.872 29.151Z" fill="#FFB9B9"/>
<path d="M194.58 61.1928C196.003 63.5772 195.572 66.3798 194.004 66.378C192.435 66.3761 171.343 63.8281 171.343 63.8281L172.632 59.0643C172.632 59.0643 171.351 57.1004 172.208 55.8401C173.065 54.5796 171.359 50.6531 171.359 50.6531L168.1 35.3718L169.811 34.8441L172.661 33.9659L175.8 32.9984C175.8 32.9984 177.934 36.0844 183.209 35.1096C183.209 35.1096 186.487 35.534 188.345 31.3315C188.746 31.3379 189.143 31.3878 189.533 31.48C189.927 31.5815 190.311 31.7515 190.482 32.0348C190.654 32.3167 191.657 32.51 192.793 32.6388C194.483 32.8301 196.469 32.883 196.469 32.883L194.882 48.4387C194.882 48.4387 193.159 58.8084 194.58 61.1928Z" fill="#E0354B"/>
<path d="M169.24 35.3729L168.1 35.3716C168.1 35.3716 163.534 39.0103 164.093 47.7008C164.093 47.7008 164.52 48.5423 167.798 49.1068C171.075 49.6714 172.503 48.2716 172.503 48.2716L169.24 35.3729Z" fill="#E0354B"/>
<path d="M190.609 45.63C190.609 45.63 172.365 44.487 172.505 46.5895C172.645 48.692 171.356 53.4558 171.925 54.2975C172.494 55.1391 173.184 58.5884 172.336 60.1569C171.828 61.094 171.446 62.0923 171.201 63.1268C171.201 63.1268 170.061 62.8451 169.202 66.348C168.342 69.8509 164.054 79.9373 165.758 85.1253C167.462 90.3131 172.98 123.397 172.98 123.397L176.659 145.127C176.659 145.127 182.787 146.255 184.928 144.015L182.964 118.504L181.573 90.7504C181.573 90.7504 191.09 117.672 192.514 118.515L198.323 147.115C198.323 147.115 204.877 149.365 207.162 145.723L204.48 124.837C204.48 124.837 202.917 120.77 203.49 118.668C204.062 116.567 202.495 115.023 202.495 115.023L196.689 85.4424C196.689 85.4424 194.983 82.0766 196.412 79.5555C197.84 77.0343 193.862 65.5366 193.862 65.5366C193.862 65.5366 191.303 59.6467 192.163 56.284C193.023 52.9212 190.609 45.63 190.609 45.63Z" fill="#2F2E41"/>
<path d="M200.731 43.6798L203.562 59.5212C203.562 59.5212 203.987 61.9043 202.699 65.8273C201.412 69.7502 196.412 79.1348 196.412 79.1348L193.851 74.6468L198.144 60.3557L194.602 43.6724L200.731 43.6798Z" fill="#FFB9B9"/>
<path d="M175.356 45.7526L172.701 47.0851L169.806 38.8781L169.811 34.8444L172.661 33.9663L173.086 37.3403L175.356 45.7526Z" fill="#2F2E41"/>
<path d="M192.793 32.638L190.466 46.1199L186.76 46.1154L189.533 31.479C189.927 31.5805 190.311 31.7505 190.482 32.0338C190.654 32.3159 191.657 32.509 192.793 32.638Z" fill="#2F2E41"/>
<path d="M194.757 33.7217L196.469 32.8828C196.469 32.8828 203.728 41.4412 201.585 44.9426C199.442 48.4441 193.174 46.194 193.174 46.194L194.757 33.7217Z" fill="#E0354B"/>
<path d="M183.603 10.6521C186.594 10.6521 189.018 8.26756 189.018 5.32606C189.018 2.38456 186.594 0 183.603 0C180.611 0 178.186 2.38456 178.186 5.32606C178.186 8.26756 180.611 10.6521 183.603 10.6521Z" fill="#FF6584"/>
<path d="M188.867 13.1814C188.869 10.9366 185.745 9.11303 181.887 9.10841C178.03 9.10381 174.901 10.9199 174.898 13.1647C174.895 15.4095 178.02 17.233 181.877 17.2377C185.735 17.2423 188.864 15.4262 188.867 13.1814Z" fill="#FF6584"/>
<path d="M174.001 47.9225C174.394 47.9225 174.713 47.6087 174.713 47.2218C174.713 46.8348 174.394 46.521 174.001 46.521C173.607 46.521 173.288 46.8348 173.288 47.2218C173.288 47.6087 173.607 47.9225 174.001 47.9225Z" fill="#E0354B"/>
<path d="M189.251 47.941C189.647 47.941 189.966 47.6273 189.966 47.2402C189.966 46.8531 189.647 46.5396 189.251 46.5396C188.858 46.5396 188.539 46.8531 188.539 47.2402C188.539 47.6273 188.858 47.941 189.251 47.941Z" fill="#E0354B"/>
<path d="M152.164 17.6948H0V108.982H152.164V17.6948Z" fill="#3F3D56"/>
<path opacity="0.1" d="M76.0822 81.596C85.2114 81.596 92.612 74.319 92.612 65.3424C92.612 56.3658 85.2114 49.0889 76.0822 49.0889C66.953 49.0889 59.5524 56.3658 59.5524 65.3424C59.5524 74.319 66.953 81.596 76.0822 81.596Z" fill="black"/>
<path opacity="0.1" d="M98.2729 65.3424C98.2729 69.6531 100.014 73.7872 103.114 76.8354C106.214 79.8835 110.419 81.596 114.803 81.596V49.0889C110.419 49.0889 106.214 50.8012 103.114 53.8493C100.014 56.8976 98.2729 61.0318 98.2729 65.3424Z" fill="black"/>
<path opacity="0.1" d="M37.1354 49.0889V81.596C41.5192 81.596 45.7237 79.8835 48.8236 76.8354C51.9236 73.7872 53.6652 69.6531 53.6652 65.3424C53.6652 61.0318 51.9236 56.8976 48.8236 53.8493C45.7237 50.8012 41.5192 49.0889 37.1354 49.0889Z" fill="black"/>
<path d="M76.0822 79.5926C85.2114 79.5926 92.612 72.3156 92.612 63.339C92.612 54.3624 85.2114 47.0854 76.0822 47.0854C66.953 47.0854 59.5524 54.3624 59.5524 63.339C59.5524 72.3156 66.953 79.5926 76.0822 79.5926Z" fill="#E0354B"/>
<path d="M98.2729 63.339C98.2729 67.6496 100.014 71.7838 103.114 74.8319C106.214 77.8802 110.419 79.5926 114.803 79.5926V47.0854C110.419 47.0854 106.214 48.7979 103.114 51.8461C100.014 54.8942 98.2729 59.0284 98.2729 63.339Z" fill="#E0354B"/>
<path d="M37.1354 47.0854V79.5926C41.5192 79.5926 45.7237 77.8802 48.8236 74.8319C51.9236 71.7838 53.6652 67.6496 53.6652 63.339C53.6652 59.0284 51.9236 54.8942 48.8236 51.8461C45.7237 48.7979 41.5192 47.0854 37.1354 47.0854Z" fill="#E0354B"/>
<path d="M152.164 115.884H137.446V119.669H152.164V115.884Z" fill="#F2F2F2"/>
</g>
<defs>
<clipPath id="clip0">
<rect width="235" height="167" fill="white"/>
</clipPath>
</defs>
</svg>
