<svg width="232" height="163" viewBox="0 0 232 163" fill="none" xmlns="http://www.w3.org/2000/svg">
<g clip-path="url(#clip0)">
<g opacity="0.1">
<path opacity="0.1" d="M60.6135 117.961C60.6861 118.168 60.7609 118.368 60.8478 118.564C62.3913 117.361 63.8866 116.12 65.3335 114.839C66.1984 114.456 66.9139 113.802 67.3703 112.977C67.787 112.586 68.2015 112.186 68.6112 111.788C68.434 111.59 68.2438 111.404 68.0422 111.231C66.6562 110.023 64.9424 109.516 63.3762 110.03C61.8099 110.545 60.74 111.967 60.349 113.755C60.0583 115.155 60.1497 116.607 60.6135 117.961Z" fill="#3F3D56"/>
<path opacity="0.1" d="M58.0429 110.227C58.481 111.585 59.2756 112.802 60.3444 113.753C61.7304 114.957 63.4418 115.466 65.0104 114.95C65.1182 114.912 65.2212 114.873 65.3289 114.831C66.194 114.448 66.9091 113.794 67.3657 112.969C67.6798 112.425 67.9066 111.836 68.0377 111.223C68.3085 109.823 68.214 108.377 67.7631 107.023C67.3123 105.669 66.5202 104.453 65.4623 103.49C64.074 102.282 62.3625 101.775 60.7963 102.289C59.2299 102.803 58.1599 104.226 57.769 106.013C57.4801 107.417 57.5746 108.872 58.0429 110.227Z" fill="#3F3D56"/>
<path opacity="0.1" d="M62.4299 107.232C65.115 106.35 66.3497 102.802 65.1879 99.3071C64.0262 95.8123 60.9077 93.6947 58.2228 94.5771C55.5378 95.4594 54.3029 99.0076 55.4649 102.502C56.6264 105.997 59.7451 108.115 62.4299 107.232Z" fill="#3F3D56"/>
<path opacity="0.1" d="M59.8599 99.4998C62.5449 98.6175 63.7798 95.0692 62.618 91.5743C61.4563 88.0796 58.3376 85.9618 55.6528 86.8441C52.9677 87.7266 51.733 91.275 52.8948 94.7698C54.0565 98.2643 57.175 100.382 59.8599 99.4998Z" fill="#3F3D56"/>
<path opacity="0.1" d="M57.289 91.7682C59.9739 90.8859 61.2088 87.3375 60.047 83.8429C58.8853 80.348 55.767 78.2304 53.0819 79.1127C50.3969 79.995 49.162 83.5433 50.3238 87.038C51.4855 90.5327 54.604 92.6505 57.289 91.7682Z" fill="#3F3D56"/>
<path opacity="0.1" d="M55.7928 26.5323C56.1791 25.4732 56.4922 24.389 56.7294 23.2874L43.2627 25.4011L57.1112 20.9619C57.4819 17.6597 57.1715 14.3168 56.199 11.1378C55.2264 7.95873 53.612 5.01021 51.4546 2.47246L36.101 18.1243L49.0385 0.0143307C46.5225 -2.20916 43.5728 -3.89383 40.3734 -4.93477C37.1741 -5.97571 33.7934 -6.35064 30.4421 -6.03619C27.0907 -5.72174 23.8403 -4.72465 20.8932 -3.10706C17.9462 -1.48943 15.3656 0.714088 13.3123 3.3663C11.259 6.01852 9.77679 9.06262 8.95806 12.3091C8.13935 15.5556 8.00161 18.9348 8.55343 22.2365C9.10526 25.538 10.3348 28.6915 12.1656 31.5002C13.9963 34.3088 16.389 36.7128 19.1948 38.5623C18.5941 40.211 18.174 41.9195 17.9422 43.6577L37.3745 46.7724L17.7338 46.6839C17.7056 50.7403 18.6948 54.7394 20.6127 58.32C22.5302 61.9002 25.3156 64.9486 28.7167 67.1893C27.151 71.4918 26.8347 76.1455 27.8038 80.6184C28.7729 85.091 30.9883 89.2025 34.197 92.4825C37.4054 95.7625 41.4774 98.0786 45.9474 99.1662C50.4175 100.254 55.1051 100.069 59.4742 98.6323C63.8434 97.196 67.718 94.5661 70.6549 91.0437C73.592 87.5211 75.4726 83.2481 76.0819 78.7128C76.6915 74.1778 76.0051 69.5636 74.1015 65.398C72.1979 61.2326 69.1537 57.6836 65.3171 55.1569C67.1905 50.0148 67.2707 44.3957 65.5444 39.2029C63.8184 34.01 60.3864 29.545 55.8 26.5253L55.7928 26.5323Z" fill="#E0354B"/>
<path opacity="0.1" d="M18.9607 54.5242C20.6798 59.7193 24.1123 64.1852 28.7026 67.1988C27.1401 71.5014 26.8267 76.154 27.798 80.6252C28.7692 85.0965 30.986 89.206 34.195 92.4839C37.404 95.7618 41.4756 98.0761 45.9447 99.1622C50.4139 100.248 55.1003 100.063 59.4684 98.626C63.8363 97.1895 67.7099 94.5603 70.6461 91.0387C73.5824 87.5172 75.4631 83.2453 76.0729 78.7113C76.683 74.1774 75.9979 69.5642 74.0958 65.3991C72.194 61.234 69.1518 57.6848 65.3173 55.1573C67.1221 50.1923 18.1039 51.9146 18.9607 54.5242Z" fill="black"/>
</g>
<path d="M78.5731 52.0897C77.9901 50.9073 77.7724 49.5735 77.5618 48.2651C76.3255 40.5416 75.1689 32.2035 78.5264 25.204C79.0554 24.1029 79.6969 23.0322 80.6334 22.2801C81.6353 21.4772 82.8787 21.0953 84.0399 20.5739C87.4113 19.0655 90.1271 16.3584 93.091 14.1121C96.055 11.8658 99.6324 9.99194 103.264 10.5646C105.137 10.8602 106.869 11.7913 108.686 12.3756C113.818 14.0283 119.741 12.9505 124.351 15.816C126.016 16.8518 127.374 18.3301 128.708 19.7918L134.662 26.3097C136.275 28.0742 137.919 29.8828 138.895 32.0941C139.871 34.3057 140.077 37.0314 138.834 39.0938C138.209 40.1342 137.221 41.0351 137.113 42.2573C136.996 43.584 137.965 44.7247 138.319 46.005C139.256 49.3872 135.821 52.2898 132.689 53.6261C123.223 57.6532 112.809 57.1898 102.788 57.0245C95.3269 56.8966 82.8764 60.7909 78.5731 52.0897Z" fill="#3F3D56"/>
<path d="M95.4065 68.8286C94.7486 70.3904 93.3345 71.4937 91.9368 72.4645C90.539 73.4352 89.0477 74.3594 87.3643 74.4386C90.3308 78.2303 94.3879 81.019 98.3541 83.7496C100.201 85.0182 102.074 86.2845 104.182 87.0015C106.115 87.6579 108.173 87.8209 110.196 88.0955C112.771 88.4469 115.335 88.9894 117.922 88.8823C122.532 88.6914 126.941 86.38 129.998 82.9442C133.056 79.5082 134.807 75.0298 135.28 70.4602C133.641 70.4347 132.129 69.5291 130.806 68.5422C129.188 67.3388 127.671 65.9466 126.627 64.2265C125.496 62.3641 124.988 60.2041 124.473 58.0881C119.015 57.9253 113.558 57.7646 108.098 57.8694C106.111 57.9067 104.118 57.9833 102.18 58.4746C100.332 58.9401 96.4742 60.1412 95.3479 61.7963C94.6994 62.7506 95.3479 63.733 95.582 64.7618C95.8817 66.1144 95.9568 67.5274 95.4065 68.8286Z" fill="#BE6F72"/>
<path opacity="0.1" d="M95.4065 68.8286C94.7486 70.3904 93.3345 71.4937 91.9368 72.4645C90.539 73.4352 89.0477 74.3594 87.3643 74.4386C90.3308 78.2303 94.3879 81.019 98.3541 83.7496C100.201 85.0182 102.074 86.2845 104.182 87.0015C106.115 87.6579 108.173 87.8209 110.196 88.0955C112.771 88.4469 115.335 88.9894 117.922 88.8823C122.532 88.6914 126.941 86.38 129.998 82.9442C133.056 79.5082 134.807 75.0298 135.28 70.4602C133.641 70.4347 132.129 69.5291 130.806 68.5422C129.188 67.3388 127.671 65.9466 126.627 64.2265C125.496 62.3641 124.988 60.2041 124.473 58.0881C119.015 57.9253 113.558 57.7646 108.098 57.8694C106.111 57.9067 104.118 57.9833 102.18 58.4746C100.332 58.9401 96.4742 60.1412 95.3479 61.7963C94.6994 62.7506 95.3479 63.733 95.582 64.7618C95.8817 66.1144 95.9568 67.5274 95.4065 68.8286Z" fill="black"/>
<path d="M101.58 75.2602C103.142 77.1899 104.75 79.1592 106.89 80.4255C107.544 80.8095 108.274 81.1238 109.033 81.0982C110.156 81.0517 111.086 80.2557 111.91 79.492C116.025 75.6841 119.932 71.6605 123.616 67.4388C124.77 66.1143 125.957 64.7339 127.538 63.9634C128.966 76.775 129.338 89.6813 128.652 102.553C128.659 102.796 128.603 103.037 128.488 103.252C128.242 103.622 127.727 103.675 127.28 103.692C114.064 104.185 100.319 104.581 88.2143 99.2688C89.0548 96.7898 88.9166 94.1082 88.9985 91.4916C89.1321 87.2016 89.8812 82.9534 90.916 78.7936C91.4242 76.7522 92.0024 74.7294 92.6158 72.7182C93.1262 71.0328 93.515 68.0626 94.6551 66.7894C97.2772 69.1172 99.3772 72.5367 101.58 75.2602Z" fill="#E3E8F4"/>
<path d="M107.581 81.498H109.22L113.434 88.4815L108.986 99.4219L103.601 88.714L107.581 81.498Z" fill="#3F3D56"/>
<path d="M107.433 92.5323C105.91 90.3211 104.859 87.8221 104.348 85.1903C104.184 84.3476 104.074 83.4888 103.774 82.6834C103.329 81.4891 102.491 80.4883 101.735 79.4571C98.9308 75.6323 97.1249 71.176 96.4788 66.4866C96.1884 64.3591 95.9942 61.9219 94.2663 60.6348C93.18 59.8269 91.7331 59.7036 90.3751 59.7269C85.1234 59.8574 80.0936 61.8588 76.2013 65.367C75.5543 66.0052 74.8703 66.6053 74.1528 67.164C73.4175 67.6639 72.6332 68.0882 71.8116 68.4304C69.7373 69.3616 67.5693 70.1343 65.3099 70.3695C64.7292 70.3936 64.1538 70.488 63.5961 70.651C62.9219 70.8838 62.367 71.3751 61.7981 71.815C59.9808 73.2066 57.8928 74.2086 55.6665 74.7572C52.5243 82.0116 50.0937 89.5506 48.4087 97.2693C47.9848 99.1895 47.6055 101.124 47.0273 103.005C46.229 105.612 45.0535 108.098 44.2693 110.71C41.1508 121.103 44.4261 132.426 42.3261 143.066L154.953 143.219C153.184 140.489 153.821 137.021 153.668 133.776C153.525 130.787 152.762 127.865 152.233 124.918C151.348 119.991 151.121 114.967 151.03 109.962C150.992 107.849 150.99 105.666 151.811 103.717C153.354 100.06 157.357 98.1305 161.148 96.8898C162.961 96.2985 164.866 95.7585 166.299 94.4946C167.767 93.1885 168.53 91.2705 168.999 89.3734C166.444 84.3688 163.125 79.5967 158.931 75.842C157.356 74.4454 155.672 73.1348 154.343 71.5007C153.532 70.5022 152.86 69.3894 151.966 68.4747C149.728 66.1631 146.347 65.2925 143.126 65.1646C142.131 65.125 141.122 65.1437 140.157 64.8968C137.39 64.1985 135.627 61.5101 133.133 60.1179C131.398 59.1553 129.373 58.8463 127.428 59.2473C126.023 59.5383 124.585 60.367 124.269 61.7451C124.094 62.5201 124.309 63.3209 124.391 64.11C124.644 66.538 123.63 68.9169 122.403 71.0305C117.995 78.5749 110.786 84.4619 107.433 92.5323Z" fill="#E0354B"/>
<path d="M132.042 45.9994C132.041 51.2172 130.294 56.2861 127.077 60.4083C123.86 64.5302 119.355 67.4712 114.272 68.7677C109.189 70.0643 103.816 69.643 99.0007 67.5701C94.1849 65.497 90.1994 61.8903 87.6722 57.3176C85.1448 52.745 84.2191 47.4664 85.0409 42.3132C85.8626 37.1601 88.3851 32.425 92.2112 28.8541C96.037 25.283 100.949 23.0786 106.174 22.5884C111.398 22.0982 116.638 23.3498 121.069 26.1458C124.432 28.2685 127.201 31.2013 129.119 34.672C131.037 38.1428 132.043 42.0392 132.042 45.9994Z" fill="#BE6F72"/>
<path d="M211.879 151.164V140.275H4.59943C4.98808 140.843 5.3822 141.405 5.78176 141.96C6.08373 142.671 6.49699 143.331 7.00623 143.913C7.27746 144.221 7.57514 144.506 7.89588 144.763C12.3911 150.454 17.509 155.286 23.1374 158.943C26.3349 161.028 29.7684 162.731 33.3661 164.018H205.362L211.879 151.164Z" fill="#3F3D56"/>
<path d="M112.823 127.821C109.646 127.569 106.342 126.783 103.35 127.872C102.33 128.277 101.363 128.802 100.468 129.436C97.2366 131.594 94.26 134.106 91.595 136.927C90.8246 137.74 90.071 138.596 89.598 139.611C88.9307 141.043 88.8721 142.674 88.4273 144.19C88.1721 145.058 87.7835 145.938 87.938 146.829C88.0927 147.721 89.1274 148.52 89.9024 148.045C89.8634 148.293 89.8805 148.547 89.9518 148.789C90.0234 149.03 90.1474 149.253 90.3153 149.441C90.4833 149.629 90.6911 149.778 90.9234 149.877C91.1561 149.976 91.4078 150.023 91.6607 150.014C92.8453 149.973 93.9893 149.573 94.9382 148.866C94.9685 149.149 95.107 149.408 95.3251 149.592C95.543 149.775 95.8239 149.868 96.109 149.851C98.1388 149.718 100.072 148.687 101.81 147.56C103.849 146.248 105.874 144.753 108.262 144.302C106.793 144.968 105.499 145.963 104.481 147.209C104.09 147.686 103.725 148.245 104.156 148.983C104.413 149.397 104.809 149.708 105.275 149.86C107.949 150.792 110.854 149.25 112.638 147.114C113.357 146.25 113.991 145.251 114.979 144.728C116.569 143.878 118.529 144.474 120.317 144.227C122.303 143.957 123.972 142.67 125.796 141.839C128.224 140.735 130.93 140.442 133.522 139.786C133.833 139.741 134.12 139.593 134.337 139.367C134.499 139.098 134.568 138.784 134.536 138.473C134.524 135.285 134.282 132.101 133.812 128.948C133.773 128.44 133.617 127.947 133.356 127.509C132.845 126.787 131.876 126.578 131.003 126.434C129.598 126.201 128.022 125.679 126.608 125.684C125.25 125.684 123.942 126.448 122.647 126.822C119.46 127.742 116.131 128.081 112.823 127.821Z" fill="#BE6F72"/>
<path d="M127.634 123.624C124.124 123.991 120.823 125.459 118.208 127.815C121.128 127.081 124.269 126.357 127.084 127.419C128.454 127.936 129.64 128.846 130.489 130.034C131.339 131.222 131.815 132.634 131.857 134.091C131.898 135.548 131.504 136.985 130.723 138.219C129.943 139.453 128.811 140.428 127.472 141.022C128.041 141.658 128.877 141.97 129.708 142.21C135.713 143.951 142.142 142.908 148.283 141.721C149.407 141.504 150.625 141.218 151.311 140.298C151.922 139.467 151.903 138.348 151.849 137.316C151.692 134.339 151.432 131.264 150.074 128.613C148.234 125.014 145.038 123.673 141.19 124.09C136.661 124.57 132.166 123.168 127.634 123.624Z" fill="#E3E8F4"/>
<path d="M165.843 85.4835C167.784 87.32 169.183 89.6386 170.469 91.9756C174.823 99.8885 178.16 108.314 180.401 117.055C180.621 117.914 180.839 118.796 181.354 119.52C182.102 120.57 183.373 121.15 184.19 122.141C185.171 123.347 185.361 125.046 185.039 126.564C184.714 128.082 183.946 129.467 183.166 130.81C181.032 134.483 178.515 138.275 174.599 139.953C172.96 140.652 171.168 140.94 169.397 141.171C162.74 142.042 156.013 142.258 149.314 141.816C150.484 140.466 150.596 138.473 150.182 136.739C149.768 135.005 148.904 133.415 148.309 131.736C147.841 130.426 147.511 129.029 146.689 127.903C146.083 127.129 145.337 126.476 144.488 125.977C142.56 124.761 140.392 123.97 138.129 123.659C139.808 122.356 141.983 121.922 144.029 121.331C146.076 120.74 148.215 119.832 149.288 118.003C149.932 116.906 150.11 115.605 150.196 114.339C150.458 110.528 150.01 106.702 148.876 103.054C148.122 100.626 147.054 98.0883 147.705 95.6349C148.038 94.3966 148.784 93.3072 149.517 92.2643C150.946 90.2159 152.425 88.1185 154.509 86.7358C156.306 85.5417 158.444 84.9807 160.584 84.8317C162.188 84.7269 164.625 84.3406 165.843 85.4835Z" fill="#E0354B"/>
<path d="M81.5935 156.83C81.5747 159.26 74.9279 161.951 67.2369 161.951C59.546 161.951 53.1262 159.268 53.0234 156.83C52.665 148.378 59.5437 153.136 67.2369 153.136C74.9304 153.136 81.6637 147.1 81.5935 156.83Z" fill="#3F3D56"/>
<path opacity="0.2" d="M81.5935 156.83C81.5747 159.26 74.9279 161.951 67.2369 161.951C59.546 161.951 53.1262 159.268 53.0234 156.83C52.665 148.378 59.5437 153.136 67.2369 153.136C74.9304 153.136 81.6637 147.1 81.5935 156.83Z" fill="black"/>
<path d="M81.1648 153.136C81.1648 155.569 74.9279 158.257 67.2368 158.257C59.5459 158.257 53.3088 155.575 53.3088 153.136C53.3088 150.696 59.5437 149.444 67.2368 149.444C74.9302 149.444 81.1648 150.706 81.1648 153.136Z" fill="#3F3D56"/>
<path opacity="0.1" d="M81.1648 153.136C81.1648 155.569 74.9279 158.257 67.2368 158.257C59.5459 158.257 53.3088 155.575 53.3088 153.136C53.3088 150.696 59.5437 149.444 67.2368 149.444C74.9302 149.444 81.1648 150.706 81.1648 153.136Z" fill="white"/>
<path d="M78.449 152.177C78.4349 154.074 73.2513 156.164 67.251 156.164C61.2503 156.164 56.247 154.07 56.1626 152.177C55.8842 145.584 61.2503 149.295 67.251 149.295C73.2513 149.295 78.5052 144.588 78.449 152.177Z" fill="#3F3D56"/>
<path opacity="0.2" d="M78.449 152.177C78.4349 154.074 73.2513 156.164 67.251 156.164C61.2503 156.164 56.247 154.07 56.1626 152.177C55.8842 145.584 61.2503 149.295 67.251 149.295C73.2513 149.295 78.5052 144.588 78.449 152.177Z" fill="black"/>
<path d="M78.1142 148.828C78.1142 150.948 73.2515 153.286 67.2509 153.286C61.2502 153.286 56.3851 150.958 56.3851 148.828C56.3851 146.698 61.2502 145.611 67.2509 145.611C73.2515 145.611 78.1142 146.705 78.1142 148.828Z" fill="#3F3D56"/>
<path opacity="0.1" d="M78.1142 148.828C78.1142 150.948 73.2515 153.286 67.2509 153.286C61.2502 153.286 56.3851 150.958 56.3851 148.828C56.3851 146.698 61.2502 145.611 67.2509 145.611C73.2515 145.611 78.1142 146.705 78.1142 148.828Z" fill="white"/>
<path d="M41.2141 162.887C41.2141 162.887 43.2696 160.633 43.6232 158.1C43.9766 155.567 33.5793 151.678 33.5793 151.678C33.5793 151.678 29.9737 153.773 29.8521 155.735C29.8521 155.735 36.7541 163.11 41.2141 162.887Z" fill="#3F3D56"/>
<path opacity="0.2" d="M41.2141 162.887C41.2141 162.887 43.2696 160.633 43.6232 158.1C43.9766 155.567 33.5793 151.678 33.5793 151.678C33.5793 151.678 29.9737 153.773 29.8521 155.735C29.8521 155.735 36.7541 163.11 41.2141 162.887Z" fill="black"/>
<path d="M41.1201 162.988C41.7628 161.924 39.6971 159.518 36.5064 157.614C33.3156 155.709 30.2078 155.029 29.5651 156.095C28.9223 157.159 30.988 159.565 34.1787 161.469C37.3696 163.373 40.4773 164.054 41.1201 162.988Z" fill="#3F3D56"/>
<path opacity="0.1" d="M41.1201 162.988C41.7628 161.924 39.6971 159.518 36.5064 157.614C33.3156 155.709 30.2078 155.029 29.5651 156.095C28.9223 157.159 30.988 159.565 34.1787 161.469C37.3696 163.373 40.4773 164.054 41.1201 162.988Z" fill="white"/>
<path d="M43.7684 157.325L49.6823 147.523L43.6677 142.444L38.9781 141.571L37.5149 144.195L33.399 151.788L43.7684 157.325Z" fill="#3F3D56"/>
<path opacity="0.1" d="M43.7684 157.325L49.6823 147.523L43.6677 142.444L38.9781 141.571L37.5149 144.195L33.399 151.788L43.7684 157.325Z" fill="white"/>
<path d="M49.7621 148.489C49.7621 148.489 53.7562 144.269 52.7306 141.988C51.7051 139.707 46.2898 135.135 42.8413 135.831C39.3927 136.527 38.84 141.583 38.84 141.583L49.7621 148.489Z" fill="#3F3D56"/>
<path opacity="0.2" d="M49.7621 148.489C49.7621 148.489 53.7562 144.269 52.7306 141.988C51.7051 139.707 46.2898 135.135 42.8413 135.831C39.3927 136.527 38.84 141.583 38.84 141.583L49.7621 148.489Z" fill="black"/>
<path d="M4.33014 129.944L34.923 148.445C34.923 148.445 37.8309 148.07 37.5147 144.199L7.21455 125.498C6.59774 125.117 5.86705 124.96 5.14722 125.055C4.31843 125.167 3.33746 125.468 3.01904 126.252C2.93768 126.452 2.88107 126.66 2.85047 126.873C2.76493 127.473 2.85978 128.085 3.12307 128.631C3.38637 129.178 3.80636 129.634 4.33014 129.944Z" fill="#3F3D56"/>
<path opacity="0.2" d="M4.33014 129.944L34.923 148.445C34.923 148.445 37.8309 148.07 37.5147 144.199L7.21455 125.498C6.59774 125.117 5.86705 124.96 5.14722 125.055C4.31843 125.167 3.33746 125.468 3.01904 126.252C2.93768 126.452 2.88107 126.66 2.85047 126.873C2.76493 127.473 2.85978 128.085 3.12307 128.631C3.38637 129.178 3.80636 129.634 4.33014 129.944Z" fill="black"/>
<path d="M43.7636 158.707C43.9234 158.697 44.0759 158.639 44.1993 158.537C44.3229 158.436 44.4104 158.297 44.4496 158.144C44.5993 157.619 44.3255 157.117 44.0374 156.698C43.5233 155.951 42.8813 155.297 42.1412 154.77C40.8956 153.875 39.6874 152.864 38.278 152.21C37.4622 151.849 36.6075 151.581 35.7308 151.412C35.0736 151.261 34.401 151.188 33.7268 151.193C33.6071 151.196 33.4913 151.235 33.3946 151.305C33.2979 151.376 33.225 151.474 33.1858 151.586C33.1463 151.698 33.1422 151.82 33.174 151.935C33.2058 152.05 33.2721 152.152 33.3639 152.228C33.6755 152.434 34.0235 152.579 34.3892 152.657C36.2131 153.19 37.901 154.113 39.4814 155.164C40.3326 155.708 41.1299 156.332 41.8624 157.026C42.3495 157.505 42.9722 158.725 43.7636 158.707Z" fill="#3F3D56"/>
<path opacity="0.2" d="M43.7636 158.707C43.9234 158.697 44.0759 158.639 44.1993 158.537C44.3229 158.436 44.4104 158.297 44.4496 158.144C44.5993 157.619 44.3255 157.117 44.0374 156.698C43.5233 155.951 42.8813 155.297 42.1412 154.77C40.8956 153.875 39.6874 152.864 38.278 152.21C37.4622 151.849 36.6075 151.581 35.7308 151.412C35.0736 151.261 34.401 151.188 33.7268 151.193C33.6071 151.196 33.4913 151.235 33.3946 151.305C33.2979 151.376 33.225 151.474 33.1858 151.586C33.1463 151.698 33.1422 151.82 33.174 151.935C33.2058 152.05 33.2721 152.152 33.3639 152.228C33.6755 152.434 34.0235 152.579 34.3892 152.657C36.2131 153.19 37.901 154.113 39.4814 155.164C40.3326 155.708 41.1299 156.332 41.8624 157.026C42.3495 157.505 42.9722 158.725 43.7636 158.707Z" fill="black"/>
<path d="M48.6474 149.239C48.6474 149.239 51.649 149.311 49.1649 146.311C46.6809 143.31 42.2372 140.333 39.0741 141.006C39.0741 141.006 37.7631 142.086 38.8962 142.272C39.9708 142.449 44.9834 143.436 47.2872 146.213C47.5395 146.514 47.821 146.79 48.1277 147.037C48.6685 147.475 49.3969 148.303 48.6474 149.239Z" fill="#3F3D56"/>
<path opacity="0.2" d="M48.6474 149.239C48.6474 149.239 51.649 149.311 49.1649 146.311C46.6809 143.31 42.2372 140.333 39.0741 141.006C39.0741 141.006 37.7631 142.086 38.8962 142.272C39.9708 142.449 44.9834 143.436 47.2872 146.213C47.5395 146.514 47.821 146.79 48.1277 147.037C48.6685 147.475 49.3969 148.303 48.6474 149.239Z" fill="black"/>
<path d="M53.5403 142.628C54.183 141.563 52.1175 139.157 48.9267 137.252C45.7358 135.349 42.6282 134.668 41.9855 135.733C41.3426 136.798 43.4082 139.205 46.5991 141.109C49.7898 143.013 52.8976 143.693 53.5403 142.628Z" fill="#3F3D56"/>
<path opacity="0.1" d="M53.5403 142.628C54.183 141.563 52.1175 139.157 48.9267 137.252C45.7358 135.349 42.6282 134.668 41.9855 135.733C41.3426 136.798 43.4082 139.205 46.5991 141.109C49.7898 143.013 52.8976 143.693 53.5403 142.628Z" fill="white"/>
<path d="M33.7268 141.857C33.6862 142.4 33.5125 142.924 33.2213 143.384C32.9297 143.844 32.5294 144.226 32.0552 144.497C30.4841 145.33 28.2787 144.588 27.5389 142.977C27.155 142.139 27.1478 141.198 27.0707 140.274C27.0454 139.973 27.005 139.673 26.9489 139.376C26.7148 138.177 25.7173 136.904 24.5117 137.141C23.5165 137.334 22.9922 138.445 22.8729 139.446C22.842 139.721 22.8265 139.997 22.826 140.274C22.826 140.563 22.8376 140.852 22.8541 141.14C22.8868 141.732 22.9384 142.325 22.936 142.916C22.936 144.08 22.6832 145.316 21.838 146.115C20.8125 147.085 19.2391 147.13 17.8204 147.113C14.3577 147.078 10.5041 146.881 7.89827 144.762C7.57752 144.505 7.27984 144.221 7.00859 143.913C6.49937 143.33 6.08611 142.671 5.78414 141.96C5.55203 141.416 5.37403 140.852 5.25267 140.274C4.86401 138.47 4.95066 136.503 5.26906 134.674C5.47509 133.477 5.87309 132.167 6.75341 131.403C6.96303 131.221 7.20003 131.073 7.45577 130.963C7.8772 130.786 8.3548 130.73 8.72238 130.454C9.08995 130.176 9.32877 129.674 9.71742 129.371C10.497 128.763 11.6817 129.024 12.5948 128.819H12.6346L12.6837 128.805C13.6694 128.573 14.5802 128.037 15.5096 127.642C15.91 127.472 16.3103 127.309 16.713 127.164C17.7156 126.766 18.7981 126.607 19.8738 126.699C23.3856 127.097 27.5997 129.215 30.0043 131.757C30.5966 132.342 31.0577 133.045 31.3574 133.819C31.5539 134.469 31.6625 135.141 31.6805 135.819C31.7439 136.776 31.7952 137.73 32.2728 138.547C32.5631 139.041 32.9893 139.443 33.2913 139.944C33.3609 140.056 33.4219 140.174 33.4741 140.295C33.6885 140.786 33.7755 141.324 33.7268 141.857Z" fill="#BE6F72"/>
<path d="M26.0032 130.368C27.4336 131.104 28.8408 131.935 29.9644 133.08C31.0883 134.226 31.917 135.727 31.9826 137.328C32.9647 136.147 33.8077 134.857 34.4947 133.485C35.038 132.403 35.4851 131.123 35.0028 130.01C34.7724 129.539 34.4481 129.119 34.0499 128.776C31.9429 126.793 29.1098 125.697 26.2443 125.247C23.1469 124.761 16.9589 123.699 16.4837 128.183C19.9534 128.02 22.9033 128.781 26.0032 130.368Z" fill="#E3E8F4"/>
<path d="M64.3805 73.0444C62.0885 74.0291 59.4055 73.3331 56.9822 73.9288C55.1935 74.3688 53.6554 75.4838 52.2039 76.6129C49.31 78.8614 46.4585 81.3753 44.9108 84.6879C44.4051 85.7726 44.0447 86.9248 43.4381 87.9467C42.4572 89.6135 40.8909 90.8542 39.2591 91.9039C35.0895 94.5762 30.2477 96.2476 26.5369 99.5205C24.9495 100.917 23.6127 102.574 22.3695 104.281C20.9085 106.283 19.5108 108.517 19.4827 110.989C19.4827 111.958 19.6746 112.94 19.4827 113.892C19.0706 116.022 16.9074 117.344 15.9311 119.286C14.9945 121.136 15.217 123.422 14.1751 125.21C13.4915 126.374 12.253 127.538 12.6439 128.823C15.5143 126.679 18.9653 125.796 22.4773 126.495C24.2355 126.841 25.8766 127.621 27.45 128.476C29.2736 129.467 31.0718 130.594 32.3898 132.2C33.708 133.806 34.4972 135.943 34.0288 137.957C35.9275 137.026 37.0513 135.038 37.8309 133.082C38.6106 131.127 39.2053 129.039 40.5 127.384C41.1672 126.53 41.996 125.82 42.785 125.077C47.1656 120.95 50.3238 115.736 53.4236 110.589C56.6203 105.285 59.8152 99.9775 63.0087 94.6672C63.8937 93.1935 64.7832 91.7107 65.4224 90.1186C67.5695 84.7647 66.1787 78.5123 64.3805 73.0444Z" fill="#E0354B"/>
<path d="M198.119 144.151C205.491 144.151 211.466 143.009 211.466 141.6C211.466 140.191 205.491 139.048 198.119 139.048C190.746 139.048 184.772 140.191 184.772 141.6C184.772 143.009 190.746 144.151 198.119 144.151Z" fill="#E0354B"/>
<path d="M197.894 142.539C198.754 142.539 199.45 141.633 199.45 140.516C199.45 139.399 198.754 138.494 197.894 138.494C197.035 138.494 196.339 139.399 196.339 140.516C196.339 141.633 197.035 142.539 197.894 142.539Z" fill="#3F3D56"/>
<path d="M197.894 140.065C198.754 140.065 199.45 139.16 199.45 138.042C199.45 136.925 198.754 136.02 197.894 136.02C197.035 136.02 196.339 136.925 196.339 138.042C196.339 139.16 197.035 140.065 197.894 140.065Z" fill="#3F3D56"/>
<path d="M197.894 137.593C198.754 137.593 199.45 136.687 199.45 135.57C199.45 134.453 198.754 133.547 197.894 133.547C197.035 133.547 196.339 134.453 196.339 135.57C196.339 136.687 197.035 137.593 197.894 137.593Z" fill="#3F3D56"/>
<path d="M197.894 135.122C198.754 135.122 199.45 134.216 199.45 133.099C199.45 131.981 198.754 131.076 197.894 131.076C197.035 131.076 196.339 131.981 196.339 133.099C196.339 134.216 197.035 135.122 197.894 135.122Z" fill="#3F3D56"/>
<path d="M197.894 132.649C198.754 132.649 199.45 131.743 199.45 130.626C199.45 129.509 198.754 128.604 197.894 128.604C197.035 128.604 196.339 129.509 196.339 130.626C196.339 131.743 197.035 132.649 197.894 132.649Z" fill="#3F3D56"/>
<path d="M197.894 130.176C198.754 130.176 199.45 129.271 199.45 128.154C199.45 127.036 198.754 126.131 197.894 126.131C197.035 126.131 196.339 127.036 196.339 128.154C196.339 129.271 197.035 130.176 197.894 130.176Z" fill="#3F3D56"/>
<path d="M197.894 127.705C198.754 127.705 199.45 126.799 199.45 125.682C199.45 124.565 198.754 123.659 197.894 123.659C197.035 123.659 196.339 124.565 196.339 125.682C196.339 126.799 197.035 127.705 197.894 127.705Z" fill="#3F3D56"/>
<path d="M203.714 108.762C203.926 108.494 204.12 108.211 204.292 107.917L200.211 107.249L204.626 107.281C205.048 106.365 205.28 105.372 205.304 104.364C205.329 103.356 205.146 102.353 204.768 101.418L198.842 104.474L204.308 100.48C203.796 99.5992 203.107 98.8331 202.285 98.2289C201.462 97.625 200.524 97.1955 199.525 96.968C198.53 96.7405 197.497 96.7195 196.492 96.9063C195.486 97.0932 194.532 97.4839 193.685 98.054C192.838 98.6245 192.119 99.3619 191.57 100.221C191.024 101.079 190.662 102.041 190.502 103.046C190.345 104.05 190.4 105.076 190.658 106.06C190.918 107.043 191.379 107.963 192.01 108.762C191.681 109.181 191.396 109.633 191.163 110.112L196.464 112.852L190.808 110.964C190.41 112.13 190.312 113.377 190.521 114.59C190.73 115.804 191.24 116.946 192.005 117.915C191.142 119.007 190.606 120.318 190.456 121.699C190.307 123.08 190.551 124.475 191.163 125.724C191.773 126.974 192.725 128.027 193.91 128.764C195.094 129.501 196.462 129.892 197.859 129.892C199.256 129.892 200.625 129.501 201.81 128.764C202.995 128.027 203.946 126.974 204.555 125.724C205.167 124.475 205.411 123.08 205.262 121.699C205.113 120.318 204.575 119.007 203.714 117.915C204.743 116.61 205.304 114.998 205.304 113.338C205.304 111.678 204.743 110.067 203.714 108.762Z" fill="#E0354B"/>
<path opacity="0.1" d="M190.417 113.338C190.416 114.998 190.978 116.611 192.01 117.915C191.149 119.006 190.611 120.318 190.461 121.699C190.312 123.08 190.556 124.475 191.168 125.724C191.778 126.974 192.729 128.027 193.913 128.764C195.098 129.501 196.467 129.892 197.864 129.892C199.26 129.892 200.629 129.501 201.814 128.764C202.998 128.027 203.949 126.974 204.561 125.724C205.171 124.475 205.415 123.08 205.265 121.699C205.118 120.318 204.58 119.006 203.717 117.915C204.712 116.655 190.417 112.507 190.417 113.338Z" fill="black"/>
<path d="M96.6895 35.7337C98.3284 36.362 99.9277 37.2652 101.686 37.3839C103.917 37.533 106.024 36.4017 108.241 36.0899C112.303 35.5194 116.159 37.7191 119.975 39.2137C123.792 40.708 128.708 41.3272 131.506 38.3454C133.882 35.8103 133.555 31.5947 131.644 28.7084C129.734 25.8221 126.613 23.9551 123.527 22.3465C120.123 20.5728 116.574 18.9598 112.783 18.3335C104.739 17.0089 96.5656 20.3167 89.8907 24.9745C87.6758 26.5204 85.4867 28.3244 84.4286 30.7941C83.8293 32.1906 83.642 33.9784 84.164 35.4333C85.0209 37.8264 85.5828 37.5423 87.3598 36.9185C90.7545 35.7313 92.761 34.2392 96.6895 35.7337Z" fill="#3F3D56"/>
</g>
<defs>
<clipPath id="clip0">
<rect width="232" height="163" fill="white"/>
</clipPath>
</defs>
</svg>
