<svg width="199" height="216" viewBox="0 0 199 216" fill="none" xmlns="http://www.w3.org/2000/svg">
<g clip-path="url(#clip0)">
<path d="M199 54.6085V54.9355C198.993 55.7565 198.968 56.5737 198.929 57.3872C198.209 71.3104 192.11 84.4353 181.881 94.0726C171.651 103.71 158.066 109.129 143.91 109.22C129.753 109.312 116.097 104.068 105.741 94.5629C95.384 85.0585 89.1109 72.0131 88.2068 58.1005C88.1313 56.9452 88.0936 55.7812 88.0936 54.6085C88.0737 43.2982 91.6382 32.2636 98.2902 23.0433C98.8221 22.3004 99.3754 21.571 99.95 20.8553C100.346 20.3576 100.754 19.8709 101.165 19.388C110.526 8.4672 123.86 1.59451 138.308 0.24442C152.756 -1.10568 167.165 3.17437 178.445 12.1663C179.113 12.6975 179.769 13.2473 180.409 13.8082C180.923 14.2578 181.427 14.7172 181.923 15.1864C191.68 24.3775 197.686 36.7662 198.808 50.017C198.936 51.5327 199 53.0631 199 54.6085Z" fill="#E0354B"/>
<path d="M99.95 20.8555C99.9771 20.8667 100.003 20.8817 100.025 20.9001C100.323 21.1415 99.95 21.6059 99.9953 21.9885C100.048 22.4789 100.712 22.5866 101.214 22.635C101.715 22.6869 102.349 23.0844 102.112 23.5228C100.852 23.95 99.5765 23.5301 98.2902 23.0435C91.6382 32.2638 88.0737 43.2983 88.0936 54.6087C88.0936 55.7826 88.1313 56.9465 88.2068 58.1006C88.3122 58.1764 88.4277 58.2377 88.5501 58.2827C88.9273 58.4238 89.3648 58.3978 89.7119 58.5985C89.9873 58.7582 90.1722 59.0405 90.4476 59.189C91.2359 59.6126 92.3299 58.7991 93.0655 59.3043C93.2556 59.4748 93.4358 59.6558 93.6049 59.8466C94.284 60.4261 95.4006 60.0361 96.1852 60.4707C96.6907 60.7494 96.951 61.3065 97.2226 61.8118C97.8979 63.0748 98.9919 64.3156 100.437 64.4159C100.892 64.3953 101.349 64.4102 101.802 64.4605C102.247 64.5608 102.685 64.9434 102.613 65.3855C102.489 66.1471 102.87 66.9792 102.768 67.7407C102.583 69.1338 100.58 69.743 100.41 71.1361C100.41 71.4427 100.392 71.7489 100.357 72.0537C100.267 72.4177 99.9877 72.7149 99.8896 73.079C99.701 73.7662 100.203 74.4535 100.75 74.9141C101.301 75.3784 101.957 75.7797 102.259 76.4261C102.576 77.1133 102.421 77.912 102.523 78.6587C102.749 80.2896 104.179 81.4968 105.65 82.277C106.121 82.4709 106.54 82.7712 106.872 83.1536C107.249 83.6923 107.212 84.4019 107.34 85.0445C107.649 86.6159 108.992 87.9124 109.03 89.5135C109.056 90.6539 108.415 91.6867 108.03 92.7602C107.635 93.8858 107.517 95.0879 107.687 96.267C109.838 98.0636 112.125 99.6965 114.526 101.152C114.657 100.962 114.753 100.751 114.809 100.528C114.855 100.282 114.823 100.028 114.719 99.7994C114.615 99.5711 114.442 99.3796 114.225 99.2502C114.63 99.0993 114.999 98.8664 115.307 98.5666C115.458 98.4131 115.559 98.2176 115.594 98.0062C115.629 97.795 115.598 97.5782 115.503 97.3852C116.167 97.4669 116.955 97.5078 117.394 97.0063C117.744 96.6052 117.722 96.0033 117.582 95.4943C117.443 94.9818 117.209 94.4877 117.205 93.9564C118.743 94.0302 120.285 93.9793 121.815 93.8042C121.593 93.0693 121.089 92.4484 120.411 92.073C121.105 91.9579 121.735 91.1406 121.954 90.483C122.144 89.8123 122.153 89.1047 121.984 88.4287C121.932 88.2551 121.924 88.0712 121.961 87.8938C122.073 87.6582 122.269 87.4716 122.513 87.3699C123.66 86.7198 124.806 86.071 125.953 85.4234C126.157 85.3218 126.343 85.1875 126.504 85.0259C126.862 84.6062 126.81 83.9784 126.624 83.462C126.439 82.9455 126.145 82.4589 126.074 81.9166C125.862 80.2932 127.627 79.1267 128.223 77.5962C128.426 76.9852 128.535 76.348 128.548 75.7054C128.597 75.0144 128.601 74.2156 128.065 73.7736C127.549 73.3464 126.745 73.443 126.205 73.0455C125.711 72.6815 125.542 71.9794 125.002 71.6859C124.511 71.4184 123.901 71.5893 123.354 71.463C122.396 71.2438 121.792 70.1553 120.811 70.055C120.26 69.9956 119.635 70.2631 119.181 69.9474C118.782 69.6651 118.767 69.104 118.692 68.6286C118.557 67.8879 118.196 67.2055 117.656 66.6728C117.117 66.1402 116.425 65.783 115.673 65.6492C115.103 65.5601 114.485 65.5935 113.998 65.2852C113.508 64.9732 113.285 64.3899 112.896 63.9553C112.278 63.2606 111.297 63.0117 110.38 62.8C109.136 62.5139 107.892 62.2266 106.65 61.9381C105.99 61.7821 105.137 61.7004 104.779 62.2725C104.673 62.49 104.599 62.7214 104.56 62.9597C104.425 63.3884 104.156 63.7643 103.792 64.0338C103.427 64.3032 102.986 64.4526 102.53 64.4605C102.218 63.9359 101.713 63.55 101.119 63.3832C100.732 63.3191 100.348 63.2298 99.9727 63.1157C99.7764 63.021 99.6018 62.8879 99.4595 62.7244C99.3173 62.561 99.2105 62.3707 99.1454 62.1652C99.0805 61.9597 99.0588 61.7432 99.0817 61.5292C99.1046 61.3151 99.1716 61.1079 99.2785 60.9202C99.4924 60.5432 99.5748 60.1075 99.5127 59.6799C99.4507 59.2525 99.2478 58.8568 98.9353 58.5539C98.3015 57.9929 97.3848 57.8555 96.5323 57.9111C96.3098 57.432 96.6832 56.8933 97.083 56.5442C97.4867 56.1987 97.9733 55.8568 98.0601 55.3368C98.1996 54.5195 97.1396 53.8992 96.3361 54.1406C95.5326 54.3858 95.0196 55.1548 94.6801 55.9126C94.5154 56.3598 94.2909 56.7833 94.0124 57.172C93.8697 57.3641 93.6758 57.5138 93.4521 57.6043C93.2283 57.6948 92.9836 57.7226 92.7449 57.6846C92.0809 57.5174 91.8282 56.741 91.6811 56.0872C91.4453 55.2134 91.3262 54.3129 91.3265 53.4088C91.3322 52.4957 91.7005 51.621 92.3526 50.9718C93.4503 49.9762 95.1403 50.0728 96.6228 50.2325C96.464 50.024 96.3879 49.7656 96.4087 49.5057C96.4296 49.2458 96.5459 49.0024 96.736 48.8209C96.9344 48.6474 97.1727 48.5243 97.4305 48.4621C97.6882 48.4 97.9574 48.4007 98.2147 48.4644C98.6618 48.5554 99.0644 48.7923 99.3578 49.1366C99.7802 49.642 99.901 50.3292 100.218 50.9013C100.538 51.477 101.255 51.9674 101.84 51.6591C102.349 51.3916 102.428 50.7006 102.304 50.1472C102.176 49.5974 101.908 49.0586 101.953 48.494C102.04 47.4204 103.175 46.7703 104.175 46.3283C105.175 45.8862 106.318 45.2881 106.476 44.2183C106.483 44.0102 106.524 43.8045 106.597 43.609C106.707 43.4345 106.862 43.2911 107.046 43.1929C109.962 41.2947 112.93 39.3704 116.266 38.334C116.439 38.2781 116.458 38.3376 116.635 38.2967C116.884 38.1556 116.718 37.7656 116.48 37.6095C116.243 37.4535 115.926 37.3309 115.866 37.0559C115.824 36.8553 115.945 36.6548 115.975 36.4504C115.983 36.327 115.96 36.2036 115.908 36.0909C115.857 35.9784 115.777 35.88 115.677 35.8044C115.578 35.7289 115.462 35.6786 115.338 35.6578C115.214 35.637 115.087 35.6463 114.968 35.6852C114.699 35.336 115.228 34.9311 115.658 34.8122C116.946 34.4649 118.267 34.2532 119.601 34.1807C119.754 34.1557 119.912 34.1819 120.049 34.2549C120.146 34.3481 120.205 34.4747 120.211 34.6087C120.218 34.7426 120.172 34.874 120.083 34.9757C119.902 35.1742 119.7 35.3546 119.483 35.5143C119.267 35.7213 119.112 35.9829 119.036 36.2705C118.961 36.5581 118.967 36.8606 119.054 37.1451C119.751 37.4944 120.505 37.8547 121.279 37.7321C122.049 37.6095 122.731 36.7551 122.369 36.0753C122.034 35.44 121.018 35.2951 120.845 34.6004C120.641 33.7869 121.811 33.0625 121.546 32.2675C121.434 31.9183 121.079 31.7103 120.807 31.4614C120.487 31.1515 120.271 30.754 120.184 30.3206C120.096 29.8872 120.144 29.4381 120.321 29.0319C119.879 29.1078 119.425 29.0788 118.997 28.9469C118.57 28.8151 118.18 28.5844 117.861 28.2741C117.273 27.6909 116.804 26.7658 115.967 26.7956C115.202 26.8179 114.541 27.6982 113.824 27.4307C113.647 27.364 113.462 27.2302 113.292 27.3081C113.236 27.3436 113.189 27.3912 113.155 27.4472C113.12 27.5031 113.099 27.5662 113.093 27.6314C112.912 28.4895 113.224 29.4665 112.75 30.2096C112.232 31.0156 111.037 31.127 110.411 31.8552C110.071 32.2489 109.939 32.7802 109.626 33.1963C109.313 33.6123 108.653 33.8798 108.276 33.5158C108.46 33.1428 108.511 32.7191 108.419 32.3141C108.327 31.9092 108.098 31.5469 107.77 31.2869C107.423 31.0622 107.047 30.8824 106.653 30.7519C106.213 30.569 105.795 30.3399 105.405 30.0684C105.21 29.9518 105.052 29.7847 104.948 29.5854C104.866 29.3349 104.877 29.0637 104.979 28.8201C105.17 28.2836 105.505 27.8086 105.95 27.4459C106.395 27.0833 106.931 26.847 107.502 26.7622C108 26.6953 108.581 26.7176 108.913 26.3423C109.087 26.1455 109.177 25.8446 109.434 25.7666C109.595 25.7333 109.763 25.7529 109.913 25.8223C110.535 26.0377 111.153 26.2532 111.777 26.4687C111.984 26.5624 112.214 26.5996 112.44 26.5764C112.553 26.5621 112.655 26.5061 112.728 26.4199C112.8 26.3337 112.836 26.2236 112.829 26.1121C112.769 25.8075 112.293 25.6626 112.339 25.3542C112.36 25.2535 112.415 25.1623 112.494 25.0942C113.166 24.3895 113.988 23.8399 114.902 23.4847C115.816 23.1295 116.797 22.9776 117.778 23.0399C118.012 23.4225 117.642 23.872 117.329 24.1952C117.02 24.5221 116.77 25.1016 117.148 25.3505C117.3 25.4291 117.471 25.4675 117.642 25.462C118.101 25.5226 118.546 25.6555 118.962 25.8557C119.608 26.1307 120.241 26.4353 120.86 26.7622C120.768 26.3638 120.785 25.9491 120.906 25.5585C120.973 25.3668 121.112 25.207 121.293 25.1101C121.475 25.0133 121.686 24.9864 121.886 25.0348C122.256 25.1759 122.445 25.6588 122.841 25.7034C123.364 25.7629 123.573 24.9975 123.354 24.5221C123.135 24.0465 122.697 23.6528 122.663 23.129C122.637 22.7799 122.773 22.3452 122.489 22.1334C122.389 22.0678 122.274 22.027 122.154 22.0145C119.784 21.5873 117.415 21.1589 115.043 20.7293C114.621 20.6511 114.013 20.7107 113.994 21.1304C113.984 21.3681 114.198 21.6022 114.104 21.8177C114.002 22.048 113.67 22.0295 113.428 22.1112C113.247 22.1922 113.098 22.3292 113.002 22.5014C112.907 22.6737 112.871 22.8719 112.9 23.0659C112.964 23.4521 113.117 23.8191 113.345 24.1395C112.881 23.95 112.184 23.9166 111.719 23.7234C111.652 23.1943 111.515 22.6761 111.313 22.1817C111.301 22.103 111.272 22.0278 111.227 21.9614C111.183 21.8948 111.125 21.8388 111.056 21.797C110.987 21.7552 110.91 21.7288 110.83 21.7195C110.75 21.7102 110.668 21.7184 110.592 21.7434C109.981 21.8362 109.37 21.9254 108.758 22.0182C108.605 22.0255 108.458 22.0815 108.34 22.178C108.102 22.4269 108.336 22.8243 108.328 23.1662C108.306 23.3572 108.224 23.5368 108.094 23.6799C107.963 23.8231 107.791 23.9227 107.6 23.9648C107.216 24.0416 106.82 24.0365 106.438 23.95C105.582 23.8199 104.73 23.69 103.873 23.5599C104.629 23.3228 105.301 22.8797 105.812 22.282C106.152 21.8883 106.333 21.1527 105.842 20.967C105.698 20.9277 105.546 20.9164 105.397 20.9336C104.235 20.9409 103.319 19.9862 102.232 19.5813C101.891 19.4558 101.529 19.3904 101.165 19.3882L99.95 20.8555Z" fill="#3F3D56"/>
<path d="M198.929 57.3863C198.795 57.5621 198.62 57.7032 198.419 57.7972C198.218 57.891 197.996 57.9349 197.774 57.9249C196.593 57.8246 196.095 56.1493 194.926 55.9598C194.823 55.9337 194.713 55.9442 194.617 55.9895C194.443 56.0824 194.413 56.3127 194.402 56.5058C194.353 57.4643 194.311 58.4599 194.692 59.344C195.247 60.6368 196.684 61.7215 196.382 63.0923C194.759 62.353 193.915 60.5588 193.534 58.8387C193.149 57.1188 193.089 55.3134 192.403 53.6863C191.878 54.3438 190.784 53.8014 190.309 53.1105C189.856 52.4567 189.577 51.6988 189.139 51.0339C188.702 50.3726 188.03 49.7783 187.231 49.7411C186.39 49.7039 185.657 50.2723 185.016 50.811C184.458 51.2168 183.989 51.7299 183.639 52.3192C183.19 53.2108 183.308 54.2584 183.284 55.2502C183.262 56.3201 183.032 57.4532 182.288 58.2407C181.546 59.0245 180.176 59.2995 179.358 58.5899C178.962 58.1836 178.679 57.6831 178.539 57.1374C177.65 54.5833 176.908 51.9812 176.321 49.3436C176.185 49.9455 175.645 50.7218 175.132 50.369C175.017 50.2729 174.925 50.1538 174.86 50.0198C173.903 48.426 172.133 47.4677 170.342 46.8919C168.553 46.3197 166.671 46.0522 164.902 45.4207C163.91 45.066 162.962 44.6011 162.077 44.0352C161.852 44.3614 161.72 44.7413 161.696 45.1349C161.672 45.5285 161.757 45.9211 161.941 46.2714C162.14 46.6142 162.448 46.8827 162.818 47.0352C163.187 47.1877 163.598 47.2156 163.985 47.1147C164.377 46.9884 164.71 46.7209 165.098 46.5872C165.487 46.4572 166.011 46.5203 166.181 46.8919C166.346 47.2448 166.098 47.672 166.222 48.0434C166.407 48.6044 167.271 48.6489 167.573 49.1616C167.662 49.3646 167.682 49.5902 167.632 49.8055C167.58 50.0207 167.46 50.2143 167.289 50.3578C166.943 50.6366 166.56 50.8688 166.151 51.0487C164.883 51.7434 163.981 52.9285 162.872 53.8497C161.764 54.7748 160.198 55.4472 158.877 54.8565C159.19 53.2851 157.294 52.1335 156.942 50.5696C156.825 50.0532 156.886 49.5071 156.723 49.0056C156.485 48.2775 155.829 47.7797 155.294 47.2299C154.643 46.5549 154.136 45.7586 153.803 44.8877C153.469 44.0169 153.316 43.0892 153.351 42.1591C153.381 41.5127 153.502 40.8552 153.351 40.2236C153.204 39.5958 152.672 38.9866 152.015 39.0126C150.518 39.0795 148.629 39.1909 147.844 37.9316C147.56 37.4821 147.44 36.8246 147.847 36.4791C148.134 36.2377 148.556 36.26 148.93 36.2971C150.058 36.4048 151.182 36.5163 152.31 36.624C153.099 36.6983 153.95 36.7615 154.63 36.3565C155.309 35.9516 155.603 34.8706 154.973 34.3914C154.516 34.0422 153.694 34.0607 153.559 33.5072C153.449 33.0429 153.97 32.5191 153.687 32.129C153.487 31.8542 153.034 31.9284 152.759 32.1365C152.519 32.3821 152.258 32.6071 151.978 32.8089C151.439 33.0837 150.797 32.82 150.216 32.6417C149.635 32.4634 148.858 32.4485 148.579 32.9797C148.262 33.5704 148.855 34.3505 148.545 34.9448C148.131 35.7287 146.734 35.283 146.153 35.959C145.489 36.7317 146.607 37.8907 146.384 38.879C146.097 39.0188 145.779 39.0832 145.459 39.0656C145.14 39.048 144.831 38.9491 144.561 38.7787C144.298 38.6018 144.087 38.3577 143.953 38.0725C143.819 37.7873 143.766 37.4716 143.8 37.1589C143.853 36.7131 144.09 36.2562 143.931 35.8364C143.761 35.5123 143.479 35.2582 143.136 35.1195C142.042 34.5214 140.948 33.9258 139.853 33.3327C139.548 33.8898 139.933 34.577 140.416 34.9969C140.895 35.4129 141.498 35.7287 141.816 36.2785C142.016 36.6595 142.062 37.1017 141.942 37.5145C141.823 37.9274 141.548 38.2799 141.174 38.5C141.127 38.5321 141.073 38.5537 141.017 38.5632C140.959 38.5729 140.902 38.5704 140.846 38.5558C140.794 38.5255 140.748 38.4852 140.712 38.4374C140.676 38.3896 140.649 38.3351 140.635 38.2771C140.057 36.8171 139.186 35.3795 137.798 34.6179C136.406 33.8527 134.41 34.0124 133.497 35.2941C133.283 35.5987 133.135 35.9479 132.947 36.2711C131.947 37.9837 129.797 38.7935 127.79 38.7414C127.593 38.7538 127.398 38.7086 127.228 38.6115C126.903 38.3923 126.919 37.9242 126.968 37.5379C127.039 36.9918 127.107 36.4494 127.179 35.9033C127.181 35.5698 127.311 35.2497 127.544 35.008C127.918 34.7183 128.454 34.9003 128.929 34.8929C129.288 34.8771 129.633 34.7528 129.917 34.5367C130.201 34.3205 130.411 34.0233 130.517 33.6855C130.613 33.3447 130.612 32.9846 130.515 32.6441C130.418 32.3037 130.228 31.9958 129.967 31.7539C129.751 31.5532 129.461 31.3006 129.574 31.0294C129.62 30.9547 129.682 30.8908 129.756 30.842C129.83 30.7933 129.913 30.7609 130.001 30.7471C130.849 30.5056 131.751 30.4425 132.585 30.1527C133.422 29.8667 134.233 29.2797 134.433 28.429C134.493 28.169 134.52 27.8533 134.758 27.7232C134.877 27.6758 135.005 27.6506 135.135 27.6489C135.588 27.5848 136.001 27.3561 136.292 27.0077C136.583 26.6592 136.732 26.2161 136.708 25.7654C137.108 25.4906 137.67 25.6949 138.058 25.9884C138.443 26.2818 138.786 26.6682 139.257 26.7945C140.137 27.0322 140.985 26.2633 141.899 26.2595C142.283 26.2595 142.679 26.3933 143.037 26.2633C143.404 26.1332 143.622 25.7766 143.902 25.5129C144.184 25.2454 144.675 25.0857 144.935 25.3717C144.86 24.833 144.787 24.2981 144.713 23.7632C145.156 23.8734 145.62 23.8887 146.071 23.8079C146.522 23.7272 146.95 23.5523 147.327 23.2951C146.376 22.9794 145.429 22.6635 144.478 22.3478C144.379 22.3235 144.286 22.275 144.211 22.2067C144.004 21.9875 144.211 21.6457 144.376 21.3968C144.78 20.7987 144.848 19.8143 144.184 19.5171C143.732 19.3127 143.215 19.5579 142.781 19.7956C142.087 20.1746 141.393 20.5572 140.699 20.9361C140.635 21.3262 141.117 21.5491 141.415 21.8091C141.597 21.9678 141.725 22.1769 141.784 22.4088C141.843 22.6408 141.828 22.8848 141.744 23.1087C141.659 23.3327 141.507 23.5261 141.308 23.6634C141.11 23.8009 140.874 23.8757 140.631 23.8783C140.767 24.0541 140.862 24.2577 140.909 24.4743C140.956 24.691 140.952 24.9151 140.898 25.1303C140.434 25.1637 139.967 25.197 139.5 25.2306C139.421 25.2457 139.342 25.2457 139.264 25.2304C139.186 25.2151 139.112 25.1849 139.046 25.1414C138.895 25.0114 138.919 24.781 138.88 24.5878C138.818 24.357 138.688 24.1497 138.504 23.9928C138.321 23.8359 138.095 23.7364 137.855 23.7075C137.374 23.6542 136.887 23.6985 136.425 23.8374C136.223 23.9072 136.003 23.902 135.806 23.8226C135.694 23.7496 135.609 23.6427 135.565 23.518C135.483 23.2632 135.469 22.992 135.524 22.7303C135.58 22.4688 135.703 22.2257 135.881 22.0246C136.244 21.6285 136.643 21.2665 137.074 20.9436C138.049 20.102 138.768 19.0082 139.145 17.786C139.914 17.4665 140.71 17.0355 141.483 16.7161C142.105 16.4323 142.756 16.2168 143.426 16.0734C144.057 15.9786 144.695 15.9487 145.331 15.9842C146.199 15.9992 147.071 16.014 147.937 16.0326C148.712 16.0005 149.486 16.1101 150.221 16.3558C150.933 16.6455 151.563 17.2733 151.612 18.0311C151.627 18.1175 151.619 18.2062 151.59 18.2888C151.56 18.3713 151.509 18.445 151.442 18.5029C151.342 18.5574 151.228 18.5832 151.114 18.5773C150.394 18.5995 150.088 18.7779 149.368 18.8038C149.823 19.2831 150.337 19.7883 151.001 19.8738C152.17 20.0223 153.012 18.8298 153.551 17.7934C153.571 18.0573 153.694 18.3031 153.894 18.4787C154.096 18.6543 154.358 18.7457 154.626 18.7333C154.916 18.6844 155.191 18.5782 155.437 18.4212C157.758 17.1725 160.357 16.5113 163.001 16.4969C162.975 16.2998 163.024 16.1002 163.139 15.9368C163.254 15.7735 163.426 15.658 163.623 15.6128C164.163 15.5088 164.646 15.9657 164.906 16.4412C165.162 16.9167 165.325 17.4665 165.74 17.8232C166.151 18.1797 166.946 18.1612 167.109 17.6485C167.267 17.1545 166.742 16.7309 166.309 16.4375C165.872 16.1477 165.415 15.6091 165.709 15.1781C167.928 14.6915 170.164 14.2086 172.439 14.1119C172.826 14.1235 173.211 14.0577 173.571 13.9188C173.749 13.8444 173.897 13.7141 173.994 13.5483C174.088 13.3824 174.126 13.1901 174.099 13.0012C173.602 13.1153 173.083 13.0815 172.607 12.9043C172.129 12.7271 171.716 12.4143 171.421 12.0056C173.756 11.8161 176.201 11.649 178.445 12.1654L180.409 13.8073C180.037 14.1899 179.539 14.5503 179.81 14.933C179.9 15.0209 180.009 15.0875 180.128 15.1281C180.248 15.1686 180.375 15.1819 180.501 15.1669C180.976 15.1744 181.451 15.1855 181.923 15.1855C191.68 24.3766 197.686 36.7653 198.808 50.016C198.016 49.9864 197.287 50.9745 197.389 51.8364C197.51 52.8357 198.242 53.6381 198.766 54.4998C198.852 54.6399 198.931 54.7851 199 54.9345L198.929 57.3863Z" fill="#3F3D56"/>
<path d="M125.611 108.359C130.874 108.359 135.141 104.157 135.141 98.9743C135.141 93.7914 130.874 89.5898 125.611 89.5898C120.348 89.5898 116.082 93.7914 116.082 98.9743C116.082 104.157 120.348 108.359 125.611 108.359Z" fill="#2F2E41"/>
<path d="M121.062 103.715C121.062 103.715 117.958 110.484 117.071 110.702C116.185 110.92 124.388 114.85 124.388 114.85C124.388 114.85 125.94 106.554 126.605 106.117C127.27 105.68 121.062 103.715 121.062 103.715Z" fill="#FFB9B9"/>
<path d="M102.66 159.172L96.8955 175.111L103.103 177.512L113.746 156.771L102.66 159.172Z" fill="#FFB9B9"/>
<path d="M122.836 159.61C122.836 159.61 134.365 175.549 135.031 175.767C135.695 175.985 140.351 172.055 140.351 172.055C140.351 172.055 134.587 158.3 132.813 157.645C131.04 156.99 122.836 159.61 122.836 159.61Z" fill="#FFB9B9"/>
<path d="M96.0087 172.272L86.9186 195.634C86.9186 195.634 87.5837 196.944 86.9186 197.163C86.2534 197.381 84.7014 200.874 84.7014 201.093C84.7014 201.311 83.1494 201.529 83.1494 202.184C83.1494 202.839 81.8191 208.079 81.8191 208.079C81.8191 208.079 84.258 213.319 85.8099 211.791C87.3619 210.263 88.0271 207.206 88.0271 207.206L90.2442 201.529C90.2442 201.529 90.0225 198.473 91.5745 198.036C93.1264 197.599 94.0133 192.141 94.0133 192.141C94.0133 192.141 96.4521 189.739 96.8956 189.084C97.339 188.429 105.099 176.857 104.434 176.639C103.769 176.421 96.0087 172.272 96.0087 172.272Z" fill="#2F2E41"/>
<path d="M133.7 175.329L140.351 170.962C140.351 170.962 151.881 191.704 151.881 192.141C151.881 192.578 151.437 193.888 151.881 194.324C152.323 194.761 156.093 201.748 158.532 202.403C160.971 203.058 161.414 205.678 159.419 206.114C157.423 206.551 154.762 207.643 154.097 206.114C153.708 205.215 153.264 204.341 152.767 203.494C152.767 203.494 150.55 204.149 150.328 203.713C150.073 203.069 149.85 202.413 149.663 201.748C149.663 201.748 147.889 198.691 147.889 197.599C147.889 196.508 146.781 196.289 146.781 196.289C146.781 196.289 144.342 190.613 142.79 189.739C141.238 188.866 139.907 184.499 139.907 184.499L133.7 175.329Z" fill="#2F2E41"/>
<path d="M125.718 108.737C129.27 108.737 132.148 105.902 132.148 102.405C132.148 98.9085 129.27 96.0737 125.718 96.0737C122.167 96.0737 119.288 98.9085 119.288 102.405C119.288 105.902 122.167 108.737 125.718 108.737Z" fill="#FFB9B9"/>
<path d="M106.651 140.833C106.651 140.833 97.1348 165.727 98.4651 165.727C99.7954 165.727 136.598 166.516 137.706 164.769C138.814 163.023 128.157 145.636 127.714 145.418C127.27 145.2 106.651 140.833 106.651 140.833Z" fill="#2F2E41"/>
<path d="M97.1173 88.8686L90.4659 78.8252C90.4659 78.8252 92.1108 68.2895 89.8936 70.2545C87.6765 72.2195 86.9749 80.1549 86.9749 80.1549L94.6785 91.7069L97.1173 88.8686Z" fill="#FFB9B9"/>
<path d="M157.422 107.209L163.41 106.773C163.41 106.773 170.504 99.3491 170.948 101.751C171.391 104.152 165.183 109.393 165.183 109.393L156.98 110.266L157.422 107.209Z" fill="#FFB9B9"/>
<path d="M113.746 109.393V107.209C113.746 107.209 107.981 103.498 108.203 102.843C108.425 102.188 107.759 101.751 107.759 101.751C107.759 101.751 107.094 100.878 107.094 100.659C107.094 100.441 106.207 100.223 106.207 100.223L100.665 93.891C100.665 93.891 97.5606 87.7776 96.8955 87.9959C96.2303 88.2143 92.683 89.5243 93.1264 90.3976C93.5698 91.271 105.986 110.048 105.986 110.048C105.986 110.048 106.651 114.196 107.759 114.196C108.868 114.196 113.746 109.393 113.746 109.393Z" fill="#3F3D56"/>
<path d="M128.601 112.012C128.601 112.012 133.479 111.794 133.7 112.012C133.921 112.231 137.026 112.012 137.026 112.012C137.026 112.012 145.451 110.047 146.116 109.392C146.781 108.737 157.867 105.899 158.309 107.209C158.753 108.519 159.861 111.139 158.753 111.576C157.645 112.012 127.714 119.435 127.714 119.435L128.601 112.012Z" fill="#3F3D56"/>
<path d="M122.277 92.9808C124.455 92.9808 126.222 91.2422 126.222 89.0976C126.222 86.9529 124.455 85.2144 122.277 85.2144C120.1 85.2144 118.334 86.9529 118.334 89.0976C118.334 91.2422 120.1 92.9808 122.277 92.9808Z" fill="#2F2E41"/>
<path d="M117.02 86.9936C117.02 86.0337 117.381 85.1079 118.033 84.3947C118.686 83.6815 119.583 83.2314 120.553 83.1314C120.416 83.1175 120.279 83.1104 120.142 83.1104C119.096 83.1104 118.093 83.5195 117.354 84.2478C116.613 84.976 116.199 85.9636 116.199 86.9936C116.199 88.0235 116.613 89.0112 117.354 89.7394C118.093 90.4676 119.096 90.8768 120.142 90.8768C120.279 90.8768 120.416 90.8698 120.553 90.8559C119.583 90.7557 118.686 90.3057 118.033 89.5924C117.381 88.8793 117.02 87.9534 117.02 86.9936Z" fill="#2F2E41"/>
<path d="M126.719 100.868C130.35 100.868 133.292 99.1295 133.292 96.9849C133.292 94.8402 130.35 93.1016 126.719 93.1016C123.09 93.1016 120.148 94.8402 120.148 96.9849C120.148 99.1295 123.09 100.868 126.719 100.868Z" fill="#2F2E41"/>
<path d="M119.178 107.1C119.178 107.1 117.183 108.628 116.739 108.846C116.296 109.065 113.635 106.881 113.192 106.881C112.748 106.881 106.984 113.431 106.984 113.431C106.984 113.431 108.055 114.646 106.984 120.855C106.582 123.183 105.785 133.138 105.785 134.448C105.785 135.758 101.441 138.977 105.431 141.815C109.422 144.653 128.489 147.71 128.711 145.963C128.933 144.217 126.494 139.632 127.603 137.448C128.711 135.265 128.711 127.187 128.711 127.187L130.042 118.671L131.15 111.903C131.15 111.903 125.94 110.484 125.496 110.484C125.054 110.484 123.058 113.541 119.178 107.1Z" fill="#3F3D56"/>
</g>
<defs>
<clipPath id="clip0">
<rect x="-6" width="205" height="216" fill="white"/>
</clipPath>
</defs>
</svg>
