<svg width="228" height="170" viewBox="0 0 228 170" fill="none" xmlns="http://www.w3.org/2000/svg">
<g clip-path="url(#clip0)">
<path d="M11.0476 3.94544C12.1436 3.94544 13.0321 3.06222 13.0321 1.97272C13.0321 0.883217 12.1436 0 11.0476 0C9.95164 0 9.06317 0.883217 9.06317 1.97272C9.06317 3.06222 9.95164 3.94544 11.0476 3.94544Z" fill="#E6E6E6"/>
<path d="M21.0929 3.94544C22.1889 3.94544 23.0773 3.06222 23.0773 1.97272C23.0773 0.883217 22.1889 0 21.0929 0C19.9968 0 19.1085 0.883217 19.1085 1.97272C19.1085 3.06222 19.9968 3.94544 21.0929 3.94544Z" fill="#E6E6E6"/>
<path d="M31.1381 3.94544C32.2341 3.94544 33.1225 3.06222 33.1225 1.97272C33.1225 0.883217 32.2341 0 31.1381 0C30.0421 0 29.1537 0.883217 29.1537 1.97272C29.1537 3.06222 30.0421 3.94544 31.1381 3.94544Z" fill="#E6E6E6"/>
<path d="M41.1833 3.94544C42.2794 3.94544 43.1679 3.06222 43.1679 1.97272C43.1679 0.883217 42.2794 0 41.1833 0C40.0875 0 39.1989 0.883217 39.1989 1.97272C39.1989 3.06222 40.0875 3.94544 41.1833 3.94544Z" fill="#E6E6E6"/>
<path d="M51.2285 3.94544C52.3245 3.94544 53.2131 3.06222 53.2131 1.97272C53.2131 0.883217 52.3245 0 51.2285 0C50.1326 0 49.2441 0.883217 49.2441 1.97272C49.2441 3.06222 50.1326 3.94544 51.2285 3.94544Z" fill="#E6E6E6"/>
<path d="M61.2738 3.94544C62.3699 3.94544 63.2583 3.06222 63.2583 1.97272C63.2583 0.883217 62.3699 0 61.2738 0C60.1778 0 59.2894 0.883217 59.2894 1.97272C59.2894 3.06222 60.1778 3.94544 61.2738 3.94544Z" fill="#E6E6E6"/>
<path d="M71.319 3.94544C72.4149 3.94544 73.3034 3.06222 73.3034 1.97272C73.3034 0.883217 72.4149 0 71.319 0C70.223 0 69.3346 0.883217 69.3346 1.97272C69.3346 3.06222 70.223 3.94544 71.319 3.94544Z" fill="#E6E6E6"/>
<path d="M81.3642 3.94544C82.4603 3.94544 83.3488 3.06222 83.3488 1.97272C83.3488 0.883217 82.4603 0 81.3642 0C80.2684 0 79.3798 0.883217 79.3798 1.97272C79.3798 3.06222 80.2684 3.94544 81.3642 3.94544Z" fill="#E6E6E6"/>
<path d="M91.4096 3.94544C92.5055 3.94544 93.394 3.06222 93.394 1.97272C93.394 0.883217 92.5055 0 91.4096 0C90.3136 0 89.4252 0.883217 89.4252 1.97272C89.4252 3.06222 90.3136 3.94544 91.4096 3.94544Z" fill="#E6E6E6"/>
<path d="M101.455 3.94544C102.551 3.94544 103.439 3.06222 103.439 1.97272C103.439 0.883217 102.551 0 101.455 0C100.359 0 99.4703 0.883217 99.4703 1.97272C99.4703 3.06222 100.359 3.94544 101.455 3.94544Z" fill="#E6E6E6"/>
<path d="M11.0476 14.0563C12.1436 14.0563 13.0321 13.1731 13.0321 12.0836C13.0321 10.9941 12.1436 10.1108 11.0476 10.1108C9.95164 10.1108 9.06317 10.9941 9.06317 12.0836C9.06317 13.1731 9.95164 14.0563 11.0476 14.0563Z" fill="#E6E6E6"/>
<path d="M21.0929 14.0563C22.1889 14.0563 23.0773 13.1731 23.0773 12.0836C23.0773 10.9941 22.1889 10.1108 21.0929 10.1108C19.9968 10.1108 19.1085 10.9941 19.1085 12.0836C19.1085 13.1731 19.9968 14.0563 21.0929 14.0563Z" fill="#E6E6E6"/>
<path d="M31.1381 14.0563C32.2341 14.0563 33.1225 13.1731 33.1225 12.0836C33.1225 10.9941 32.2341 10.1108 31.1381 10.1108C30.0421 10.1108 29.1537 10.9941 29.1537 12.0836C29.1537 13.1731 30.0421 14.0563 31.1381 14.0563Z" fill="#E6E6E6"/>
<path d="M41.1833 14.0563C42.2794 14.0563 43.1679 13.1731 43.1679 12.0836C43.1679 10.9941 42.2794 10.1108 41.1833 10.1108C40.0875 10.1108 39.1989 10.9941 39.1989 12.0836C39.1989 13.1731 40.0875 14.0563 41.1833 14.0563Z" fill="#E0354B"/>
<path d="M51.2285 14.0563C52.3245 14.0563 53.2131 13.1731 53.2131 12.0836C53.2131 10.9941 52.3245 10.1108 51.2285 10.1108C50.1326 10.1108 49.2441 10.9941 49.2441 12.0836C49.2441 13.1731 50.1326 14.0563 51.2285 14.0563Z" fill="#E6E6E6"/>
<path d="M61.2738 14.0563C62.3699 14.0563 63.2583 13.1731 63.2583 12.0836C63.2583 10.9941 62.3699 10.1108 61.2738 10.1108C60.1778 10.1108 59.2894 10.9941 59.2894 12.0836C59.2894 13.1731 60.1778 14.0563 61.2738 14.0563Z" fill="#E6E6E6"/>
<path d="M71.319 14.0563C72.4149 14.0563 73.3034 13.1731 73.3034 12.0836C73.3034 10.9941 72.4149 10.1108 71.319 10.1108C70.223 10.1108 69.3346 10.9941 69.3346 12.0836C69.3346 13.1731 70.223 14.0563 71.319 14.0563Z" fill="#E6E6E6"/>
<path d="M81.3642 14.0563C82.4603 14.0563 83.3488 13.1731 83.3488 12.0836C83.3488 10.9941 82.4603 10.1108 81.3642 10.1108C80.2684 10.1108 79.3798 10.9941 79.3798 12.0836C79.3798 13.1731 80.2684 14.0563 81.3642 14.0563Z" fill="#E6E6E6"/>
<path d="M91.4096 14.0563C92.5055 14.0563 93.394 13.1731 93.394 12.0836C93.394 10.9941 92.5055 10.1108 91.4096 10.1108C90.3136 10.1108 89.4252 10.9941 89.4252 12.0836C89.4252 13.1731 90.3136 14.0563 91.4096 14.0563Z" fill="#E6E6E6"/>
<path d="M101.455 14.0563C102.551 14.0563 103.439 13.1731 103.439 12.0836C103.439 10.9941 102.551 10.1108 101.455 10.1108C100.359 10.1108 99.4703 10.9941 99.4703 12.0836C99.4703 13.1731 100.359 14.0563 101.455 14.0563Z" fill="#E6E6E6"/>
<path d="M11.0476 24.1681C12.1436 24.1681 13.0321 23.2848 13.0321 22.1953C13.0321 21.1058 12.1436 20.2227 11.0476 20.2227C9.95164 20.2227 9.06317 21.1058 9.06317 22.1953C9.06317 23.2848 9.95164 24.1681 11.0476 24.1681Z" fill="#E6E6E6"/>
<path d="M21.0929 24.1681C22.1889 24.1681 23.0773 23.2848 23.0773 22.1953C23.0773 21.1058 22.1889 20.2227 21.0929 20.2227C19.9968 20.2227 19.1085 21.1058 19.1085 22.1953C19.1085 23.2848 19.9968 24.1681 21.0929 24.1681Z" fill="#E6E6E6"/>
<path d="M31.1381 24.1681C32.2341 24.1681 33.1225 23.2848 33.1225 22.1953C33.1225 21.1058 32.2341 20.2227 31.1381 20.2227C30.0421 20.2227 29.1537 21.1058 29.1537 22.1953C29.1537 23.2848 30.0421 24.1681 31.1381 24.1681Z" fill="#E6E6E6"/>
<path d="M41.1833 24.1681C42.2794 24.1681 43.1679 23.2848 43.1679 22.1953C43.1679 21.1058 42.2794 20.2227 41.1833 20.2227C40.0875 20.2227 39.1989 21.1058 39.1989 22.1953C39.1989 23.2848 40.0875 24.1681 41.1833 24.1681Z" fill="#E6E6E6"/>
<path d="M51.2285 24.1681C52.3245 24.1681 53.2131 23.2848 53.2131 22.1953C53.2131 21.1058 52.3245 20.2227 51.2285 20.2227C50.1326 20.2227 49.2441 21.1058 49.2441 22.1953C49.2441 23.2848 50.1326 24.1681 51.2285 24.1681Z" fill="#E6E6E6"/>
<path d="M61.2738 24.1681C62.3699 24.1681 63.2583 23.2848 63.2583 22.1953C63.2583 21.1058 62.3699 20.2227 61.2738 20.2227C60.1778 20.2227 59.2894 21.1058 59.2894 22.1953C59.2894 23.2848 60.1778 24.1681 61.2738 24.1681Z" fill="#E6E6E6"/>
<path d="M71.319 24.1681C72.4149 24.1681 73.3034 23.2848 73.3034 22.1953C73.3034 21.1058 72.4149 20.2227 71.319 20.2227C70.223 20.2227 69.3346 21.1058 69.3346 22.1953C69.3346 23.2848 70.223 24.1681 71.319 24.1681Z" fill="#E6E6E6"/>
<path d="M81.3642 24.1681C82.4603 24.1681 83.3488 23.2848 83.3488 22.1953C83.3488 21.1058 82.4603 20.2227 81.3642 20.2227C80.2684 20.2227 79.3798 21.1058 79.3798 22.1953C79.3798 23.2848 80.2684 24.1681 81.3642 24.1681Z" fill="#E6E6E6"/>
<path d="M91.4096 24.1681C92.5055 24.1681 93.394 23.2848 93.394 22.1953C93.394 21.1058 92.5055 20.2227 91.4096 20.2227C90.3136 20.2227 89.4252 21.1058 89.4252 22.1953C89.4252 23.2848 90.3136 24.1681 91.4096 24.1681Z" fill="#E6E6E6"/>
<path d="M101.455 24.1681C102.551 24.1681 103.439 23.2848 103.439 22.1953C103.439 21.1058 102.551 20.2227 101.455 20.2227C100.359 20.2227 99.4703 21.1058 99.4703 22.1953C99.4703 23.2848 100.359 24.1681 101.455 24.1681Z" fill="#E6E6E6"/>
<path d="M11.0476 34.279C12.1436 34.279 13.0321 33.3958 13.0321 32.3063C13.0321 31.2167 12.1436 30.3335 11.0476 30.3335C9.95164 30.3335 9.06317 31.2167 9.06317 32.3063C9.06317 33.3958 9.95164 34.279 11.0476 34.279Z" fill="#E6E6E6"/>
<path d="M21.0929 34.279C22.1889 34.279 23.0773 33.3958 23.0773 32.3063C23.0773 31.2167 22.1889 30.3335 21.0929 30.3335C19.9968 30.3335 19.1085 31.2167 19.1085 32.3063C19.1085 33.3958 19.9968 34.279 21.0929 34.279Z" fill="#E6E6E6"/>
<path d="M31.1381 34.279C32.2341 34.279 33.1225 33.3958 33.1225 32.3063C33.1225 31.2167 32.2341 30.3335 31.1381 30.3335C30.0421 30.3335 29.1537 31.2167 29.1537 32.3063C29.1537 33.3958 30.0421 34.279 31.1381 34.279Z" fill="#E6E6E6"/>
<path d="M41.1833 34.279C42.2794 34.279 43.1679 33.3958 43.1679 32.3063C43.1679 31.2167 42.2794 30.3335 41.1833 30.3335C40.0875 30.3335 39.1989 31.2167 39.1989 32.3063C39.1989 33.3958 40.0875 34.279 41.1833 34.279Z" fill="#E6E6E6"/>
<path d="M51.2285 34.279C52.3245 34.279 53.2131 33.3958 53.2131 32.3063C53.2131 31.2167 52.3245 30.3335 51.2285 30.3335C50.1326 30.3335 49.2441 31.2167 49.2441 32.3063C49.2441 33.3958 50.1326 34.279 51.2285 34.279Z" fill="#E6E6E6"/>
<path d="M61.2738 34.279C62.3699 34.279 63.2583 33.3958 63.2583 32.3063C63.2583 31.2167 62.3699 30.3335 61.2738 30.3335C60.1778 30.3335 59.2894 31.2167 59.2894 32.3063C59.2894 33.3958 60.1778 34.279 61.2738 34.279Z" fill="#E6E6E6"/>
<path d="M71.319 34.279C72.4149 34.279 73.3034 33.3958 73.3034 32.3063C73.3034 31.2167 72.4149 30.3335 71.319 30.3335C70.223 30.3335 69.3346 31.2167 69.3346 32.3063C69.3346 33.3958 70.223 34.279 71.319 34.279Z" fill="#E6E6E6"/>
<path d="M81.3642 34.279C82.4603 34.279 83.3488 33.3958 83.3488 32.3063C83.3488 31.2167 82.4603 30.3335 81.3642 30.3335C80.2684 30.3335 79.3798 31.2167 79.3798 32.3063C79.3798 33.3958 80.2684 34.279 81.3642 34.279Z" fill="#E6E6E6"/>
<path d="M91.4096 34.279C92.5055 34.279 93.394 33.3958 93.394 32.3063C93.394 31.2167 92.5055 30.3335 91.4096 30.3335C90.3136 30.3335 89.4252 31.2167 89.4252 32.3063C89.4252 33.3958 90.3136 34.279 91.4096 34.279Z" fill="#E6E6E6"/>
<path d="M101.455 34.279C102.551 34.279 103.439 33.3958 103.439 32.3063C103.439 31.2167 102.551 30.3335 101.455 30.3335C100.359 30.3335 99.4703 31.2167 99.4703 32.3063C99.4703 33.3958 100.359 34.279 101.455 34.279Z" fill="#E6E6E6"/>
<path d="M11.0476 44.3903C12.1436 44.3903 13.0321 43.507 13.0321 42.4175C13.0321 41.328 12.1436 40.4448 11.0476 40.4448C9.95164 40.4448 9.06317 41.328 9.06317 42.4175C9.06317 43.507 9.95164 44.3903 11.0476 44.3903Z" fill="#E6E6E6"/>
<path d="M21.0929 44.3903C22.1889 44.3903 23.0773 43.507 23.0773 42.4175C23.0773 41.328 22.1889 40.4448 21.0929 40.4448C19.9968 40.4448 19.1085 41.328 19.1085 42.4175C19.1085 43.507 19.9968 44.3903 21.0929 44.3903Z" fill="#E0354B"/>
<path d="M31.1381 44.3903C32.2341 44.3903 33.1225 43.507 33.1225 42.4175C33.1225 41.328 32.2341 40.4448 31.1381 40.4448C30.0421 40.4448 29.1537 41.328 29.1537 42.4175C29.1537 43.507 30.0421 44.3903 31.1381 44.3903Z" fill="#E6E6E6"/>
<path d="M41.1833 44.3903C42.2794 44.3903 43.1679 43.507 43.1679 42.4175C43.1679 41.328 42.2794 40.4448 41.1833 40.4448C40.0875 40.4448 39.1989 41.328 39.1989 42.4175C39.1989 43.507 40.0875 44.3903 41.1833 44.3903Z" fill="#E6E6E6"/>
<path d="M51.2285 44.3903C52.3245 44.3903 53.2131 43.507 53.2131 42.4175C53.2131 41.328 52.3245 40.4448 51.2285 40.4448C50.1326 40.4448 49.2441 41.328 49.2441 42.4175C49.2441 43.507 50.1326 44.3903 51.2285 44.3903Z" fill="#E6E6E6"/>
<path d="M61.2738 44.3903C62.3699 44.3903 63.2583 43.507 63.2583 42.4175C63.2583 41.328 62.3699 40.4448 61.2738 40.4448C60.1778 40.4448 59.2894 41.328 59.2894 42.4175C59.2894 43.507 60.1778 44.3903 61.2738 44.3903Z" fill="#E6E6E6"/>
<path d="M71.319 44.3903C72.4149 44.3903 73.3034 43.507 73.3034 42.4175C73.3034 41.328 72.4149 40.4448 71.319 40.4448C70.223 40.4448 69.3346 41.328 69.3346 42.4175C69.3346 43.507 70.223 44.3903 71.319 44.3903Z" fill="#E6E6E6"/>
<path d="M81.3642 44.3903C82.4603 44.3903 83.3488 43.507 83.3488 42.4175C83.3488 41.328 82.4603 40.4448 81.3642 40.4448C80.2684 40.4448 79.3798 41.328 79.3798 42.4175C79.3798 43.507 80.2684 44.3903 81.3642 44.3903Z" fill="#E6E6E6"/>
<path d="M91.4096 44.3903C92.5055 44.3903 93.394 43.507 93.394 42.4175C93.394 41.328 92.5055 40.4448 91.4096 40.4448C90.3136 40.4448 89.4252 41.328 89.4252 42.4175C89.4252 43.507 90.3136 44.3903 91.4096 44.3903Z" fill="#E6E6E6"/>
<path d="M101.455 44.3903C102.551 44.3903 103.439 43.507 103.439 42.4175C103.439 41.328 102.551 40.4448 101.455 40.4448C100.359 40.4448 99.4703 41.328 99.4703 42.4175C99.4703 43.507 100.359 44.3903 101.455 44.3903Z" fill="#E6E6E6"/>
<path d="M11.0476 54.5021C12.1436 54.5021 13.0321 53.6189 13.0321 52.5295C13.0321 51.4398 12.1436 50.5566 11.0476 50.5566C9.95164 50.5566 9.06317 51.4398 9.06317 52.5295C9.06317 53.6189 9.95164 54.5021 11.0476 54.5021Z" fill="#E6E6E6"/>
<path d="M21.0929 54.5021C22.1889 54.5021 23.0773 53.6189 23.0773 52.5295C23.0773 51.4398 22.1889 50.5566 21.0929 50.5566C19.9968 50.5566 19.1085 51.4398 19.1085 52.5295C19.1085 53.6189 19.9968 54.5021 21.0929 54.5021Z" fill="#E6E6E6"/>
<path d="M31.1381 54.5021C32.2341 54.5021 33.1225 53.6189 33.1225 52.5295C33.1225 51.4398 32.2341 50.5566 31.1381 50.5566C30.0421 50.5566 29.1537 51.4398 29.1537 52.5295C29.1537 53.6189 30.0421 54.5021 31.1381 54.5021Z" fill="#E6E6E6"/>
<path d="M41.1833 54.5021C42.2794 54.5021 43.1679 53.6189 43.1679 52.5295C43.1679 51.4398 42.2794 50.5566 41.1833 50.5566C40.0875 50.5566 39.1989 51.4398 39.1989 52.5295C39.1989 53.6189 40.0875 54.5021 41.1833 54.5021Z" fill="#E6E6E6"/>
<path d="M51.2285 54.5021C52.3245 54.5021 53.2131 53.6189 53.2131 52.5295C53.2131 51.4398 52.3245 50.5566 51.2285 50.5566C50.1326 50.5566 49.2441 51.4398 49.2441 52.5295C49.2441 53.6189 50.1326 54.5021 51.2285 54.5021Z" fill="#E6E6E6"/>
<path d="M61.2738 54.5021C62.3699 54.5021 63.2583 53.6189 63.2583 52.5295C63.2583 51.4398 62.3699 50.5566 61.2738 50.5566C60.1778 50.5566 59.2894 51.4398 59.2894 52.5295C59.2894 53.6189 60.1778 54.5021 61.2738 54.5021Z" fill="#E6E6E6"/>
<path d="M71.319 54.5021C72.4149 54.5021 73.3034 53.6189 73.3034 52.5295C73.3034 51.4398 72.4149 50.5566 71.319 50.5566C70.223 50.5566 69.3346 51.4398 69.3346 52.5295C69.3346 53.6189 70.223 54.5021 71.319 54.5021Z" fill="#E6E6E6"/>
<path d="M81.3642 54.5021C82.4603 54.5021 83.3488 53.6189 83.3488 52.5295C83.3488 51.4398 82.4603 50.5566 81.3642 50.5566C80.2684 50.5566 79.3798 51.4398 79.3798 52.5295C79.3798 53.6189 80.2684 54.5021 81.3642 54.5021Z" fill="#E6E6E6"/>
<path d="M91.4096 54.5021C92.5055 54.5021 93.394 53.6189 93.394 52.5295C93.394 51.4398 92.5055 50.5566 91.4096 50.5566C90.3136 50.5566 89.4252 51.4398 89.4252 52.5295C89.4252 53.6189 90.3136 54.5021 91.4096 54.5021Z" fill="#E6E6E6"/>
<path d="M101.455 54.5021C102.551 54.5021 103.439 53.6189 103.439 52.5295C103.439 51.4398 102.551 50.5566 101.455 50.5566C100.359 50.5566 99.4703 51.4398 99.4703 52.5295C99.4703 53.6189 100.359 54.5021 101.455 54.5021Z" fill="#E6E6E6"/>
<path d="M11.0476 64.6128C12.1436 64.6128 13.0321 63.7296 13.0321 62.6401C13.0321 61.5507 12.1436 60.6675 11.0476 60.6675C9.95164 60.6675 9.06317 61.5507 9.06317 62.6401C9.06317 63.7296 9.95164 64.6128 11.0476 64.6128Z" fill="#E6E6E6"/>
<path d="M21.0929 64.6128C22.1889 64.6128 23.0773 63.7296 23.0773 62.6401C23.0773 61.5507 22.1889 60.6675 21.0929 60.6675C19.9968 60.6675 19.1085 61.5507 19.1085 62.6401C19.1085 63.7296 19.9968 64.6128 21.0929 64.6128Z" fill="#E6E6E6"/>
<path d="M31.1381 64.6128C32.2341 64.6128 33.1225 63.7296 33.1225 62.6401C33.1225 61.5507 32.2341 60.6675 31.1381 60.6675C30.0421 60.6675 29.1537 61.5507 29.1537 62.6401C29.1537 63.7296 30.0421 64.6128 31.1381 64.6128Z" fill="#E0354B"/>
<path d="M41.1833 64.6128C42.2794 64.6128 43.1679 63.7296 43.1679 62.6401C43.1679 61.5507 42.2794 60.6675 41.1833 60.6675C40.0875 60.6675 39.1989 61.5507 39.1989 62.6401C39.1989 63.7296 40.0875 64.6128 41.1833 64.6128Z" fill="#E6E6E6"/>
<path d="M51.2285 64.6128C52.3245 64.6128 53.2131 63.7296 53.2131 62.6401C53.2131 61.5507 52.3245 60.6675 51.2285 60.6675C50.1326 60.6675 49.2441 61.5507 49.2441 62.6401C49.2441 63.7296 50.1326 64.6128 51.2285 64.6128Z" fill="#E6E6E6"/>
<path d="M61.2738 64.6128C62.3699 64.6128 63.2583 63.7296 63.2583 62.6401C63.2583 61.5507 62.3699 60.6675 61.2738 60.6675C60.1778 60.6675 59.2894 61.5507 59.2894 62.6401C59.2894 63.7296 60.1778 64.6128 61.2738 64.6128Z" fill="#E6E6E6"/>
<path d="M71.319 64.6128C72.4149 64.6128 73.3034 63.7296 73.3034 62.6401C73.3034 61.5507 72.4149 60.6675 71.319 60.6675C70.223 60.6675 69.3346 61.5507 69.3346 62.6401C69.3346 63.7296 70.223 64.6128 71.319 64.6128Z" fill="#E6E6E6"/>
<path d="M81.3642 64.6128C82.4603 64.6128 83.3488 63.7296 83.3488 62.6401C83.3488 61.5507 82.4603 60.6675 81.3642 60.6675C80.2684 60.6675 79.3798 61.5507 79.3798 62.6401C79.3798 63.7296 80.2684 64.6128 81.3642 64.6128Z" fill="#E6E6E6"/>
<path d="M91.4096 64.6128C92.5055 64.6128 93.394 63.7296 93.394 62.6401C93.394 61.5507 92.5055 60.6675 91.4096 60.6675C90.3136 60.6675 89.4252 61.5507 89.4252 62.6401C89.4252 63.7296 90.3136 64.6128 91.4096 64.6128Z" fill="#E6E6E6"/>
<path d="M101.455 64.6128C102.551 64.6128 103.439 63.7296 103.439 62.6401C103.439 61.5507 102.551 60.6675 101.455 60.6675C100.359 60.6675 99.4703 61.5507 99.4703 62.6401C99.4703 63.7296 100.359 64.6128 101.455 64.6128Z" fill="#E6E6E6"/>
<path d="M11.0476 74.7238C12.1436 74.7238 13.0321 73.8406 13.0321 72.751C13.0321 71.6615 12.1436 70.7783 11.0476 70.7783C9.95164 70.7783 9.06317 71.6615 9.06317 72.751C9.06317 73.8406 9.95164 74.7238 11.0476 74.7238Z" fill="#E6E6E6"/>
<path d="M21.0929 74.7238C22.1889 74.7238 23.0773 73.8406 23.0773 72.751C23.0773 71.6615 22.1889 70.7783 21.0929 70.7783C19.9968 70.7783 19.1085 71.6615 19.1085 72.751C19.1085 73.8406 19.9968 74.7238 21.0929 74.7238Z" fill="#E6E6E6"/>
<path d="M31.1381 74.7238C32.2341 74.7238 33.1225 73.8406 33.1225 72.751C33.1225 71.6615 32.2341 70.7783 31.1381 70.7783C30.0421 70.7783 29.1537 71.6615 29.1537 72.751C29.1537 73.8406 30.0421 74.7238 31.1381 74.7238Z" fill="#E6E6E6"/>
<path d="M41.1833 74.7238C42.2794 74.7238 43.1679 73.8406 43.1679 72.751C43.1679 71.6615 42.2794 70.7783 41.1833 70.7783C40.0875 70.7783 39.1989 71.6615 39.1989 72.751C39.1989 73.8406 40.0875 74.7238 41.1833 74.7238Z" fill="#E6E6E6"/>
<path d="M51.2285 74.7238C52.3245 74.7238 53.2131 73.8406 53.2131 72.751C53.2131 71.6615 52.3245 70.7783 51.2285 70.7783C50.1326 70.7783 49.2441 71.6615 49.2441 72.751C49.2441 73.8406 50.1326 74.7238 51.2285 74.7238Z" fill="#E6E6E6"/>
<path d="M61.2738 74.7238C62.3699 74.7238 63.2583 73.8406 63.2583 72.751C63.2583 71.6615 62.3699 70.7783 61.2738 70.7783C60.1778 70.7783 59.2894 71.6615 59.2894 72.751C59.2894 73.8406 60.1778 74.7238 61.2738 74.7238Z" fill="#E6E6E6"/>
<path d="M71.319 74.7238C72.4149 74.7238 73.3034 73.8406 73.3034 72.751C73.3034 71.6615 72.4149 70.7783 71.319 70.7783C70.223 70.7783 69.3346 71.6615 69.3346 72.751C69.3346 73.8406 70.223 74.7238 71.319 74.7238Z" fill="#E6E6E6"/>
<path d="M81.3642 74.7238C82.4603 74.7238 83.3488 73.8406 83.3488 72.751C83.3488 71.6615 82.4603 70.7783 81.3642 70.7783C80.2684 70.7783 79.3798 71.6615 79.3798 72.751C79.3798 73.8406 80.2684 74.7238 81.3642 74.7238Z" fill="#E6E6E6"/>
<path d="M91.4096 74.7238C92.5055 74.7238 93.394 73.8406 93.394 72.751C93.394 71.6615 92.5055 70.7783 91.4096 70.7783C90.3136 70.7783 89.4252 71.6615 89.4252 72.751C89.4252 73.8406 90.3136 74.7238 91.4096 74.7238Z" fill="#E6E6E6"/>
<path d="M101.455 74.7238C102.551 74.7238 103.439 73.8406 103.439 72.751C103.439 71.6615 102.551 70.7783 101.455 70.7783C100.359 70.7783 99.4703 71.6615 99.4703 72.751C99.4703 73.8406 100.359 74.7238 101.455 74.7238Z" fill="#E6E6E6"/>
<path d="M11.0476 84.835C12.1436 84.835 13.0321 83.9518 13.0321 82.8623C13.0321 81.7728 12.1436 80.8896 11.0476 80.8896C9.95164 80.8896 9.06317 81.7728 9.06317 82.8623C9.06317 83.9518 9.95164 84.835 11.0476 84.835Z" fill="#E6E6E6"/>
<path d="M21.0929 84.835C22.1889 84.835 23.0773 83.9518 23.0773 82.8623C23.0773 81.7728 22.1889 80.8896 21.0929 80.8896C19.9968 80.8896 19.1085 81.7728 19.1085 82.8623C19.1085 83.9518 19.9968 84.835 21.0929 84.835Z" fill="#E6E6E6"/>
<path d="M31.1381 84.835C32.2341 84.835 33.1225 83.9518 33.1225 82.8623C33.1225 81.7728 32.2341 80.8896 31.1381 80.8896C30.0421 80.8896 29.1537 81.7728 29.1537 82.8623C29.1537 83.9518 30.0421 84.835 31.1381 84.835Z" fill="#E6E6E6"/>
<path d="M41.1833 84.835C42.2794 84.835 43.1679 83.9518 43.1679 82.8623C43.1679 81.7728 42.2794 80.8896 41.1833 80.8896C40.0875 80.8896 39.1989 81.7728 39.1989 82.8623C39.1989 83.9518 40.0875 84.835 41.1833 84.835Z" fill="#E6E6E6"/>
<path d="M51.2285 84.835C52.3245 84.835 53.2131 83.9518 53.2131 82.8623C53.2131 81.7728 52.3245 80.8896 51.2285 80.8896C50.1326 80.8896 49.2441 81.7728 49.2441 82.8623C49.2441 83.9518 50.1326 84.835 51.2285 84.835Z" fill="#E6E6E6"/>
<path d="M61.2738 84.835C62.3699 84.835 63.2583 83.9518 63.2583 82.8623C63.2583 81.7728 62.3699 80.8896 61.2738 80.8896C60.1778 80.8896 59.2894 81.7728 59.2894 82.8623C59.2894 83.9518 60.1778 84.835 61.2738 84.835Z" fill="#E6E6E6"/>
<path d="M71.319 84.835C72.4149 84.835 73.3034 83.9518 73.3034 82.8623C73.3034 81.7728 72.4149 80.8896 71.319 80.8896C70.223 80.8896 69.3346 81.7728 69.3346 82.8623C69.3346 83.9518 70.223 84.835 71.319 84.835Z" fill="#E6E6E6"/>
<path d="M81.3642 84.835C82.4603 84.835 83.3488 83.9518 83.3488 82.8623C83.3488 81.7728 82.4603 80.8896 81.3642 80.8896C80.2684 80.8896 79.3798 81.7728 79.3798 82.8623C79.3798 83.9518 80.2684 84.835 81.3642 84.835Z" fill="#E6E6E6"/>
<path d="M91.4096 84.835C92.5055 84.835 93.394 83.9518 93.394 82.8623C93.394 81.7728 92.5055 80.8896 91.4096 80.8896C90.3136 80.8896 89.4252 81.7728 89.4252 82.8623C89.4252 83.9518 90.3136 84.835 91.4096 84.835Z" fill="#E6E6E6"/>
<path d="M101.455 84.835C102.551 84.835 103.439 83.9518 103.439 82.8623C103.439 81.7728 102.551 80.8896 101.455 80.8896C100.359 80.8896 99.4703 81.7728 99.4703 82.8623C99.4703 83.9518 100.359 84.835 101.455 84.835Z" fill="#E6E6E6"/>
<path d="M11.0476 94.9469C12.1436 94.9469 13.0321 94.0638 13.0321 92.9741C13.0321 91.8847 12.1436 91.0015 11.0476 91.0015C9.95164 91.0015 9.06317 91.8847 9.06317 92.9741C9.06317 94.0638 9.95164 94.9469 11.0476 94.9469Z" fill="#E6E6E6"/>
<path d="M21.0929 94.9469C22.1889 94.9469 23.0773 94.0638 23.0773 92.9741C23.0773 91.8847 22.1889 91.0015 21.0929 91.0015C19.9968 91.0015 19.1085 91.8847 19.1085 92.9741C19.1085 94.0638 19.9968 94.9469 21.0929 94.9469Z" fill="#E6E6E6"/>
<path d="M31.1381 94.9469C32.2341 94.9469 33.1225 94.0638 33.1225 92.9741C33.1225 91.8847 32.2341 91.0015 31.1381 91.0015C30.0421 91.0015 29.1537 91.8847 29.1537 92.9741C29.1537 94.0638 30.0421 94.9469 31.1381 94.9469Z" fill="#E6E6E6"/>
<path d="M41.1833 94.9469C42.2794 94.9469 43.1679 94.0638 43.1679 92.9741C43.1679 91.8847 42.2794 91.0015 41.1833 91.0015C40.0875 91.0015 39.1989 91.8847 39.1989 92.9741C39.1989 94.0638 40.0875 94.9469 41.1833 94.9469Z" fill="#E6E6E6"/>
<path d="M51.2285 94.9469C52.3245 94.9469 53.2131 94.0638 53.2131 92.9741C53.2131 91.8847 52.3245 91.0015 51.2285 91.0015C50.1326 91.0015 49.2441 91.8847 49.2441 92.9741C49.2441 94.0638 50.1326 94.9469 51.2285 94.9469Z" fill="#E6E6E6"/>
<path d="M61.2738 94.9469C62.3699 94.9469 63.2583 94.0638 63.2583 92.9741C63.2583 91.8847 62.3699 91.0015 61.2738 91.0015C60.1778 91.0015 59.2894 91.8847 59.2894 92.9741C59.2894 94.0638 60.1778 94.9469 61.2738 94.9469Z" fill="#E6E6E6"/>
<path d="M71.319 94.9469C72.4149 94.9469 73.3034 94.0638 73.3034 92.9741C73.3034 91.8847 72.4149 91.0015 71.319 91.0015C70.223 91.0015 69.3346 91.8847 69.3346 92.9741C69.3346 94.0638 70.223 94.9469 71.319 94.9469Z" fill="#E6E6E6"/>
<path d="M81.3642 94.9469C82.4603 94.9469 83.3488 94.0638 83.3488 92.9741C83.3488 91.8847 82.4603 91.0015 81.3642 91.0015C80.2684 91.0015 79.3798 91.8847 79.3798 92.9741C79.3798 94.0638 80.2684 94.9469 81.3642 94.9469Z" fill="#E6E6E6"/>
<path d="M91.4096 94.9469C92.5055 94.9469 93.394 94.0638 93.394 92.9741C93.394 91.8847 92.5055 91.0015 91.4096 91.0015C90.3136 91.0015 89.4252 91.8847 89.4252 92.9741C89.4252 94.0638 90.3136 94.9469 91.4096 94.9469Z" fill="#E6E6E6"/>
<path d="M101.455 94.9469C102.551 94.9469 103.439 94.0638 103.439 92.9741C103.439 91.8847 102.551 91.0015 101.455 91.0015C100.359 91.0015 99.4703 91.8847 99.4703 92.9741C99.4703 94.0638 100.359 94.9469 101.455 94.9469Z" fill="#E6E6E6"/>
<path d="M82.4881 78.284L106.04 37.2578H58.9108L35.3336 77.8533L58.9108 118.449H106.065L129.599 77.9293L82.4881 78.284Z" fill="#3F3D56"/>
<path d="M135.448 74.4835L135.492 74.4075L111.915 33.812H111.889L88.3373 74.8382L135.448 74.4835Z" fill="#E0354B"/>
<path d="M113.104 60.1138L112.799 60.0332L119.455 35.1401H158.066V35.4538H119.698L113.104 60.1138Z" fill="#2F2E41"/>
<path d="M161.221 38.5896C160.566 38.5896 159.926 38.3964 159.381 38.0346C158.836 37.6727 158.411 37.1585 158.161 36.5568C157.91 35.9549 157.844 35.2929 157.972 34.6541C158.1 34.0153 158.416 33.4285 158.879 32.968C159.342 32.5073 159.932 32.1938 160.575 32.0667C161.218 31.9396 161.884 32.0049 162.489 32.2541C163.095 32.5033 163.611 32.9255 163.976 33.467C164.339 34.0086 164.535 34.6453 164.535 35.2965C164.533 36.1695 164.184 37.0066 163.562 37.624C162.942 38.2413 162.1 38.5886 161.221 38.5896ZM161.221 32.3171C160.628 32.3171 160.049 32.4918 159.556 32.8192C159.063 33.1465 158.679 33.6119 158.452 34.1563C158.225 34.7007 158.166 35.2998 158.282 35.8778C158.397 36.4558 158.683 36.9867 159.102 37.4033C159.521 37.82 160.055 38.1038 160.637 38.2187C161.218 38.3336 161.821 38.2746 162.368 38.0492C162.916 37.8236 163.385 37.4418 163.714 36.9519C164.043 36.4618 164.219 35.8858 164.219 35.2965C164.217 34.5066 163.901 33.7493 163.339 33.1908C162.778 32.6321 162.016 32.3179 161.221 32.3171Z" fill="#2F2E41"/>
<path d="M161.221 36.551C161.918 36.551 162.483 35.9893 162.483 35.2964C162.483 34.6036 161.918 34.042 161.221 34.042C160.524 34.042 159.959 34.6036 159.959 35.2964C159.959 35.9893 160.524 36.551 161.221 36.551Z" fill="#E0354B"/>
<path d="M64.357 84.5522L64.6621 84.6328L58.0054 109.526H19.3945V109.212H57.7628L64.357 84.5522Z" fill="#2F2E41"/>
<path d="M16.2395 106.076C16.8948 106.076 17.5352 106.269 18.0799 106.631C18.6247 106.993 19.0492 107.507 19.3 108.109C19.5508 108.711 19.6163 109.373 19.4885 110.012C19.3608 110.65 19.0452 111.237 18.582 111.698C18.1187 112.158 17.5285 112.472 16.8858 112.599C16.2432 112.726 15.5771 112.661 14.9718 112.412C14.3665 112.162 13.8492 111.74 13.4852 111.199C13.1212 110.657 12.9269 110.02 12.9269 109.369C12.9279 108.496 13.2772 107.659 13.8982 107.042C14.5193 106.424 15.3613 106.077 16.2395 106.076ZM16.2395 112.349C16.8323 112.349 17.4119 112.174 17.9047 111.847C18.3975 111.519 18.7817 111.054 19.0085 110.509C19.2354 109.965 19.2948 109.366 19.179 108.788C19.0634 108.21 18.7781 107.679 18.3589 107.262C17.9397 106.846 17.4057 106.562 16.8243 106.447C16.2429 106.332 15.6402 106.391 15.0926 106.617C14.5449 106.842 14.0768 107.224 13.7475 107.714C13.4182 108.204 13.2424 108.78 13.2424 109.369C13.2433 110.159 13.5593 110.916 14.1212 111.475C14.6831 112.034 15.4449 112.348 16.2395 112.349Z" fill="#2F2E41"/>
<path d="M16.2396 110.623C16.9365 110.623 17.5016 110.062 17.5016 109.369C17.5016 108.676 16.9365 108.114 16.2396 108.114C15.5426 108.114 14.9776 108.676 14.9776 109.369C14.9776 110.062 15.5426 110.623 16.2396 110.623Z" fill="#E0354B"/>
<path d="M189.953 159.018H185.162V165.494H189.953V159.018Z" fill="#FFB8B8"/>
<path d="M214.286 159.018H209.496V165.494H214.286V159.018Z" fill="#FFB8B8"/>
<path d="M217.61 105.305C217.198 105.305 216.792 105.217 216.419 105.046C216.046 104.875 215.716 104.626 215.449 104.316C215.181 104.006 214.986 103.642 214.874 103.25C214.763 102.857 214.737 102.445 214.8 102.042L215.585 97.07L215.818 95.5913H219.46L219.65 97.6864L220.409 101.992C220.481 102.399 220.461 102.815 220.354 103.214C220.246 103.612 220.053 103.982 219.785 104.297C219.518 104.613 219.185 104.867 218.81 105.041C218.434 105.215 218.023 105.305 217.61 105.305Z" fill="#FFB8B8"/>
<path d="M181.972 104.735C181.561 104.735 181.156 104.646 180.783 104.476C180.41 104.305 180.078 104.056 179.811 103.746C179.545 103.436 179.348 103.072 179.236 102.679C179.125 102.287 179.099 101.875 179.162 101.471L179.947 96.4995L180.18 95.021H183.822L184.012 97.1161L184.771 101.422C184.843 101.828 184.823 102.245 184.716 102.643C184.608 103.041 184.415 103.411 184.147 103.727C183.88 104.043 183.548 104.296 183.172 104.471C182.796 104.645 182.385 104.735 181.972 104.735Z" fill="#FFB8B8"/>
<path d="M214.861 160.352L209.113 160.161L199.725 103.783L190.336 160.352L184.779 160.161L183.247 95.021H215.436L214.861 160.352Z" fill="#2F2E41"/>
<path d="M189.833 169.99C184.955 170.131 181.138 168.82 178.635 165.709C178.373 165.38 178.216 164.982 178.189 164.563C178.161 164.145 178.262 163.728 178.478 163.368C178.684 163.029 178.982 162.756 179.338 162.582C179.697 162.407 180.096 162.339 180.491 162.385L182.076 162.569L185.375 160.93C184.701 164.833 186.537 164.906 190.929 163.597L191.72 167.63C191.776 167.911 191.769 168.2 191.702 168.48C191.634 168.758 191.505 169.019 191.326 169.243C191.145 169.469 190.919 169.652 190.662 169.781C190.404 169.908 190.121 169.98 189.833 169.99Z" fill="#2F2E41"/>
<path d="M214.165 169.99C209.289 170.129 205.472 168.82 202.969 165.708C202.705 165.381 202.55 164.98 202.521 164.563C202.493 164.145 202.594 163.728 202.812 163.368C203.016 163.029 203.316 162.756 203.672 162.581C204.029 162.407 204.43 162.338 204.824 162.384L206.41 162.568L209.685 161.195C209.009 165.098 210.871 164.905 215.263 163.597L216.054 167.628C216.11 167.909 216.103 168.2 216.035 168.478C215.966 168.758 215.838 169.018 215.659 169.243C215.479 169.467 215.253 169.65 214.996 169.779C214.737 169.908 214.455 169.98 214.165 169.99Z" fill="#2F2E41"/>
<path d="M197.808 35.4036C202.041 35.4036 205.472 31.9925 205.472 27.7848C205.472 23.5771 202.041 20.166 197.808 20.166C193.575 20.166 190.144 23.5771 190.144 27.7848C190.144 31.9925 193.575 35.4036 197.808 35.4036Z" fill="#FFB8B8"/>
<path d="M205.472 41.6893L197.233 42.0702L196.85 33.4991L203.939 30.8325L205.472 41.6893Z" fill="#FFB8B8"/>
<path d="M217.351 97.6872C206.117 95.5738 193.316 94.8167 184.779 97.6872L187.462 41.6895L196.468 39.023L197.137 37.9754L204.706 36.7373L208.346 37.8801L210.646 41.3085L220.609 46.8322C215.704 65.6916 214.252 82.8264 217.351 97.6872Z" fill="#2F2E41"/>
<path d="M222.717 97.3059L214.478 96.3535C216.194 88.036 215.493 77.2169 215.914 66.3548C216.183 59.4657 217.619 53.1961 218.118 45.4985C221.243 46.3085 222.86 49.1928 222.88 52.5918C222.968 68.7133 224.499 83.819 222.717 97.3059Z" fill="#2F2E41"/>
<path d="M186.887 96.544L178.84 95.9726L183.63 68.9261L185.252 46.4191C184.999 43.1369 186.765 41.2296 189.378 41.1177C195.088 47.8394 195.749 57.1029 193.976 67.5927L186.887 96.544Z" fill="#2F2E41"/>
<path d="M200.295 33.3875L199.306 30.5905C198.751 29.0212 197.777 27.6313 196.49 26.5695C195.202 25.5076 193.647 24.8139 191.994 24.5625L185.799 24.4213L187.519 21.674C188.349 20.349 189.535 19.2814 190.943 18.5922C192.352 17.9031 193.925 17.6198 195.489 17.7746L201.679 18.3881C203.153 18.534 204.508 19.2538 205.449 20.39C206.392 21.5262 206.843 22.9867 206.706 24.4527L206.138 30.5048C206.078 31.1518 205.851 31.7726 205.482 32.3083C205.112 32.8441 204.61 33.2768 204.024 33.5656C203.44 33.8545 202.788 33.9897 202.135 33.9584C201.484 33.9274 200.848 33.7307 200.295 33.3875Z" fill="#2F2E41"/>
</g>
<defs>
<clipPath id="clip0">
<rect width="228" height="170" fill="white"/>
</clipPath>
</defs>
</svg>
