<svg width="186" height="212" viewBox="0 0 186 212" fill="none" xmlns="http://www.w3.org/2000/svg">
<g clip-path="url(#clip0)">
<path d="M172.397 172.478C172.397 174.204 168.525 175.485 168.144 177.151C167.767 178.801 170.067 181.314 169.339 182.891C168.587 184.503 167.698 186.049 166.683 187.509C165.729 188.874 162.783 188.675 161.574 189.955C160.392 191.118 159.14 192.206 157.824 193.216C156.542 194.282 154.806 194.505 153.349 195.486C151.963 196.419 152.13 199.84 150.598 200.689C149.133 201.501 146.891 200.848 145.302 201.577C143.777 202.278 142.972 204.811 141.342 205.429C139.77 206.027 137.823 205.77 136.161 206.287C134.552 206.787 132.752 206.706 131.066 207.129C129.429 207.537 128.178 209.991 126.475 210.321C124.816 210.644 122.872 209.783 121.156 210.029C119.48 210.266 117.532 208.146 115.808 208.307C114.121 208.464 112.531 209.445 110.804 209.524C109.11 209.603 107.435 210.348 105.707 210.348C103.979 210.348 102.195 211.968 100.502 211.891C98.7739 211.812 97.2098 209.356 95.5229 209.198C93.799 209.038 91.7431 211.604 90.0674 211.365C88.3518 211.122 86.9927 208.609 85.3335 208.288C83.63 207.956 81.4299 209.752 79.7923 209.342C78.1063 208.921 77.1054 205.999 75.4963 205.499C73.834 204.982 71.7735 205.681 70.201 205.085C68.5703 204.464 66.5838 204.564 65.0586 203.865C63.4697 203.134 62.3291 201.408 60.8644 200.596C59.3315 199.748 58.6247 197.641 57.239 196.709C55.7814 195.726 53.5609 195.853 52.2793 194.787C50.926 193.662 48.3908 193.603 47.2488 192.393C46.041 191.113 45.5522 188.963 44.5987 187.598C43.5945 186.16 45.5655 183.12 44.8643 181.602C44.1367 180.024 41.0947 179.383 40.7173 177.732C40.328 176.007 40.1281 174.246 40.1213 172.478C40.1213 170.752 42.723 169.434 43.1036 167.768C43.4813 166.116 41.5665 163.745 42.2942 162.167C42.9957 160.648 42.906 158.312 43.9105 156.874C44.8642 155.509 47.244 154.974 48.4518 153.694C49.5938 152.484 51.6377 152.146 52.9908 151.021C54.2725 149.955 54.1092 146.742 55.5666 145.761C56.9523 144.829 58.887 144.403 60.4199 143.554C61.8846 142.742 63.9575 142.879 65.5464 142.149C67.0715 141.449 69.4602 142.829 71.0906 142.21C72.6631 141.612 73.9383 140.307 75.6008 139.79C77.2097 139.289 77.9657 135.471 79.6517 135.049C81.2888 134.64 83.3031 135.319 85.0061 134.988C86.6655 134.666 88.8983 137.679 90.6139 137.435C92.2894 137.196 93.5426 133.175 95.2662 133.014C96.9532 132.857 98.8554 134.94 100.583 134.861C102.277 134.783 103.978 136.004 105.707 136.004C107.434 136.004 109.156 134.329 110.85 134.406C112.577 134.486 114.101 136.699 115.788 136.856C117.512 137.017 119.628 133.65 121.303 133.888C123.019 134.132 124.345 136.735 126.004 137.057C127.707 137.388 129.841 135.772 131.479 136.182C133.165 136.603 134.179 139.369 135.788 139.87C137.451 140.387 138.475 142.339 140.047 142.936C141.678 143.556 144.707 140.658 146.232 141.358C147.821 142.087 149.194 143.35 150.658 144.162C152.191 145.011 154.628 144.584 156.014 145.516C157.471 146.498 157.829 149.131 159.112 150.196C160.464 151.321 162.696 151.66 163.839 152.871C165.047 154.151 165.214 156.445 166.167 157.81C167.171 159.248 167.14 161.24 167.841 162.759C168.57 164.336 170.512 165.529 170.888 167.179C171.27 168.845 172.397 170.753 172.397 172.478Z" fill="#3F3D56"/>
<path d="M82.3431 49.1426C80.1837 49.2646 78.1009 49.9854 76.3284 51.2243C74.5559 52.4632 73.1636 54.1714 72.3078 56.1571C69.7984 62.2208 73.0293 69.3436 77.8796 73.7654C82.73 78.1872 88.9605 80.7148 94.6214 84.0368C102.225 88.4991 109.057 94.6935 112.862 102.645C116.666 110.596 117.071 120.445 112.599 128.042C108.448 135.092 100.901 139.312 93.7024 143.204" stroke="#3F3D56" stroke-miterlimit="10"/>
<path d="M102.606 12.1738C100.447 12.2958 98.3644 13.0166 96.5917 14.2556C94.8192 15.4945 93.427 17.2026 92.5711 19.1883C90.0617 25.252 93.2927 32.3749 98.1431 36.7966C102.993 41.2184 109.224 43.746 114.885 47.0681C122.488 51.5303 129.321 57.7247 133.125 65.676C136.93 73.6274 137.334 83.4767 132.862 91.0729C128.712 98.1235 121.164 102.343 113.966 106.235" stroke="#3F3D56" stroke-miterlimit="10"/>
<path d="M169.23 20.6764C167.449 19.4514 165.36 18.7467 163.199 18.6417C161.04 18.5366 158.893 19.0351 157 20.0815C151.303 23.3406 149.496 30.95 150.623 37.4148C151.75 43.8795 155.129 49.691 157.571 55.7822C160.851 63.9638 162.46 73.0431 160.6 81.6587C158.738 90.2743 153.027 98.31 144.839 101.58C137.239 104.615 128.687 103.332 120.612 102.004" stroke="#3F3D56" stroke-miterlimit="10"/>
<path d="M110.519 97.1003C117.234 97.1003 122.677 94.4572 122.677 91.1969C122.677 87.9365 117.234 85.2935 110.519 85.2935C103.804 85.2935 98.3611 87.9365 98.3611 91.1969C98.3611 94.4572 103.804 97.1003 110.519 97.1003Z" fill="#57B894"/>
<path d="M108.999 96.0885C115.714 96.0885 121.157 93.4455 121.157 90.1851C121.157 86.9248 115.714 84.2817 108.999 84.2817C102.285 84.2817 96.8412 86.9248 96.8412 90.1851C96.8412 93.4455 102.285 96.0885 108.999 96.0885Z" stroke="#3F3D56" stroke-miterlimit="10"/>
<path d="M136.862 92.036C143.576 92.036 149.019 89.3929 149.019 86.1326C149.019 82.872 143.576 80.229 136.862 80.229C130.147 80.229 124.703 82.872 124.703 86.1326C124.703 89.3929 130.147 92.036 136.862 92.036Z" fill="#57B894"/>
<path d="M135.342 91.0241C142.056 91.0241 147.5 88.3811 147.5 85.1207C147.5 81.8603 142.056 79.2173 135.342 79.2173C128.627 79.2173 123.184 81.8603 123.184 85.1207C123.184 88.3811 128.627 91.0241 135.342 91.0241Z" stroke="#3F3D56" stroke-miterlimit="10"/>
<path d="M140.914 114.319C147.629 114.319 153.072 111.675 153.072 108.415C153.072 105.155 147.629 102.512 140.914 102.512C134.199 102.512 128.756 105.155 128.756 108.415C128.756 111.675 134.199 114.319 140.914 114.319Z" fill="#57B894"/>
<path d="M139.394 113.306C146.109 113.306 151.552 110.663 151.552 107.402C151.552 104.142 146.109 101.499 139.394 101.499C132.68 101.499 127.236 104.142 127.236 107.402C127.236 110.663 132.68 113.306 139.394 113.306Z" stroke="#3F3D56" stroke-miterlimit="10"/>
<path d="M138.381 58.6125C145.096 58.6125 150.539 55.9694 150.539 52.7091C150.539 49.4487 145.096 46.8057 138.381 46.8057C131.666 46.8057 126.223 49.4487 126.223 52.7091C126.223 55.9694 131.666 58.6125 138.381 58.6125Z" fill="#57B894"/>
<path d="M136.862 57.5999C143.576 57.5999 149.019 54.9568 149.019 51.6964C149.019 48.436 143.576 45.793 136.862 45.793C130.147 45.793 124.703 48.436 124.703 51.6964C124.703 54.9568 130.147 57.5999 136.862 57.5999Z" stroke="#3F3D56" stroke-miterlimit="10"/>
<path d="M107.986 55.0677C114.701 55.0677 120.144 52.4247 120.144 49.1643C120.144 45.9038 114.701 43.2607 107.986 43.2607C101.272 43.2607 95.8282 45.9038 95.8282 49.1643C95.8282 52.4247 101.272 55.0677 107.986 55.0677Z" fill="#57B894"/>
<path d="M106.466 54.0549C113.181 54.0549 118.624 51.4118 118.624 48.1515C118.624 44.8911 113.181 42.248 106.466 42.248C99.7517 42.248 94.3083 44.8911 94.3083 48.1515C94.3083 51.4118 99.7517 54.0549 106.466 54.0549Z" stroke="#3F3D56" stroke-miterlimit="10"/>
<path d="M121.664 42.4069C128.378 42.4069 133.822 39.7639 133.822 36.5035C133.822 33.2431 128.378 30.6001 121.664 30.6001C114.949 30.6001 109.506 33.2431 109.506 36.5035C109.506 39.7639 114.949 42.4069 121.664 42.4069Z" fill="#57B894"/>
<path d="M120.144 41.3942C126.859 41.3942 132.302 38.7512 132.302 35.4908C132.302 32.2304 126.859 29.5874 120.144 29.5874C113.429 29.5874 107.986 32.2304 107.986 35.4908C107.986 38.7512 113.429 41.3942 120.144 41.3942Z" stroke="#3F3D56" stroke-miterlimit="10"/>
<path d="M151.552 44.9391C158.267 44.9391 163.71 42.2961 163.71 39.0357C163.71 35.7754 158.267 33.1323 151.552 33.1323C144.838 33.1323 139.394 35.7754 139.394 39.0357C139.394 42.2961 144.838 44.9391 151.552 44.9391Z" fill="#57B894"/>
<path d="M150.033 43.9266C156.747 43.9266 162.19 41.2836 162.19 38.0232C162.19 34.7628 156.747 32.1196 150.033 32.1196C143.318 32.1196 137.875 34.7628 137.875 38.0232C137.875 41.2836 143.318 43.9266 150.033 43.9266Z" stroke="#3F3D56" stroke-miterlimit="10"/>
<path d="M173.842 61.6511C180.557 61.6511 186 59.008 186 55.7477C186 52.4873 180.557 49.8442 173.842 49.8442C167.127 49.8442 161.684 52.4873 161.684 55.7477C161.684 59.008 167.127 61.6511 173.842 61.6511Z" fill="#57B894"/>
<path d="M172.323 60.6385C179.038 60.6385 184.48 57.9953 184.48 54.7349C184.48 51.4746 179.038 48.8315 172.323 48.8315C165.608 48.8315 160.165 51.4746 160.165 54.7349C160.165 57.9953 165.608 60.6385 172.323 60.6385Z" stroke="#3F3D56" stroke-miterlimit="10"/>
<path d="M95.3215 32.2787C102.036 32.2787 107.479 29.6356 107.479 26.3752C107.479 23.1149 102.036 20.4717 95.3215 20.4717C88.6068 20.4717 83.1635 23.1149 83.1635 26.3752C83.1635 29.6356 88.6068 32.2787 95.3215 32.2787Z" fill="#57B894"/>
<path d="M93.8017 31.2658C100.516 31.2658 105.96 28.6228 105.96 25.3624C105.96 22.102 100.516 19.459 93.8017 19.459C87.0871 19.459 81.6438 22.102 81.6438 25.3624C81.6438 28.6228 87.0871 31.2658 93.8017 31.2658Z" stroke="#3F3D56" stroke-miterlimit="10"/>
<path d="M102.92 13.0349C109.635 13.0349 115.078 10.3918 115.078 7.13146C115.078 3.87109 109.635 1.22803 102.92 1.22803C96.2056 1.22803 90.7622 3.87109 90.7622 7.13146C90.7622 10.3918 96.2056 13.0349 102.92 13.0349Z" fill="#57B894"/>
<path d="M101.4 12.0222C108.115 12.0222 113.559 9.37913 113.559 6.11876C113.559 2.85839 108.115 0.215332 101.4 0.215332C94.6858 0.215332 89.2425 2.85839 89.2425 6.11876C89.2425 9.37913 94.6858 12.0222 101.4 12.0222Z" stroke="#3F3D56" stroke-miterlimit="10"/>
<path d="M173.335 27.2141C180.05 27.2141 185.494 24.5711 185.494 21.3107C185.494 18.0503 180.05 15.4072 173.335 15.4072C166.621 15.4072 161.177 18.0503 161.177 21.3107C161.177 24.5711 166.621 27.2141 173.335 27.2141Z" fill="#57B894"/>
<path d="M171.815 26.2023C178.53 26.2023 183.973 23.5593 183.973 20.2989C183.973 17.0385 178.53 14.3955 171.815 14.3955C165.1 14.3955 159.657 17.0385 159.657 20.2989C159.657 23.5593 165.1 26.2023 171.815 26.2023Z" stroke="#3F3D56" stroke-miterlimit="10"/>
<path d="M61.3805 73.8053C68.0951 73.8053 73.5384 71.1623 73.5384 67.9019C73.5384 64.6416 68.0951 61.9985 61.3805 61.9985C54.6657 61.9985 49.2224 64.6416 49.2224 67.9019C49.2224 71.1623 54.6657 73.8053 61.3805 73.8053Z" fill="#57B894"/>
<path d="M59.8607 72.7922C66.5753 72.7922 72.0186 70.1491 72.0186 66.8888C72.0186 63.6284 66.5753 60.9854 59.8607 60.9854C53.1459 60.9854 47.7026 63.6284 47.7026 66.8888C47.7026 70.1491 53.1459 72.7922 59.8607 72.7922Z" stroke="#3F3D56" stroke-miterlimit="10"/>
<path d="M103.427 70.7663C110.141 70.7663 115.585 68.1232 115.585 64.8629C115.585 61.6025 110.141 58.9595 103.427 58.9595C96.7121 58.9595 91.2688 61.6025 91.2688 64.8629C91.2688 68.1232 96.7121 70.7663 103.427 70.7663Z" fill="#57B894"/>
<path d="M101.907 69.7536C108.622 69.7536 114.065 67.1106 114.065 63.8502C114.065 60.5898 108.622 57.9468 101.907 57.9468C95.1923 57.9468 89.7491 60.5898 89.7491 63.8502C89.7491 67.1106 95.1923 69.7536 101.907 69.7536Z" stroke="#3F3D56" stroke-miterlimit="10"/>
<path d="M158.644 75.325C165.359 75.325 170.803 72.6818 170.803 69.4215C170.803 66.1611 165.359 63.5181 158.644 63.5181C151.93 63.5181 146.487 66.1611 146.487 69.4215C146.487 72.6818 151.93 75.325 158.644 75.325Z" fill="#57B894"/>
<path d="M157.125 74.3117C163.839 74.3117 169.282 71.6687 169.282 68.4083C169.282 65.1479 163.839 62.5049 157.125 62.5049C150.41 62.5049 144.967 65.1479 144.967 68.4083C144.967 71.6687 150.41 74.3117 157.125 74.3117Z" stroke="#3F3D56" stroke-miterlimit="10"/>
<path d="M129.263 77.3508C135.977 77.3508 141.421 74.7077 141.421 71.4474C141.421 68.187 135.977 65.5439 129.263 65.5439C122.548 65.5439 117.105 68.187 117.105 71.4474C117.105 74.7077 122.548 77.3508 129.263 77.3508Z" fill="#57B894"/>
<path d="M127.743 76.3371C134.458 76.3371 139.901 73.6941 139.901 70.4337C139.901 67.1733 134.458 64.5303 127.743 64.5303C121.028 64.5303 115.585 67.1733 115.585 70.4337C115.585 73.6941 121.028 76.3371 127.743 76.3371Z" stroke="#3F3D56" stroke-miterlimit="10"/>
<path d="M131.289 26.7083C138.004 26.7083 143.447 24.0652 143.447 20.8049C143.447 17.5445 138.004 14.9014 131.289 14.9014C124.574 14.9014 119.131 17.5445 119.131 20.8049C119.131 24.0652 124.574 26.7083 131.289 26.7083Z" fill="#57B894"/>
<path d="M129.769 25.6945C136.484 25.6945 141.927 23.0514 141.927 19.7911C141.927 16.5307 136.484 13.8877 129.769 13.8877C123.054 13.8877 117.611 16.5307 117.611 19.7911C117.611 23.0514 123.054 25.6945 129.769 25.6945Z" stroke="#3F3D56" stroke-miterlimit="10"/>
<path d="M79.1109 58.1058C85.8255 58.1058 91.2688 55.4628 91.2688 52.2024C91.2688 48.942 85.8255 46.2988 79.1109 46.2988C72.3961 46.2988 66.9528 48.942 66.9528 52.2024C66.9528 55.4628 72.3961 58.1058 79.1109 58.1058Z" fill="#57B894"/>
<path d="M77.591 57.093C84.3058 57.093 89.7491 54.4499 89.7491 51.1895C89.7491 47.9292 84.3058 45.2861 77.591 45.2861C70.8764 45.2861 65.4331 47.9292 65.4331 51.1895C65.4331 54.4499 70.8764 57.093 77.591 57.093Z" stroke="#3F3D56" stroke-miterlimit="10"/>
<path d="M86.203 80.8949C92.9176 80.8949 98.3609 78.2518 98.3609 74.9915C98.3609 71.7311 92.9176 69.0879 86.203 69.0879C79.4883 69.0879 74.0449 71.7311 74.0449 74.9915C74.0449 78.2518 79.4883 80.8949 86.203 80.8949Z" fill="#57B894"/>
<path d="M84.6833 79.882C91.3979 79.882 96.8412 77.239 96.8412 73.9786C96.8412 70.7182 91.3979 68.0752 84.6833 68.0752C77.9685 68.0752 72.5252 70.7182 72.5252 73.9786C72.5252 77.239 77.9685 79.882 84.6833 79.882Z" stroke="#3F3D56" stroke-miterlimit="10"/>
<g opacity="0.3">
<path opacity="0.3" d="M86.4858 115.301C88.202 112.231 88.5152 109.14 87.1855 108.397C85.8556 107.654 83.3864 109.54 81.6701 112.61C79.9539 115.68 79.6407 118.771 80.9706 119.514C82.3003 120.257 84.7697 118.37 86.4858 115.301Z" fill="#57B894"/>
<path opacity="0.3" d="M85.6842 115.765C87.4005 112.695 87.7137 109.605 86.3839 108.862C85.054 108.119 82.5848 110.005 80.8686 113.074C79.1523 116.144 78.8391 119.235 80.1689 119.978C81.4988 120.721 83.968 118.835 85.6842 115.765Z" stroke="#3F3D56" stroke-miterlimit="10"/>
</g>
<g opacity="0.3">
<path opacity="0.3" d="M149.859 130.016C150.875 128.881 149.573 126.06 146.952 123.715C144.331 121.37 141.382 120.389 140.366 121.523C139.35 122.658 140.652 125.479 143.273 127.825C145.894 130.17 148.843 131.151 149.859 130.016Z" fill="#57B894"/>
<path opacity="0.3" d="M149.581 129.133C150.597 127.999 149.296 125.177 146.674 122.832C144.053 120.487 141.105 119.506 140.089 120.641C139.073 121.775 140.374 124.596 142.995 126.942C145.617 129.287 148.565 130.268 149.581 129.133Z" stroke="#3F3D56" stroke-miterlimit="10"/>
</g>
<g opacity="0.3">
<path opacity="0.3" d="M93.1215 98.1114C94.1374 96.9766 92.8361 94.1554 90.2149 91.8101C87.5936 89.465 84.645 88.4838 83.6291 89.6186C82.613 90.7533 83.9144 93.5744 86.5357 95.9197C89.1571 98.2649 92.1056 99.2462 93.1215 98.1114Z" fill="#57B894"/>
<path opacity="0.3" d="M92.8438 97.2285C93.8597 96.0938 92.5585 93.2726 89.9372 90.9274C87.3158 88.5822 84.3674 87.601 83.3513 88.7357C82.3354 89.8705 83.6368 92.6917 86.258 95.037C88.8793 97.3821 91.8279 98.3633 92.8438 97.2285Z" stroke="#3F3D56" stroke-miterlimit="10"/>
</g>
</g>
<defs>
<clipPath id="clip0">
<rect width="186" height="212" fill="white"/>
</clipPath>
</defs>
</svg>
