<svg width="182" height="181" viewBox="0 0 182 181" fill="none" xmlns="http://www.w3.org/2000/svg">
<g clip-path="url(#clip0)">
<path d="M123.449 48.6562C125.633 49.8094 127.768 50.9893 129.854 52.1962" stroke="#2F2E41" stroke-miterlimit="10"/>
<path d="M82.8021 41.5112C92.3292 43.5716 102.731 47.1284 113.209 52.1482C120.798 55.7599 128.06 60.0227 134.913 64.8889" stroke="#2F2E41" stroke-miterlimit="10"/>
<path d="M73.8875 39.9863C76.7504 40.3384 79.7308 40.8471 82.8021 41.5113" stroke="#2F2E41" stroke-miterlimit="10"/>
<path d="M45.8704 69.862C40.5811 62.1203 38.7642 54.806 41.4817 49.1316C44.4874 42.8556 52.5331 39.6451 63.4392 39.4087" stroke="#2F2E41" stroke-miterlimit="10"/>
<path d="M157.253 87.1538C161.662 94.2518 163.029 100.906 160.515 106.157C158.302 110.777 153.358 113.736 146.551 115.07" stroke="#2F2E41" stroke-miterlimit="10"/>
<path d="M134.914 64.8892C139.332 68.0231 143.508 71.485 147.407 75.2456" stroke="#2F2E41" stroke-miterlimit="10"/>
<path d="M42.9418 30.3362C51.7215 28.4497 63.0828 28.785 75.7894 31.2902" stroke="#2F2E41" stroke-miterlimit="10"/>
<path d="M170.725 87.1523C174.656 92.8947 177.073 98.4516 177.705 103.512" stroke="#2F2E41" stroke-miterlimit="10"/>
<path d="M129.854 52.1963C133.796 54.4761 137.547 56.8341 141.107 59.2701" stroke="#2F2E41" stroke-miterlimit="10"/>
<path d="M135.503 136.776C134.495 136.833 133.523 137.17 132.695 137.748C131.868 138.327 131.217 139.125 130.818 140.053C129.646 142.885 131.155 146.212 133.419 148.278C135.684 150.344 138.593 151.524 141.236 153.076C144.787 155.161 147.977 158.054 149.753 161.769C151.529 165.483 151.718 170.084 149.63 173.632C147.692 176.926 144.168 178.897 140.807 180.715" stroke="#3F3D56" stroke-miterlimit="10"/>
<path d="M138.488 139.033C140.774 139.033 142.628 138.133 142.628 137.023C142.628 135.912 140.774 135.012 138.488 135.012C136.202 135.012 134.349 135.912 134.349 137.023C134.349 138.133 136.202 139.033 138.488 139.033Z" fill="#57B894"/>
<path d="M141.8 152.281C144.086 152.281 145.939 151.381 145.939 150.27C145.939 149.16 144.086 148.259 141.8 148.259C139.514 148.259 137.66 149.16 137.66 150.27C137.66 151.381 139.514 152.281 141.8 152.281Z" fill="#57B894"/>
<path d="M134.231 154.41C136.517 154.41 138.37 153.51 138.37 152.399C138.37 151.289 136.517 150.389 134.231 150.389C131.945 150.389 130.091 151.289 130.091 152.399C130.091 153.51 131.945 154.41 134.231 154.41Z" fill="#57B894"/>
<path d="M146.057 165.529C148.343 165.529 150.197 164.628 150.197 163.518C150.197 162.407 148.343 161.507 146.057 161.507C143.771 161.507 141.918 162.407 141.918 163.518C141.918 164.628 143.771 165.529 146.057 165.529Z" fill="#57B894"/>
<path d="M154.336 165.529C156.622 165.529 158.475 164.628 158.475 163.518C158.475 162.407 156.622 161.507 154.336 161.507C152.05 161.507 150.197 162.407 150.197 163.518C150.197 164.628 152.05 165.529 154.336 165.529Z" fill="#57B894"/>
<path d="M113.322 58.6919H115.654C115.654 58.6919 117.791 75.2118 116.237 76.7666C114.682 78.3214 110.407 79.2931 109.824 76.7666C109.241 74.24 109.824 64.9111 109.824 64.9111L113.322 58.6919Z" fill="#E0354B"/>
<path d="M98.0675 60.9269C105.902 60.9269 112.253 53.4872 112.253 44.3099C112.253 35.1326 105.902 27.6929 98.0675 27.6929C90.2331 27.6929 83.8821 35.1326 83.8821 44.3099C83.8821 53.4872 90.2331 60.9269 98.0675 60.9269Z" fill="#2F2E41"/>
<path d="M94.8612 47.4196C94.8612 47.4196 95.6385 53.8332 93.3066 55.1936C90.9748 56.5541 96.0271 64.3282 96.0271 64.3282L102.051 65.883L106.132 60.2468L105.355 54.4162C105.355 54.4162 100.691 49.7518 102.828 45.4761L94.8612 47.4196Z" fill="#FFC1C7"/>
<path opacity="0.1" d="M94.8612 47.4196C94.8612 47.4196 95.6385 53.8332 93.3066 55.1936C90.9748 56.5541 96.0271 64.3282 96.0271 64.3282L102.051 65.883L106.132 60.2468L105.355 54.4162C105.355 54.4162 100.691 49.7518 102.828 45.4761L94.8612 47.4196Z" fill="black"/>
<path d="M86.1168 117.041C86.1168 117.041 83.7849 138.225 86.1168 143.278C88.4486 148.331 94.6669 162.519 94.6669 162.519L92.7237 166.6L97.9703 165.434L100.108 161.353C100.108 161.353 97.5817 151.441 97.1931 147.943C96.8044 144.444 93.8896 138.031 93.8896 138.031L99.3306 114.903L86.1168 117.041Z" fill="#FFC1C7"/>
<path d="M104.577 113.499C104.577 113.499 104.772 134.878 106.132 138.194L105.355 167.152L109.63 167.723C109.63 167.723 115.848 143.429 114.876 137.599C113.905 131.768 115.071 110.778 115.071 110.778L104.577 113.499Z" fill="#FFC1C7"/>
<path d="M98.0675 50.0437C102.146 50.0437 105.452 46.7371 105.452 42.6583C105.452 38.5795 102.146 35.2729 98.0675 35.2729C93.9894 35.2729 90.6833 38.5795 90.6833 42.6583C90.6833 46.7371 93.9894 50.0437 98.0675 50.0437Z" fill="#FFC1C7"/>
<path d="M123.232 116.22C123.232 116.22 117.985 119.718 115.848 117.192C113.71 114.665 87.477 118.746 84.1736 117.969C80.8701 117.192 85.9225 104.753 85.9225 98.3396C85.9225 93.5411 87.6636 86.2412 88.54 82.8673C88.8353 81.7323 89.0316 81.0423 89.0316 81.0423C89.0316 81.0423 91.0254 75.3692 90.6523 73.0117C90.627 72.8331 90.578 72.6585 90.5065 72.4928C90.4754 72.4235 90.437 72.3577 90.3919 72.2965C89.461 71.0546 86.793 61.9979 85.7573 58.1089C85.5883 57.5334 85.4488 56.9495 85.3395 56.3597C85.3395 55.7767 92.5294 54.0275 94.3269 53.9439C96.1263 53.8604 96.6101 56.3597 96.6101 56.3597C97.1931 56.7484 99.9136 63.5507 99.9136 63.5507L102.44 57.1371C102.44 57.1371 102.245 55.7767 102.051 55.7767C101.857 55.7767 104.925 53.942 104.925 53.942C104.925 53.942 108.075 56.1654 109.824 55.7767C111.573 55.388 115.654 58.8863 115.654 58.8863C115.654 58.8863 108.464 76.961 111.379 80.848C114.293 84.735 123.232 116.22 123.232 116.22Z" fill="#E0354B"/>
<path d="M99.5249 160.575C99.5249 160.575 96.2215 163.879 96.2215 164.268L93.501 163.102C93.501 163.102 92.335 167.377 92.1407 167.96C91.9464 168.543 88.6429 173.791 85.3395 176.123C82.036 178.455 85.3395 181.371 88.2543 180.788C91.1691 180.205 98.5533 173.597 98.5533 173.597C98.5533 173.597 103.606 173.597 105.355 169.71C105.355 169.71 100.691 160.186 99.5249 160.575Z" fill="#2F2E41"/>
<path d="M109.241 166.181C109.241 166.181 104.249 162.553 103.927 165.922C103.606 169.29 103.606 176.676 103.606 176.676C103.606 176.676 102.051 181.534 106.909 180.951C111.767 180.368 112.156 179.008 112.156 179.008L109.824 169.679V165.598L109.241 166.181Z" fill="#2F2E41"/>
<path opacity="0.1" d="M90.3919 72.297C89.4611 71.0551 86.793 61.9983 85.7573 58.1094H86.6998C86.6998 58.1094 89.0666 67.3741 90.5065 72.4933C90.4754 72.424 90.437 72.3582 90.3919 72.297Z" fill="black"/>
<path opacity="0.1" d="M103.217 85.1242C103.217 85.1242 100.497 85.3185 90.5862 83.375C89.8956 83.2424 89.2126 83.073 88.54 82.8678C88.8354 81.7327 89.0316 81.0428 89.0316 81.0428C89.0316 81.0428 91.0254 75.3697 90.6523 73.0122C91.1167 74.6448 91.4626 75.7467 91.5578 75.7953C91.9464 75.9897 104.383 78.1275 106.132 78.9049C107.881 79.6823 103.217 85.1242 103.217 85.1242Z" fill="black"/>
<path opacity="0.1" d="M106.715 59.6877C106.715 59.6877 112.075 59.0262 112.407 59.8954C112.739 60.7646 114.099 69.1647 114.682 70.2417C115.265 71.3186 115.459 77.9956 113.127 78.211C110.796 78.4264 107.686 76.0571 108.269 74.1186C108.852 72.1801 106.715 59.6877 106.715 59.6877Z" fill="black"/>
<path d="M103.994 77.5442C103.994 77.5442 112.156 78.5159 113.516 77.5442C114.876 76.5724 120.512 76.5724 119.346 79.2933C118.18 82.0143 108.075 82.2086 108.075 82.2086H102.245L103.994 77.5442Z" fill="#FFC1C7"/>
<path d="M86.6998 56.749H85.3395C85.3395 56.749 82.619 57.3321 83.0076 65.8835C83.3963 74.435 80.6758 80.0712 90.5862 82.0147C100.497 83.9582 103.217 83.7639 103.217 83.7639C103.217 83.7639 107.881 78.322 106.132 77.5446C104.383 76.7672 91.9464 74.6294 91.5578 74.435C91.1691 74.2407 86.6998 56.749 86.6998 56.749Z" fill="#E0354B"/>
<path d="M112.257 60.5848C112.257 60.5848 108.852 47.8086 106.132 47.8086C103.411 47.8086 100.302 48.3916 102.634 50.9182C104.966 53.4448 107.881 56.1657 108.075 57.5262C108.269 58.8866 109.047 60.8301 109.047 60.8301L112.257 60.5848Z" fill="#FFC1C7"/>
<path d="M107.492 59.6877C107.492 59.6877 112.852 59.0262 113.184 59.8954C113.516 60.7646 114.876 69.1647 115.459 70.2417C116.042 71.3186 116.237 77.9956 113.905 78.211C111.573 78.4264 108.464 76.0571 109.047 74.1186C109.63 72.1801 107.492 59.6877 107.492 59.6877Z" fill="#E0354B"/>
<path d="M96.1244 42.6583C99.9879 42.6583 103.12 39.5258 103.12 35.6617C103.12 31.7975 99.9879 28.665 96.1244 28.665C92.2608 28.665 89.1288 31.7975 89.1288 35.6617C89.1288 39.5258 92.2608 42.6583 96.1244 42.6583Z" fill="#2F2E41"/>
<path d="M124.314 114.755C113.458 112.965 101.177 109.075 88.7879 103.14C74.682 96.3824 62.729 88.0716 54.2119 79.6724" stroke="#2F2E41" stroke-miterlimit="10"/>
<path d="M80.2982 106.795C70.5862 101.763 61.7936 96.1678 54.2115 90.3428" stroke="#2F2E41" stroke-miterlimit="10"/>
<path d="M11.6435 28.1432C18.0741 28.1432 23.2871 22.9294 23.2871 16.4979C23.2871 10.0663 18.0741 4.85254 11.6435 4.85254C5.21299 4.85254 0 10.0663 0 16.4979C0 22.9294 5.21299 28.1432 11.6435 28.1432Z" fill="#E0354B"/>
<path d="M14.3748 23.3991C20.8054 23.3991 26.0184 18.1853 26.0184 11.7537C26.0184 5.3222 20.8054 0.108398 14.3748 0.108398C7.94426 0.108398 2.73126 5.3222 2.73126 11.7537C2.73126 18.1853 7.94426 23.3991 14.3748 23.3991Z" stroke="#2F2E41" stroke-miterlimit="10"/>
<path d="M173.528 65.3371C177.27 65.3371 180.303 62.3036 180.303 58.5616C180.303 54.8196 177.27 51.7861 173.528 51.7861C169.787 51.7861 166.754 54.8196 166.754 58.5616C166.754 62.3036 169.787 65.3371 173.528 65.3371Z" fill="#F2F2F2"/>
<path d="M175.117 62.5764C178.859 62.5764 181.892 59.5429 181.892 55.8009C181.892 52.0589 178.859 49.0254 175.117 49.0254C171.376 49.0254 168.343 52.0589 168.343 55.8009C168.343 59.5429 171.376 62.5764 175.117 62.5764Z" stroke="#2F2E41" stroke-miterlimit="10"/>
<path d="M49.9484 138.929C55.3267 138.929 59.6866 134.568 59.6866 129.189C59.6866 123.81 55.3267 119.449 49.9484 119.449C44.5701 119.449 40.2101 123.81 40.2101 129.189C40.2101 134.568 44.5701 138.929 49.9484 138.929Z" fill="#F2F2F2"/>
<path d="M52.2326 134.96C57.6109 134.96 61.9709 130.6 61.9709 125.221C61.9709 119.842 57.6109 115.481 52.2326 115.481C46.8543 115.481 42.4944 119.842 42.4944 125.221C42.4944 130.6 46.8543 134.96 52.2326 134.96Z" stroke="#2F2E41" stroke-miterlimit="10"/>
</g>
<defs>
<clipPath id="clip0">
<rect width="182" height="181" fill="white"/>
</clipPath>
</defs>
</svg>
