<svg width="235" height="190" viewBox="0 0 235 190" fill="none" xmlns="http://www.w3.org/2000/svg">
<g clip-path="url(#clip0)">
<path d="M147.325 92.16C147.325 92.16 146.487 92.0265 146.487 90.6333C146.487 89.2399 145.887 86.6378 145.887 86.6378C145.887 86.6257 145.369 82.1059 144.652 81.3874C143.935 80.6689 143.014 76.4501 143.014 76.4501C143.014 76.4501 142.857 74.1611 142.536 73.6683C142.215 73.1755 141.781 71.9692 141.141 70.2481C140.501 68.5271 137.832 67.3354 137.832 67.3354C137.832 67.3354 133.006 64.1409 131.639 63.0996C131.515 63.014 131.399 62.914 131.292 62.8009C131.054 62.4441 130.016 62.437 130.016 62.437C129.908 61.6553 129.804 60.7572 129.77 59.9439C129.77 59.8565 129.77 59.7692 129.759 59.6818C131.284 58.653 132.432 57.031 132.994 55.1136C133.019 55.0212 133.041 54.9242 133.064 54.832C133.155 54.7976 133.239 54.7418 133.311 54.6683C133.382 54.5948 133.439 54.5049 133.479 54.4048C133.602 54.0916 133.604 53.725 133.757 53.4338C133.936 53.0891 134.276 52.9046 134.544 52.6448C135.22 51.9895 135.395 50.885 135.363 49.8801C135.341 49.0669 135.227 48.2465 135.271 47.4382L135.284 47.2343C135.297 47.1128 135.312 46.9915 135.331 46.875C135.435 46.2731 135.663 45.705 135.79 45.1079C135.918 44.5108 135.931 43.8383 135.633 43.3237C135.197 42.5689 134.289 42.4183 133.491 42.3407C132.587 42.2534 131.779 42.3674 131.201 41.5105C130.93 41.0627 130.626 40.6427 130.291 40.2556C130.172 40.1294 129.015 39.3235 129.015 39.27C127.886 38.6731 126.606 38.5611 125.41 38.9545C124.81 39.1536 124.245 39.4789 123.636 39.6415C122.324 39.9958 120.814 39.6124 119.7 40.4692C119.079 40.9547 118.707 41.7265 118.358 42.479C118.075 43.0989 117.787 43.7178 117.495 44.336C117.025 45.353 116.546 46.3871 116.349 47.5134C116.307 47.7585 116.281 48.0068 116.272 48.2561V48.2683C116.272 48.3581 116.272 48.448 116.272 48.5377V48.6518C116.272 48.7369 116.272 48.8193 116.285 48.8946C116.298 48.9699 116.295 48.9942 116.302 49.0451C116.308 49.096 116.319 49.2102 116.332 49.2879C116.344 49.3654 116.37 49.5014 116.395 49.6082C116.406 49.6543 116.421 49.6981 116.434 49.7417C116.455 49.8242 116.48 49.9044 116.508 49.9845C116.523 50.0258 116.538 50.0694 116.555 50.1106C116.587 50.1957 116.625 50.2782 116.663 50.3534C116.68 50.3874 116.693 50.419 116.71 50.4505C116.769 50.5634 116.835 50.6721 116.906 50.7758C117.361 51.424 118.031 51.8365 118.526 52.4434C118.526 52.4677 118.526 52.492 118.526 52.5138C118.526 52.5817 118.526 52.6473 118.526 52.7152C118.553 54.0687 118.868 55.3942 119.446 56.5767C120.023 57.7591 120.845 58.7625 121.84 59.4998C121.84 59.5919 121.85 59.6866 121.854 59.779C121.896 60.4994 121.888 61.2225 121.831 61.9417C121.744 61.8252 121.636 61.7326 121.514 61.6704C121.392 61.6081 121.259 61.5781 121.125 61.5824C121.034 61.5773 120.942 61.5863 120.853 61.6092L120.834 61.5921V61.614C120.366 61.745 119.789 62.301 119.239 63.8811C119.239 63.8811 117.563 66.0367 116.287 65.9468C115.011 65.8571 111.781 68.1898 111.781 68.1898C111.781 68.1898 108.629 70.5249 107.953 72.9038C107.575 74.2526 107.122 75.5725 106.596 76.8555L102.7 86.0188L101.981 93.2888C101.981 93.2888 102.379 96.522 102.3 97.0148C102.221 97.5075 103.936 101.952 103.936 101.952C103.936 101.952 109.599 113.31 111.912 113.892L112.078 113.759C112.177 113.818 112.282 113.863 112.391 113.892L112.867 113.509C112.896 113.936 112.884 114.366 112.831 114.79C112.512 115.912 112.95 123.23 113.508 124.665C114.065 126.1 113.867 144.909 113.867 144.909L113.788 146.57C113.788 146.57 113.788 146.623 113.807 146.715L113.788 147.108L113.846 147.142C113.905 147.669 113.886 148.203 113.788 148.723C113.588 149.451 113.508 151.509 113.508 151.509C113.508 151.509 111.915 163.132 112.67 165.466C113.425 167.801 114.067 170.36 114.067 170.36C114.067 170.36 114.864 173.274 114.105 173.77C113.346 174.269 111.187 175.104 111.632 176.317C112.036 177.438 113.569 180.444 113.797 180.883L113.778 181.113L113.465 184.98C113.516 185.491 113.637 185.99 113.824 186.457C114.167 187.298 114.832 188.171 116.098 188.078C116.31 188.061 116.557 188.031 116.795 187.995C119.111 187.64 121.963 186.461 121.963 186.461C121.815 186.354 121.679 186.226 121.559 186.08C121.445 185.954 121.355 185.803 121.294 185.636C121.233 185.469 121.202 185.29 121.204 185.108C121.238 184.404 120.083 181.05 119.796 180.226C119.751 180.106 119.728 180.039 119.728 180.039C119.728 180.039 122.361 176.898 121.923 174.113C121.923 174.113 119.009 172.171 119.968 171.106C120.927 170.04 122.641 166.979 122.641 166.979C122.641 166.979 122.72 155.534 122.641 153.825C122.559 152.639 122.609 151.446 122.788 150.274C122.82 150.097 122.858 149.924 122.899 149.754C124.225 149.98 125.564 150.096 126.905 150.101C127.394 150.101 127.892 150.101 128.394 150.067C128.394 150.229 128.4 150.404 128.413 150.592C128.524 153.427 128.73 158.398 128.898 160.245C129.136 162.894 130.452 170.03 130.452 170.03C130.452 170.03 127.941 171.87 130.891 176.404C130.891 176.404 130.891 178.047 130.695 178.285C130.486 179.064 130.318 179.854 130.191 180.654C130.067 181.509 130.016 182.373 130.216 182.822C130.695 183.895 133.566 183.808 133.566 183.808L133.636 183.794C134.178 183.73 134.726 183.789 135.247 183.968C135.769 184.149 136.254 184.445 136.675 184.839C137.766 185.84 141.906 185.401 144.148 185.082C145.026 184.956 145.613 184.839 145.613 184.839C145.642 184.727 145.652 184.608 145.643 184.49C145.619 183.861 145.188 182.482 142.262 181.252C142.262 181.252 139.51 179.14 139.548 177.299H139.491H139.172C139.403 177.285 139.552 177.299 139.552 177.299C139.552 177.299 138.474 172.81 138.914 172.445C139.354 172.081 138.036 167.105 138.036 167.105C138.036 167.105 137.281 158.754 137.24 158.17C137.242 157.669 137.309 157.169 137.438 156.689L137.24 152.111C137.24 152.111 137.202 150.589 137.24 150.094C137.234 149.664 137.204 149.235 137.149 148.81C137.13 148.64 137.111 148.463 137.09 148.288C138.121 147.99 138.791 147.713 138.791 147.713L138.672 131.777C139.548 129.835 139.71 125.575 139.705 122.553C139.705 120.611 139.629 119.174 139.629 119.174L140.826 116.943C140.826 116.943 141.102 114.273 140.664 113.688C140.471 113.424 140.558 113.15 140.718 112.924C140.8 112.849 140.888 112.781 140.979 112.72C140.979 112.72 140.966 112.698 140.951 112.666C141.035 112.587 141.124 112.515 141.217 112.45C141.217 112.45 140.792 111.698 141.173 111.38C141.53 111.657 141.849 111.865 142.091 112.035C142.074 112.213 142.057 112.314 142.057 112.314L142.159 112.072C142.393 112.222 142.536 112.314 142.536 112.314C142.536 112.314 144.412 108.05 144.371 107.421C144.331 106.792 145.647 104.144 145.647 104.144C145.647 104.144 145.807 102.753 146.525 102.17C147.244 101.588 147.082 97.3667 147.082 97.3667C147.082 97.3667 147.282 95.1676 147.761 94.2694C148.239 93.3713 147.325 92.16 147.325 92.16ZM111.436 90.2885L111.472 91.3056C111.26 90.9148 111.106 90.6333 111.106 90.6333L111.436 90.2885Z" fill="url(#paint0_linear)"/>
<path d="M142.638 110.472L142.178 112.705C142.178 112.705 138.499 110.562 137.836 107.839C137.172 105.115 138.946 104.081 138.946 104.081L142.374 105.739L142.638 110.472Z" fill="white"/>
<path opacity="0.1" d="M142.638 110.472L142.178 112.705C142.178 112.705 138.499 110.562 137.836 107.839C137.172 105.115 138.946 104.081 138.946 104.081L142.374 105.739L142.638 110.472Z" fill="black"/>
<path d="M121.991 186.476C121.991 186.476 118.588 187.902 116.249 188.081C115.007 188.176 114.354 187.307 114.018 186.471C113.834 186.005 113.716 185.508 113.667 185.002L113.971 181.154L114.133 179.106L119.103 177.633L119.806 180.089L119.872 180.276C120.155 181.096 121.289 184.434 121.255 185.13C121.253 185.309 121.284 185.485 121.343 185.65C121.403 185.815 121.492 185.965 121.603 186.089C121.718 186.236 121.848 186.365 121.991 186.476Z" fill="white"/>
<path d="M145.232 184.52C145.241 184.636 145.231 184.753 145.203 184.865C145.203 184.865 137.925 186.251 136.437 184.865C136.017 184.46 135.528 184.161 135 183.984C134.473 183.808 133.919 183.76 133.374 183.842C133.374 183.842 130.559 183.929 130.089 182.87C129.893 182.426 129.944 181.565 130.065 180.715C130.189 179.919 130.354 179.133 130.559 178.359L130.671 178.256L131.341 177.642L139.184 177.377H139.244C139.205 179.207 141.906 181.307 141.906 181.307C144.775 182.521 145.198 183.892 145.232 184.52Z" fill="white"/>
<path opacity="0.1" d="M145.232 184.518C145.24 184.636 145.229 184.753 145.2 184.865C145.2 184.865 137.925 186.251 136.437 184.865C136.017 184.462 135.528 184.161 135.001 183.985C134.474 183.808 133.921 183.76 133.376 183.842C133.376 183.842 130.559 183.929 130.091 182.87C129.895 182.423 129.944 181.565 130.065 180.715C131.15 180.839 132.862 181.148 133.534 181.883C134.55 183.001 136.273 184.118 137.33 184.205C138.157 184.266 143.106 184.446 145.232 184.518Z" fill="black"/>
<path opacity="0.1" d="M121.991 186.476C121.991 186.476 118.588 187.902 116.249 188.081C115.007 188.176 114.354 187.307 114.02 186.468C114.886 186.8 116.087 187.15 116.719 186.829C117.467 186.451 120.121 186.206 121.61 186.102C121.723 186.242 121.851 186.368 121.991 186.476Z" fill="black"/>
<path d="M127.039 71.4539C124.232 70.2087 120.621 66.0942 121.523 64.1718C121.723 63.6867 121.842 63.1631 121.873 62.628C121.932 61.9016 121.94 61.1712 121.899 60.4433C121.836 59.2513 121.71 58.0645 121.523 56.8896C121.523 56.8896 130.286 57.1153 129.776 58.5887C129.627 59.0209 129.604 59.771 129.644 60.6108C129.685 61.4507 129.791 62.3998 129.902 63.2033C130.055 64.3053 130.208 65.1452 130.208 65.1452C130.208 65.1452 129.672 66.002 129.357 66.0481C129.042 66.0942 131.067 73.2283 127.039 71.4539Z" fill="#CF6F80"/>
<path opacity="0.1" d="M119.866 180.276L119.8 180.358C117.18 176.742 114.011 181.249 114.011 181.249L113.965 181.154L114.126 179.106L119.096 177.633L119.8 180.089L119.866 180.276Z" fill="black"/>
<path opacity="0.1" d="M139.246 177.633C139.246 177.633 137.332 177.586 136.311 178.616C135.29 179.645 130.357 178.84 130.569 178.616C130.632 178.505 130.67 178.379 130.68 178.247L131.35 177.633L139.193 177.368C139.222 177.532 139.246 177.633 139.246 177.633Z" fill="black"/>
<path d="M123.126 149.23C122.984 149.632 122.875 150.049 122.803 150.475C122.626 151.642 122.576 152.829 122.656 154.01C122.735 155.709 122.656 167.096 122.656 167.096C122.656 167.096 120.974 170.132 120.036 171.202C119.098 172.274 121.95 174.196 121.95 174.196C122.375 176.963 119.798 180.089 119.798 180.089C117.178 176.473 114.009 180.983 114.009 180.983C114.009 180.983 112.287 177.584 111.857 176.37C111.428 175.157 113.539 174.317 114.282 173.823C115.024 173.331 114.245 170.425 114.245 170.425C114.245 170.425 113.618 167.879 112.874 165.557C112.129 163.233 113.695 151.67 113.695 151.67C113.695 151.67 113.775 149.616 113.969 148.9C114.067 148.383 114.086 147.851 114.026 147.327C114.014 147.15 113.999 147.002 113.988 146.902C113.977 146.803 113.969 146.757 113.969 146.757L113.999 146.698L115.062 144.436C115.062 144.436 123.637 147.805 123.126 149.23Z" fill="#E0354B"/>
<path d="M139.246 177.365C139.246 177.365 137.332 177.318 136.311 178.337C135.29 179.354 130.357 178.56 130.569 178.337C130.782 178.113 130.765 176.46 130.765 176.46C127.871 171.95 130.34 170.12 130.34 170.12C130.34 170.12 129.047 163.02 128.813 160.385C128.649 158.546 128.447 153.601 128.338 150.778C128.292 149.565 128.264 148.73 128.264 148.73L130.629 148.186L130.933 148.115L136.637 146.81C136.637 146.81 136.794 148.023 136.9 149.016C136.953 149.44 136.983 149.867 136.99 150.295C136.951 150.781 136.99 152.3 136.99 152.3L137.183 156.856C137.057 157.334 136.991 157.831 136.99 158.329C137.028 158.91 137.77 167.216 137.77 167.216C137.77 167.216 139.061 172.173 138.621 172.529C138.18 172.886 139.246 177.365 139.246 177.365Z" fill="#E0354B"/>
<path opacity="0.1" d="M129.776 58.5887C129.627 59.0209 129.604 59.771 129.644 60.6108C128.47 61.4176 127.121 61.8301 125.751 61.801C124.381 61.7717 123.046 61.302 121.899 60.4458C121.836 59.2528 121.71 58.0653 121.523 56.8896C121.523 56.8896 130.286 57.1105 129.776 58.5887Z" fill="black"/>
<path d="M133.164 53.2253C133.165 54.0999 133.045 54.9694 132.807 55.8008C132.274 57.6634 131.181 59.2511 129.722 60.2832C128.263 61.3154 126.531 61.7255 124.832 61.4411C123.134 61.1567 121.578 60.1961 120.44 58.7291C119.302 57.2622 118.655 55.3832 118.614 53.4243C118.614 53.3563 118.614 53.2932 118.614 53.2253C118.597 52.1227 118.773 51.0274 119.131 50.0031C119.489 48.979 120.023 48.0466 120.7 47.2601C121.377 46.4738 122.185 45.8491 123.076 45.4227C123.967 44.9964 124.924 44.7769 125.89 44.7769C126.856 44.7769 127.812 44.9964 128.703 45.4227C129.594 45.8491 130.402 46.4738 131.079 47.2601C131.757 48.0466 132.29 48.979 132.648 50.0031C133.006 51.0274 133.182 52.1227 133.166 53.2253H133.164Z" fill="#CF6F80"/>
<path opacity="0.1" d="M127.039 71.4547C124.232 70.2096 120.621 66.0952 121.523 64.1726C121.723 63.6875 121.842 63.1639 121.873 62.6289L125.716 66.2335L128.094 68.4594L129.902 63.2065C130.055 64.3085 130.208 65.1484 130.208 65.1484C130.208 65.1484 129.672 66.0053 129.357 66.0514C129.042 66.0975 131.067 73.2292 127.039 71.4547Z" fill="black"/>
<path d="M136.977 87.3854L133.768 148.919L129.583 149.232L118.745 113.552L120.523 71.1925L120.897 62.2427L125.716 66.76L128.096 68.986L129.957 63.5801L133.417 67.0221L136.977 87.3854Z" fill="#E0354B"/>
<path opacity="0.1" d="M123.126 149.23C122.984 149.632 122.875 150.049 122.803 150.475C119.758 149.938 116.8 148.883 114.028 147.346L113.971 147.312L113.99 146.921L114.001 146.717L115.064 144.455C115.064 144.455 123.636 147.805 123.126 149.23Z" fill="black"/>
<path opacity="0.1" d="M130.678 150.485C129.899 150.636 129.114 150.738 128.326 150.791C128.279 149.577 128.251 148.742 128.251 148.742L130.616 148.199L130.678 150.485Z" fill="black"/>
<path opacity="0.1" d="M136.887 149.028C135.375 149.477 133.04 149.982 130.95 149.667L130.92 148.128L136.624 146.822C136.624 146.822 136.781 148.023 136.887 149.028Z" fill="black"/>
<path opacity="0.1" d="M130.912 149.948C122.193 151.647 114.207 146.775 114.207 146.775L114.284 145.125C114.284 145.125 114.481 126.412 113.933 124.978C113.384 123.543 112.957 116.268 113.267 115.152C113.578 114.035 112.134 97.291 112.134 97.291L111.9 90.4944L103.338 86.5353L107.166 77.4279C107.683 76.151 108.128 74.8375 108.497 73.4955C109.163 71.1312 112.253 68.8083 112.253 68.8083C112.253 68.8083 115.421 66.4876 116.674 66.575C117.926 66.6625 119.568 64.5214 119.568 64.5214C120.78 60.9946 121.878 62.5917 121.878 62.5917C121.878 62.7593 121.878 62.5917 121.818 63.1136C121.393 66.9854 128.696 79.2192 128.8 79.4353L129.495 98.7717L130.199 123.242L130.912 149.948Z" fill="black"/>
<path d="M130.678 149.948C121.959 151.647 113.971 146.776 113.971 146.776L114.05 145.125C114.05 145.125 114.248 126.412 113.697 124.978C113.146 123.543 112.721 116.268 113.033 115.152C113.346 114.035 111.9 97.2913 111.9 97.2913L111.664 90.4946L103.098 86.5212L106.926 77.4136C107.442 76.1361 107.886 74.8228 108.257 73.4812C108.92 71.117 112.013 68.794 112.013 68.794C112.013 68.794 115.181 66.4735 116.432 66.5609C117.682 66.6483 119.326 64.5073 119.326 64.5073C120.54 60.9803 121.878 62.5776 121.878 62.5776C121.878 62.745 121.75 62.8202 121.818 63.0995C122.754 66.8546 128.462 79.2051 128.566 79.4211L129.27 98.7575L129.974 123.228L130.678 149.948Z" fill="white"/>
<path opacity="0.1" d="M128.328 79.9719C127.39 79.5253 122.422 73.0516 122.422 73.0516V71.5781C122.241 71.0926 121.168 71.3888 120.296 71.7286L120.67 62.7788L121.095 63.1819C122.027 66.9345 128.219 79.7559 128.328 79.9719Z" fill="black"/>
<path d="M128.564 79.4358C127.624 78.9891 122.656 72.5153 122.656 72.5153V71.0418C122.475 70.5564 121.401 70.8526 120.53 71.1925L120.906 62.2427L121.331 62.6456C122.265 66.3984 128.46 79.2221 128.564 79.4358Z" fill="white"/>
<path opacity="0.1" d="M114.207 111.722C114.324 111.722 120.27 111.009 120.27 111.009C120.27 111.009 123.87 119.09 123.634 121.056C123.398 123.022 122.971 124.762 121.523 124.454C120.074 124.146 113.729 124.697 113.729 124.697L114.207 111.722Z" fill="black"/>
<path d="M113.971 111.185C114.088 111.185 120.034 110.472 120.034 110.472C120.034 110.472 123.632 118.555 123.398 120.518C123.164 122.482 122.733 124.225 121.287 123.917C119.841 123.609 113.493 124.16 113.493 124.16L113.971 111.185Z" fill="white"/>
<path d="M118.452 107.392C118.452 107.392 123.909 110.74 124.026 111.761C124.143 112.783 121.248 111.315 120.623 111.138C120.212 111.024 119.793 110.95 119.37 110.914L115.2 111.043L118.452 107.392Z" fill="#CF6F80"/>
<path opacity="0.1" d="M126.805 80.3893C127.122 80.3893 127.379 80.0959 127.379 79.734C127.379 79.372 127.122 79.0786 126.805 79.0786C126.488 79.0786 126.231 79.372 126.231 79.734C126.231 80.0959 126.488 80.3893 126.805 80.3893Z" fill="black"/>
<path d="M126.805 80.1227C127.122 80.1227 127.379 79.8293 127.379 79.4674C127.379 79.1054 127.122 78.812 126.805 78.812C126.488 78.812 126.231 79.1054 126.231 79.4674C126.231 79.8293 126.488 80.1227 126.805 80.1227Z" fill="#3F3D56"/>
<path opacity="0.1" d="M127.862 108.761C128.179 108.761 128.436 108.467 128.436 108.105C128.436 107.743 128.179 107.45 127.862 107.45C127.545 107.45 127.288 107.743 127.288 108.105C127.288 108.467 127.545 108.761 127.862 108.761Z" fill="black"/>
<path d="M127.862 108.492C128.179 108.492 128.436 108.198 128.436 107.836C128.436 107.474 128.179 107.181 127.862 107.181C127.545 107.181 127.288 107.474 127.288 107.836C127.288 108.198 127.545 108.492 127.862 108.492Z" fill="#3F3D56"/>
<path opacity="0.1" d="M127.377 94.5755C127.694 94.5755 127.951 94.2821 127.951 93.9201C127.951 93.5582 127.694 93.2646 127.377 93.2646C127.06 93.2646 126.803 93.5582 126.803 93.9201C126.803 94.2821 127.06 94.5755 127.377 94.5755Z" fill="black"/>
<path d="M127.377 94.3087C127.694 94.3087 127.951 94.0153 127.951 93.6534C127.951 93.2915 127.694 92.998 127.377 92.998C127.06 92.998 126.803 93.2915 126.803 93.6534C126.803 94.0153 127.06 94.3087 127.377 94.3087Z" fill="#3F3D56"/>
<path d="M140.613 110.778C140.613 110.778 141.005 111.448 140.613 111.761C140.222 112.074 140.652 112.832 140.652 112.832C140.652 112.832 139.675 113.485 140.105 114.072C140.535 114.66 140.262 117.313 140.262 117.313L139.089 119.531C139.089 119.531 139.159 120.961 139.163 122.893C139.163 125.908 139.008 130.146 138.149 132.079L138.268 147.932C138.268 147.932 134.157 149.645 130.716 149.123L130.206 123.685C130.206 123.685 130.95 109.259 131.224 106.492C131.385 105.055 131.45 103.607 131.42 102.159C131.42 102.159 131.303 97.8282 130.91 95.8184C130.91 95.8184 130.484 87.1115 130.442 84.7011C130.422 83.548 130.476 80.1838 130.535 76.9844C130.601 73.4866 130.676 70.1877 130.676 70.1877L129.899 63.1775C129.899 63.1775 130.676 63.0878 130.91 63.4446C131.014 63.5563 131.128 63.6563 131.25 63.7432C132.59 64.7773 137.323 67.9571 137.323 67.9571C137.323 67.9571 139.943 69.1465 140.571 70.8504C141.198 72.5545 141.634 73.7633 141.938 74.2488C142.242 74.7344 142.408 77.0161 142.408 77.0161C142.408 77.0161 143.31 81.2154 144.014 81.9266C144.718 82.6377 145.232 87.1624 145.232 87.1624L139.012 92.7454C139.012 92.7454 138.465 102.033 138.349 102.392C138.231 102.751 140.613 110.778 140.613 110.778Z" fill="white"/>
<path d="M140.849 110.778C140.849 110.778 141.239 111.448 140.849 111.761C140.46 112.074 140.885 112.831 140.885 112.831C140.885 112.831 139.916 113.492 140.341 114.079C140.766 114.667 140.498 117.32 140.498 117.32L139.325 119.538C139.325 119.538 139.395 120.968 139.401 122.9C139.401 125.915 139.246 130.153 138.387 132.085L138.504 147.939C138.504 147.939 134.387 149.652 130.95 149.13L130.442 123.691C130.442 123.691 131.186 109.266 131.46 106.498C131.621 105.062 131.686 103.613 131.654 102.166C131.654 102.166 131.537 97.8351 131.146 95.8253C131.146 95.8253 130.72 87.1183 130.676 84.7079C130.656 83.5549 130.712 80.1906 130.769 76.9913C130.835 73.4934 130.909 70.1948 130.909 70.1948L129.885 63.0898C129.885 63.0898 130.909 63.0898 131.146 63.4515C131.249 63.5645 131.363 63.6645 131.486 63.75C132.826 64.7841 137.562 67.964 137.562 67.964C137.562 67.964 140.18 69.1533 140.807 70.8574C141.434 72.5613 141.87 73.7702 142.176 74.2556C142.483 74.7412 142.644 77.0229 142.644 77.0229C142.644 77.0229 143.546 81.2222 144.25 81.9335C144.954 82.6447 145.462 87.1596 145.462 87.1596L139.242 92.7425C139.242 92.7425 138.695 102.03 138.576 102.389C138.457 102.748 140.849 110.778 140.849 110.778Z" fill="white"/>
<path opacity="0.1" d="M133.4 72.2552L133.961 74.1242L131.005 77.5225C131.071 74.0272 131.146 70.726 131.146 70.726L130.121 63.6211C130.121 63.6211 131.146 63.6211 131.382 63.9827C131.485 64.0955 131.599 64.1948 131.722 64.2788L134.236 72.5562L133.4 72.2552Z" fill="black"/>
<path d="M133.164 71.7192L133.727 73.5882L130.771 76.9866C130.837 73.4887 130.912 70.1899 130.912 70.1899L129.885 63.085C129.885 63.085 130.912 63.085 131.146 63.4467C131.25 63.559 131.364 63.659 131.486 63.7453L134.002 72.0201L133.164 71.7192Z" fill="white"/>
<path opacity="0.1" d="M133.164 53.2253C133.165 54.0999 133.045 54.9694 132.807 55.8008C132.766 55.8079 132.725 55.8057 132.686 55.7945C132.646 55.7832 132.609 55.7631 132.577 55.7352C132.522 53.5505 131.579 51.4994 130.421 49.7541C130.095 49.2272 129.701 48.7605 129.251 48.3705C128.796 47.9807 128.231 47.7982 127.664 47.8583C127.026 47.9578 126.463 48.453 125.819 48.5161C124.968 48.5963 124.207 47.9238 123.362 47.8899C123.019 47.8936 122.68 47.9808 122.369 48.1458C122.058 48.3107 121.781 48.5494 121.557 48.8463C121.113 49.4453 120.784 50.1428 120.589 50.895C120.255 52.0355 120.073 53.2269 120.049 54.4292C120.038 55.109 119.981 55.9609 119.428 56.2085C119.47 55.7087 119.42 55.2044 119.282 54.7276C119.144 54.2508 118.921 53.812 118.626 53.4388L118.614 53.4243C118.614 53.3563 118.614 53.2932 118.614 53.2253C118.597 52.1227 118.773 51.0274 119.131 50.0031C119.489 48.979 120.023 48.0466 120.7 47.2601C121.377 46.4738 122.185 45.8491 123.076 45.4227C123.967 44.9964 124.924 44.7769 125.89 44.7769C126.856 44.7769 127.812 44.9964 128.703 45.4227C129.594 45.8491 130.402 46.4738 131.079 47.2601C131.757 48.0466 132.29 48.979 132.648 50.0031C133.006 51.0274 133.182 52.1227 133.166 53.2253H133.164Z" fill="black"/>
<path d="M128.902 40.0372C127.797 39.4438 126.54 39.3315 125.368 39.7215C124.778 39.9205 124.224 40.2434 123.626 40.4061C122.35 40.7581 120.861 40.377 119.766 41.2289C119.158 41.7145 118.792 42.4815 118.452 43.2267L117.601 45.0764C117.138 46.0885 116.67 47.1178 116.476 48.232C116.283 49.3461 116.4 50.5937 117.018 51.4895C117.469 52.1424 118.135 52.5526 118.624 53.1668C118.917 53.5403 119.139 53.979 119.277 54.4551C119.415 54.9313 119.465 55.4348 119.424 55.934C119.979 55.6912 120.032 54.8368 120.045 54.1571C120.068 52.9549 120.25 51.7633 120.585 50.6228C120.779 49.8706 121.108 49.1728 121.552 48.5743C121.777 48.2776 122.054 48.039 122.365 47.8741C122.676 47.7091 123.015 47.6218 123.358 47.6179C124.209 47.6518 124.972 48.3218 125.814 48.2416C126.452 48.181 127.018 47.6833 127.66 47.5863C128.226 47.5251 128.792 47.7077 129.247 48.0985C129.696 48.4878 130.09 48.9546 130.414 49.4821C131.575 51.2273 132.517 53.2736 132.573 55.463C132.813 55.6645 133.16 55.4024 133.279 55.0917C133.398 54.781 133.402 54.4169 133.553 54.1207C133.727 53.7784 134.061 53.5965 134.323 53.3391C134.986 52.6862 135.152 51.5865 135.127 50.5889C135.101 49.5912 134.931 48.5791 135.097 47.5984C135.197 46.9963 135.422 46.4332 135.546 45.8386C135.669 45.2438 135.684 44.5763 135.393 44.0641C134.967 43.3116 134.072 43.1636 133.291 43.0932C132.405 43.0059 131.611 43.1175 131.046 42.2655C130.78 41.8209 130.481 41.4033 130.153 41.0177C130.04 40.8916 128.902 40.0904 128.902 40.0372Z" fill="#512E4E"/>
<path opacity="0.1" d="M105.788 91.2254L103.565 86.5356L102.862 93.7717C102.862 93.7717 103.253 96.9855 103.174 97.4782C103.095 97.971 104.778 102.389 104.778 102.389C104.778 102.389 110.335 113.686 112.604 114.268L120.27 108.015L118.237 105.069C118.237 105.069 117.533 104.756 117.356 105.069C117.356 105.069 113.582 97.6555 113.19 97.1191C112.799 96.5826 112.876 95.5121 112.876 95.5121C112.876 95.5121 112.289 94.7985 112.485 94.1285C112.68 93.4585 111.351 91.1355 111.351 91.1355L112.563 89.8418L105.788 91.2254Z" fill="black"/>
<path d="M103.682 86.002L103.095 86.536L102.392 93.7719C102.392 93.7719 102.783 96.9858 102.704 97.4786C102.625 97.9713 104.31 102.389 104.31 102.389C104.31 102.389 109.865 113.686 112.134 114.269L119.802 108.016L117.767 105.069C117.767 105.069 117.063 104.756 116.887 105.069C116.887 105.069 113.112 97.6557 112.72 97.1193C112.329 96.5828 112.408 95.5124 112.408 95.5124C112.408 95.5124 111.821 94.7986 112.017 94.1288C112.212 93.4588 110.881 91.1358 110.881 91.1358L112.093 89.842L103.682 86.002Z" fill="white"/>
<path opacity="0.1" d="M140.105 114.349C140.53 114.938 140.262 117.587 140.262 117.587L139.089 119.805C139.089 119.805 139.159 121.238 139.163 123.167L137.189 123.871C137.011 123.935 136.822 123.949 136.638 123.912C136.454 123.875 136.28 123.789 136.131 123.66C135.983 123.531 135.863 123.363 135.782 123.17C135.702 122.978 135.663 122.766 135.669 122.553L136.009 110.025L140.613 112.035C140.222 112.346 140.652 113.108 140.652 113.108C140.652 113.108 139.675 113.759 140.105 114.349Z" fill="black"/>
<path d="M140.341 114.079C140.766 114.669 140.498 117.32 140.498 117.32L139.325 119.539C139.325 119.539 139.395 120.968 139.401 122.901L137.391 123.617C137.217 123.679 137.032 123.692 136.852 123.656C136.671 123.62 136.501 123.535 136.356 123.408C136.21 123.282 136.093 123.118 136.014 122.93C135.936 122.741 135.897 122.534 135.903 122.325L136.245 109.759L140.851 111.769C140.458 112.079 140.888 112.839 140.888 112.839C140.888 112.839 139.916 113.492 140.341 114.079Z" fill="white"/>
<path d="M141.866 108.108C141.866 108.108 141.553 110.387 140.771 110.521C139.988 110.654 139.637 114.208 138.857 114.082C138.076 113.955 138.593 110.778 138.621 110.161C138.648 109.545 137.77 106.991 138.427 106.411C139.084 105.831 141.164 106.411 141.164 106.411L141.866 108.108Z" fill="#CF6F80"/>
<path opacity="0.1" d="M143.531 90.5549L145.007 87.1567C145.007 87.1567 145.594 89.7467 145.594 91.1302C145.594 92.514 146.415 92.6498 146.415 92.6498C146.415 92.6498 147.314 93.8636 146.84 94.7471C146.366 95.6306 146.174 97.8299 146.174 97.8299C146.174 97.8299 146.33 102.027 145.626 102.607C144.922 103.187 144.775 104.573 144.775 104.573C144.775 104.573 143.482 107.207 143.523 107.833C143.563 108.459 141.723 112.7 141.723 112.7C141.723 112.7 142.623 107.43 137.381 105.153C137.381 105.153 137.34 103.364 137.732 102.874C138.123 102.384 138.733 102.16 138.351 99.6819C137.968 97.2035 138.24 94.2422 138.24 93.6474C138.24 93.0528 139.414 89.3438 139.414 89.3438L143.531 90.5549Z" fill="black"/>
<path d="M144.169 86.6719L145.458 87.1575C145.458 87.1575 146.047 89.7474 146.047 91.131C146.047 92.5147 146.868 92.6505 146.868 92.6505C146.868 92.6505 147.767 93.8643 147.293 94.7478C146.819 95.6313 146.63 97.8306 146.63 97.8306C146.63 97.8306 146.785 102.027 146.081 102.608C145.377 103.188 145.22 104.574 145.22 104.574C145.22 104.574 143.929 107.207 143.969 107.834C144.01 108.46 142.168 112.701 142.168 112.701C142.168 112.701 143.07 107.431 137.825 105.154C137.825 105.154 137.787 103.365 138.178 102.875C138.57 102.384 139.18 102.161 138.797 99.6827C138.414 97.2043 138.687 94.2429 138.687 93.6481C138.687 93.0535 139.861 89.3445 139.861 89.3445L144.169 86.6719Z" fill="white"/>
<path opacity="0.1" d="M115.704 174.753C115.704 174.753 117.758 173.28 119.107 174.351C120.455 175.421 115.704 174.753 115.704 174.753Z" fill="black"/>
<path opacity="0.1" d="M131.667 170.198C131.667 170.198 133.485 169.93 135.012 171.807C136.539 173.683 131.667 170.198 131.667 170.198Z" fill="black"/>
<g opacity="0.1">
<path opacity="0.1" d="M134.327 52.8069C134.066 53.0642 133.73 53.2487 133.555 53.5909C133.406 53.8846 133.402 54.2464 133.283 54.5619C133.164 54.8774 132.817 55.1347 132.577 54.9357C132.522 52.7512 131.577 50.6999 130.418 48.9523C130.094 48.4248 129.7 47.958 129.251 47.5687C128.796 47.1781 128.229 46.9954 127.662 47.0565C127.024 47.156 126.463 47.6512 125.818 47.712C124.968 47.7943 124.204 47.122 123.36 47.0881C123.017 47.092 122.679 47.1795 122.368 47.3449C122.057 47.5103 121.78 47.7496 121.557 48.0468C121.113 48.6445 120.783 49.3416 120.589 50.0932C120.255 51.2337 120.073 52.4251 120.049 53.6273C120.036 54.3046 119.981 55.1494 119.432 55.4018C119.445 55.5811 119.445 55.7613 119.432 55.9407C119.985 55.6979 120.04 54.8435 120.053 54.1639C120.077 52.9614 120.259 51.77 120.593 50.6296C120.787 49.8772 121.117 49.1795 121.561 48.5808C121.785 48.2845 122.061 48.0457 122.372 47.8809C122.683 47.716 123.021 47.6285 123.364 47.6244C124.215 47.6585 124.981 48.3284 125.823 48.2483C126.461 48.1876 127.026 47.69 127.667 47.593C128.233 47.5319 128.8 47.7145 129.255 48.105C129.705 48.4945 130.099 48.9613 130.423 49.4888C131.582 51.234 132.526 53.2802 132.581 55.4697C132.821 55.6712 133.168 55.409 133.287 55.0983C133.406 54.7876 133.41 54.4235 133.559 54.1274C133.734 53.7851 134.07 53.603 134.331 53.3458C134.995 52.6928 135.161 51.5933 135.135 50.5956C135.135 50.564 135.135 50.5325 135.135 50.5034C135.095 51.3674 134.893 52.2486 134.327 52.8069Z" fill="black"/>
<path opacity="0.1" d="M118.628 52.6351C118.139 52.0209 117.471 51.6107 117.023 50.9602C116.645 50.3842 116.429 49.6911 116.404 48.9722C116.337 49.8706 116.557 50.7663 117.023 51.4942C117.471 52.1472 118.139 52.5574 118.628 53.1715C119.098 53.7723 119.38 54.5337 119.43 55.3367C119.463 54.848 119.408 54.3568 119.271 53.8925C119.133 53.4283 118.914 53.0006 118.628 52.6351Z" fill="black"/>
<path opacity="0.1" d="M135.55 45.3068C135.424 45.9015 135.201 46.467 135.099 47.0666C135.038 47.4673 135.016 47.8743 135.033 48.2803C135.04 48.049 135.062 47.8185 135.099 47.591C135.201 46.9889 135.424 46.4258 135.55 45.8311C135.623 45.5032 135.647 45.1633 135.62 44.8262C135.607 44.9881 135.583 45.1487 135.55 45.3068Z" fill="black"/>
</g>
<path d="M212.593 114.504C212.593 114.504 209.08 94.5653 210.425 92.0845C210.425 92.0845 210.474 89.7785 210.393 86.839C210.393 86.7273 210.393 86.6156 210.393 86.5016C210.63 86.6815 210.876 86.8436 211.131 86.9871C212.368 87.7133 213.791 87.9227 215.15 87.5793L214.087 86.2272C213.831 85.9044 213.565 85.5549 213.511 85.1277C213.455 84.7005 213.609 84.3194 213.74 83.9384C214.751 81.0254 214.804 77.3625 212.857 75.139C211.214 73.27 210.814 70.8572 209.03 69.1507C207.726 67.9006 207.01 66.0679 206.333 64.2959C205.76 62.7984 205.185 61.2885 204.858 59.701C204.603 58.4606 204.5 57.1765 204.15 55.9652C203.798 54.754 203.141 53.5768 202.114 53.0355C201.748 52.8436 201.342 52.7344 201.007 52.4795C200.57 52.1422 200.306 51.5937 199.99 51.1129C198.379 48.6856 192.988 50.1152 190.437 51.1009C189.743 51.349 189.1 51.7553 188.548 52.2951L188.571 52.2513C188.591 52.215 188.615 52.1786 188.635 52.1422C188.356 52.3999 188.115 52.7073 187.921 53.0524C187.549 53.7248 187.393 54.5089 187.083 55.2371C186.708 56.0988 184.626 58.5044 185.522 59.4729C185.585 59.5378 185.656 59.5903 185.734 59.6282C186.07 59.7878 186.441 59.83 186.799 59.7495L186.76 59.854C186.455 60.7084 186.297 61.6228 186.299 62.5459C186.299 66.534 189.18 69.7673 192.737 69.7673C193.407 69.7681 194.071 69.651 194.709 69.4202C194.723 69.5124 194.737 69.6047 194.751 69.6969C194.751 69.7334 194.762 69.7698 194.767 69.8061L194.653 69.9858C194.648 69.9748 194.642 69.9642 194.634 69.9542L191.296 75.2798C190.786 75.69 187.846 78.1175 187.681 79.9379C187.507 81.9309 187.332 84.2635 187.332 84.2635L187.309 84.7636C187.163 84.9028 186.992 85.0041 186.808 85.0608C186.624 85.1173 186.433 85.1277 186.245 85.0913C185.203 84.8971 185.203 89.4605 185.203 89.4605C185.203 89.4605 184.509 90.1887 184.033 89.5577C183.557 88.9265 182.298 91.0651 182.298 91.0651L174.409 91.4535L174.227 91.4656L173.802 89.9631C173.757 89.8045 173.657 89.6731 173.528 89.5971C173.397 89.5212 173.246 89.5071 173.106 89.5577C173.074 89.57 173.042 89.5854 173.011 89.6038L172.982 89.6232L172.926 89.6668L172.898 89.696C172.884 89.7119 172.87 89.7288 172.856 89.7469L172.831 89.781L172.818 89.7955C172.769 89.873 172.736 89.9626 172.723 90.057C172.709 90.1515 172.716 90.2481 172.741 90.3393L173.106 91.6282C171.584 91.9777 170.028 92.9632 171.296 95.6771L164.863 94.3201L166.943 96.3154L177.691 98.8471C177.55 99.1385 177.643 99.5609 178.088 100.155C180.001 102.721 183.488 103.418 184.892 103.598C185.262 104.544 185.726 105.44 186.273 106.268L186.151 108.824C186.151 108.824 182.598 128.306 181.948 129.294C182.276 128.869 182.576 128.417 182.847 127.942C181.815 131.944 180.374 137.423 179.994 138.243C179.387 139.554 178.823 144.858 179.517 145.198C179.73 145.302 180.337 145.251 181.205 145.176V145.615L181.166 162.265C181.166 162.265 181.341 172.476 180.863 173.45C180.384 174.423 180.256 176.465 180.256 176.465C180.256 176.465 178.343 180.492 176.826 182.11C176.816 182.123 176.804 182.135 176.792 182.145L176.745 181.766C176.745 181.766 174.922 184.392 170.89 184.244C170.89 184.244 168.464 186.046 172.062 186.142C175.66 186.24 180.256 185.997 180.256 185.997C180.256 185.997 183.465 180.414 186.154 181.142V185.373H186.976V181.075C187.359 180.788 187.686 180.416 187.936 179.98C188.188 179.545 188.361 179.056 188.442 178.542C188.512 178.013 188.461 177.472 188.293 176.974C188.123 176.474 187.844 176.033 187.48 175.695C187.317 175.527 187.186 175.322 187.096 175.093C187.006 174.864 186.957 174.616 186.956 174.365L186.926 174.393C186.926 174.309 186.906 174.222 186.898 174.132C186.662 171.947 186.366 167.44 187.41 164.104C188.842 159.531 189.276 153.162 188.233 149.37C187.897 148.159 187.622 146.926 187.405 145.678C187.381 145.521 187.357 145.37 187.335 145.229C188.048 145.339 188.753 145.501 189.447 145.715C191.861 146.475 197.142 146.615 201.65 146.574C201.661 146.715 201.674 146.863 201.689 147.011C201.769 148.04 201.937 149.058 202.19 150.05C202.757 151.992 203.015 160.553 203.015 160.553C203.015 160.553 203.745 167.592 203.348 170.456C203.135 172.05 202.922 173.649 202.8 175.256V175.287C202.8 175.287 201.605 179.171 200.732 181.28C200.71 181.335 200.687 181.388 200.665 181.439C200.433 181.462 200.203 181.52 199.983 181.61C199.983 181.61 198.812 184.281 197.644 184.722C196.476 185.164 196.863 186.619 199.507 186.085C202.15 185.551 206.142 185.113 206.142 185.113L206.314 182.391L207.127 181.23L206.914 183.946L207.779 183.752L207.664 180.449L208.993 178.55C208.993 178.55 210.599 176.918 208.213 173.71V173.78C208.188 173.735 208.165 173.685 208.137 173.64V173.624C207.742 172.926 207.426 171.623 208.003 169.309C209.044 165.129 209.651 161.335 209.651 161.335C209.651 161.335 211.978 151.172 209.181 146.363H209.304C209.018 145.686 208.815 144.967 208.702 144.227C208.688 144.14 208.675 144.05 208.664 143.957C210.733 143.822 212.764 143.394 214.421 142.472C214.415 142.462 213.417 118.344 212.593 114.504ZM186.322 97.682V97.7306L185.896 97.7549L186.322 97.682ZM184.863 97.9127C184.792 97.9303 184.727 97.9661 184.671 98.017C184.489 98.3123 184.374 98.6554 184.338 99.0147L183.674 98.8448C183.674 98.8448 183.208 98.7306 182.539 98.602L182.221 98.2379C183.093 98.1553 183.999 98.034 184.863 97.9127Z" fill="url(#paint1_linear)"/>
<path d="M206.816 180.481L206.563 183.922L207.412 183.727L207.284 179.997L206.816 180.481Z" fill="#1D2366"/>
<path d="M187.457 164.151C186.434 167.476 186.724 171.964 186.953 174.145C187.038 174.95 187.118 175.44 187.118 175.44C187.118 175.44 185.588 179.416 185.46 179.567C185.333 179.717 180.961 182.765 180.961 182.765L177.904 184.8C177.904 184.8 174.804 183.249 176.29 182.715C176.594 182.576 176.868 182.363 177.092 182.092C178.581 180.477 180.45 176.465 180.45 176.465C180.45 176.465 180.578 174.428 181.045 173.459C181.513 172.491 181.344 162.313 181.344 162.313L181.38 145.722V143.56L187.195 143.608C187.233 144.342 187.317 145.073 187.446 145.793C187.656 147.036 187.925 148.265 188.257 149.473C189.282 153.257 188.856 159.594 187.457 164.151Z" fill="#FFB0B1"/>
<path opacity="0.1" d="M187.118 175.44C187.118 175.44 185.588 179.416 185.46 179.567C185.333 179.718 180.961 182.764 180.961 182.764L177.904 184.801C177.904 184.801 174.804 183.25 176.29 182.716C176.594 182.576 176.868 182.364 177.092 182.092L177.224 183.152L178.242 183.104L186.962 174.149C187.038 174.951 187.118 175.44 187.118 175.44Z" fill="black"/>
<path d="M187.01 174.375L178.242 183.39L177.224 183.438L177.011 181.739C177.011 181.739 175.229 184.356 171.27 184.211C171.27 184.211 168.892 186.005 172.415 186.102C175.94 186.198 180.44 185.955 180.44 185.955C180.44 185.955 183.583 180.374 186.213 181.101V185.318H187.021V181.062C187.398 180.774 187.718 180.402 187.964 179.967C188.21 179.534 188.377 179.047 188.454 178.537C188.524 178.013 188.475 177.477 188.311 176.98C188.146 176.483 187.874 176.044 187.518 175.703C187.357 175.533 187.231 175.326 187.144 175.099C187.057 174.87 187.012 174.624 187.01 174.375Z" fill="#1D2366"/>
<path d="M207.623 169.337C207.058 171.641 207.366 172.94 207.754 173.638V173.652C208.25 174.512 208.596 175.474 208.77 176.485L208.804 176.703L204.814 183.342L202.649 184.312C202.649 184.312 199.168 182.956 199.804 182.568C199.963 182.473 200.212 181.968 200.497 181.271C201.348 179.171 202.522 175.298 202.522 175.298V175.265C202.646 173.666 202.841 172.071 203.059 170.484C203.448 167.627 202.733 160.614 202.733 160.614C202.733 160.614 202.478 152.087 201.924 150.148C201.675 149.162 201.509 148.15 201.429 147.128C201.314 145.914 201.289 144.914 201.289 144.914C201.289 144.914 203.582 141.273 207.784 145.205C208.12 145.519 208.415 145.885 208.661 146.293C211.565 151.007 209.228 161.391 209.228 161.391C209.228 161.391 208.643 165.167 207.623 169.337Z" fill="#FFB0B1"/>
<path opacity="0.1" d="M208.811 176.703L204.82 183.342L202.656 184.313C202.656 184.313 199.176 182.956 199.811 182.568C199.971 182.473 200.218 181.969 200.505 181.271C201.979 181.257 202.741 182.86 202.741 182.86L204.609 182.518C204.609 182.518 207.071 176.994 207.623 176.656C208.177 176.32 207.709 174.135 207.709 174.135V173.579C207.724 173.599 207.737 173.621 207.754 173.64V173.654C208.25 174.515 208.596 175.476 208.77 176.487L208.811 176.703Z" fill="black"/>
<path d="M202.869 183.003C202.869 183.003 201.806 180.774 199.769 181.596C199.769 181.596 198.622 184.267 197.476 184.699C196.329 185.13 196.712 186.588 199.303 186.055C201.893 185.524 205.798 185.085 205.798 185.085L205.967 182.369L208.601 178.541C208.601 178.541 210.169 176.917 207.835 173.719V174.275C207.835 174.275 208.302 176.46 207.749 176.798C207.197 177.135 204.743 182.662 204.743 182.662L202.869 183.003Z" fill="#1D2366"/>
<path opacity="0.1" d="M187.202 143.603C187.239 144.338 187.323 145.068 187.454 145.788C185.059 145.387 182.836 145.586 181.38 145.718V143.555L187.202 143.603Z" fill="black"/>
<path opacity="0.1" d="M208.898 146.897C208.898 146.897 205.496 147.086 201.437 147.125C201.323 145.911 201.297 144.911 201.297 144.911C201.297 144.911 203.589 141.27 207.791 145.202C208.127 145.516 208.423 145.882 208.671 146.29C208.736 146.497 208.812 146.7 208.898 146.897Z" fill="black"/>
<path d="M208.898 146.46C208.898 146.46 193.995 147.283 189.452 145.829C184.909 144.375 180.407 145.635 179.73 145.297C179.051 144.96 179.602 139.675 180.197 138.367C180.793 137.059 184.059 123.827 184.059 123.827L187.202 105.122L190.513 104.081L190.747 104.005L196.516 102.19L200.744 100.857C200.744 100.857 209.152 138.319 208.429 141.081C208.168 142.139 208.126 143.252 208.306 144.331C208.417 145.069 208.616 145.785 208.898 146.46Z" fill="#1D2366"/>
<path d="M176.245 92.3301C176.245 92.3301 173.268 95.9712 175.523 98.0005C177.777 100.03 179.26 98.1947 179.26 98.1947L176.245 92.3301Z" fill="#C7DAF5"/>
<path opacity="0.1" d="M176.245 92.3301C176.245 92.3301 173.268 95.9712 175.523 98.0005C177.777 100.03 179.26 98.1947 179.26 98.1947L176.245 92.3301Z" fill="black"/>
<path d="M200.299 68.3913C200.299 68.3913 199.951 68.7699 199.426 69.3282C198.678 70.1268 197.57 71.2944 196.588 72.2726C195.226 73.6247 194.102 74.6175 194.505 73.7703C194.907 72.9232 194.831 71.4473 194.63 70.0662C194.616 69.9739 194.603 69.8817 194.588 69.7918C194.423 68.7775 194.203 67.7756 193.931 66.7917C193.931 66.7917 196.13 63.5486 197.346 62.2695C197.798 61.7839 198.116 61.5849 198.135 61.9224C198.156 62.3762 198.454 63.3787 198.824 64.4419C198.835 64.4759 198.846 64.5075 198.858 64.5414C199.104 65.2697 199.383 66.0174 199.629 66.663C200.002 67.6534 200.299 68.3913 200.299 68.3913Z" fill="#FFB0B1"/>
<path opacity="0.1" d="M198.858 64.5415C198.651 65.8101 198.15 66.9922 197.406 67.9641C196.662 68.9359 195.704 69.662 194.63 70.0663C194.462 68.9582 194.228 67.8643 193.931 66.7917C193.931 66.7917 198.071 60.6868 198.135 61.9224C198.15 62.3909 198.474 63.4298 198.858 64.5415Z" fill="black"/>
<path opacity="0.1" d="M194.217 71.6972L194.754 70.8354C194.754 70.8354 195.109 73.3065 196.415 72.2165C197.721 71.1267 197.784 80.4186 197.784 80.4186L196.382 104.336L186.255 103.644L186.543 92.0871L187.689 86.2614L190.524 77.7923L192.21 74.9935L194.217 71.6972Z" fill="black"/>
<path d="M197.784 80.567L196.508 102.193L196.374 104.484L190.728 104.098L190.515 104.083L186.262 103.792L186.55 92.233L187.695 86.4073L190.531 77.9381L192.216 75.1395L194.224 71.8309L194.761 70.9717C194.761 70.9717 195.115 73.4428 196.421 72.3528L196.449 72.331C197.725 71.4085 197.784 80.567 197.784 80.567Z" fill="#1D2366"/>
<path d="M187.838 84.3828C187.838 84.3828 187.329 85.5965 186.308 85.3999C185.289 85.2032 185.29 89.7692 185.29 89.7692C185.29 89.7692 184.612 90.4974 184.143 89.8663C183.677 89.2351 182.442 91.3687 182.442 91.3687L174.714 91.7572C174.714 91.7572 178.153 93.5509 177.479 98.9785C177.479 98.9785 189.155 98.1533 189.538 96.8935C189.92 95.6336 187.838 84.3828 187.838 84.3828Z" fill="white"/>
<path opacity="0.03" d="M187.838 84.3828C187.838 84.3828 187.329 85.5965 186.308 85.3999C185.289 85.2032 185.29 89.7692 185.29 89.7692C185.29 89.7692 184.612 90.4974 184.143 89.8663C183.677 89.2351 182.442 91.3687 182.442 91.3687L174.714 91.7572C174.714 91.7572 178.153 93.5509 177.479 98.9785C177.479 98.9785 189.155 98.1533 189.538 96.8935C189.92 95.6336 187.838 84.3828 187.838 84.3828Z" fill="black"/>
<path d="M165.379 94.6089L167.416 96.5945L184.187 100.617L182.106 98.1941L165.379 94.6089Z" fill="white"/>
<path d="M194.25 72.4619C193.971 72.9474 193.173 75.4331 192.509 77.6032C191.953 79.4116 191.489 81.0015 191.489 81.0015C191.489 81.0015 190.408 89.0458 189.854 90.4998C189.301 91.9538 189.601 97.6242 189.601 97.6242L187.541 111.628C187.541 111.628 186.607 118.849 185.164 123.163C183.742 127.408 182.158 129.398 182.109 129.461C182.748 128.476 186.224 109.072 186.224 109.072L187.373 84.5989C187.373 84.5989 187.541 82.2734 187.711 80.2854C187.88 78.2974 191.326 75.5836 191.326 75.5836L194.647 70.1924C194.982 70.7021 194.757 71.5906 194.25 72.4619Z" fill="white"/>
<path d="M185.588 103.914C185.588 103.914 180.696 103.671 178.328 100.423C175.959 97.1753 183.804 99.1268 183.804 99.1268L185.843 99.6608L185.588 103.914Z" fill="#FFB0B1"/>
<path opacity="0.1" d="M208.429 141.084C208.168 142.141 208.126 143.254 208.307 144.334C202.972 144.766 197.263 143.12 197.263 143.12C196.2 144.237 193.399 145.883 193.399 145.883L191.872 124.279C190.896 121.366 190.513 106.105 190.513 106.105C190.513 106.105 190.601 105.307 190.727 104.11C190.727 104.081 190.727 104.049 190.736 104.02C191.117 100.678 191.872 94.4028 192.242 93.5556C192.753 92.3905 190.672 89.2907 190.672 89.2907L191.618 80.0788L191.734 78.9672C193.729 77.9501 195.259 74.7023 195.259 74.7023L196.432 72.355C197.708 71.4205 197.774 80.5789 197.774 80.5789L196.497 102.204L200.726 100.872C200.726 100.872 209.152 138.321 208.429 141.084Z" fill="black"/>
<path d="M213.906 142.576C208.09 145.873 197.518 142.819 197.518 142.819C196.455 143.936 193.654 145.581 193.654 145.581L192.126 123.978C191.151 121.065 190.769 105.804 190.769 105.804C190.769 105.804 191.998 94.4172 192.509 93.2544C192.656 92.9146 192.585 92.4097 192.407 91.866C191.541 89.278 191.221 86.4925 191.477 83.7367L191.884 79.7777L191.998 78.6684C193.995 77.6489 195.523 74.401 195.523 74.401L196.588 72.2747L198.544 68.3568L199.47 66.5024L199.629 66.665L200.83 67.9078C200.83 67.9078 201.341 68.3933 202.105 69.1215C203.77 70.7236 206.647 73.5441 208.132 75.27C209.438 76.7895 209.85 82.7003 209.97 87.1495C210.048 90.0794 210.001 92.3758 210.001 92.3758C208.685 94.8492 212.129 114.707 212.129 114.707C212.93 118.545 213.906 142.576 213.906 142.576Z" fill="white"/>
<path opacity="0.03" d="M202.741 74.3526C202.741 74.3526 198.749 83.0257 199.213 86.322C199.677 89.6183 200.995 93.3492 200.36 94.2207C200.141 94.5509 199.859 94.8187 199.534 95.0036C199.21 95.1885 198.852 95.2853 198.491 95.2863C197.853 95.3349 196.15 96.6918 196.15 96.8374C196.15 96.983 194.58 96.983 193.173 97.6627C191.768 98.3423 189.692 98.7282 189.692 98.7282C189.692 98.7282 185.652 98.5826 185.275 99.0196C184.898 99.4565 184.512 102.071 185.319 104.156C186.125 106.241 187.02 107.797 187.695 108.081C188.372 108.365 192.663 106.724 196.144 106.336C199.625 105.947 203.404 102.799 203.404 102.799C203.404 102.799 207.567 101.1 208.296 98.2428C209.025 95.3858 207.405 79.6831 207.405 79.6831C207.405 79.6831 206.181 72.3646 202.741 74.3526Z" fill="black"/>
<path opacity="0.03" d="M202.231 73.6244C202.231 73.6244 198.239 82.2998 198.707 85.5938C199.174 88.8877 200.489 92.621 199.851 93.4949C199.633 93.8253 199.352 94.0937 199.028 94.2785C198.704 94.4635 198.346 94.5599 197.984 94.5604C197.346 94.609 195.644 95.9659 195.644 96.1116C195.644 96.2572 194.073 96.2572 192.667 96.9345C191.262 97.6116 189.186 98 189.186 98C189.186 98 185.146 97.8544 184.771 98.2914C184.397 98.7283 184.005 101.345 184.814 103.428C185.622 105.51 186.515 107.069 187.191 107.353C187.868 107.637 192.16 105.996 195.64 105.61C199.121 105.224 202.901 102.071 202.901 102.071C202.901 102.071 207.06 100.372 207.782 97.5171C208.503 94.6624 206.89 78.9549 206.89 78.9549C206.89 78.9549 205.67 71.6388 202.231 73.6244Z" fill="black"/>
<path d="M202.615 73.9161C202.615 73.9161 198.625 82.5917 199.092 85.8855C199.56 89.1795 200.874 92.9127 200.239 93.7842C200.021 94.1155 199.739 94.3844 199.414 94.5698C199.09 94.7551 198.732 94.8518 198.37 94.8523C197.731 94.9009 196.029 96.2576 196.029 96.4009C196.029 96.544 194.46 96.5465 193.052 97.2262C191.645 97.9058 189.572 98.2917 189.572 98.2917C189.572 98.2917 185.53 98.1461 185.154 98.5831C184.777 99.02 184.391 101.637 185.197 103.719C186.003 105.802 186.898 107.36 187.574 107.644C188.251 107.928 192.541 106.288 196.023 105.899C199.504 105.511 203.283 102.363 203.283 102.363C203.283 102.363 207.446 100.663 208.174 97.8063C208.904 94.9493 207.295 79.2467 207.295 79.2467C207.295 79.2467 206.053 71.9403 202.615 73.9161Z" fill="white"/>
<path opacity="0.1" d="M202.528 97.1844C202.528 97.1844 199.339 96.4562 200.449 97.6699C201.558 98.8835 201.552 99.9468 202.911 99.8982C204.271 99.8497 202.528 97.1844 202.528 97.1844Z" fill="black"/>
<path opacity="0.1" d="M207.919 123.298C207.919 123.298 206.478 124.412 209.236 126.981C211.995 129.549 207.919 123.298 207.919 123.298Z" fill="black"/>
<path opacity="0.1" d="M205.167 132.457C205.167 132.603 204.657 137.797 206.567 139.096C208.476 140.395 205.167 132.457 205.167 132.457Z" fill="black"/>
<path d="M174.846 91.7446C173.307 91.8052 169.981 92.3417 171.706 96.0143C173.231 99.2646 175.792 97.092 177.235 95.4439C176.883 93.9072 176.027 92.5831 174.846 91.7446Z" fill="#FFB0B1"/>
<path d="M177.254 95.4149L177.318 95.3398L177.254 95.4149Z" fill="#FFB0B1"/>
<path opacity="0.1" d="M202.106 69.2694C200.472 70.5438 199.103 71.6192 198.835 71.8425C198.103 72.4614 196.707 76.0952 195.808 77.9497C195.092 79.4425 192.764 79.8261 191.885 79.9208L191.998 78.8114C193.995 77.792 195.523 74.5441 195.523 74.5441L199.47 66.6455L200.83 68.0557C200.83 68.0557 201.341 68.5411 202.106 69.2694Z" fill="black"/>
<path d="M202.106 69.1245C200.472 70.3988 199.103 71.4741 198.835 71.6999C198.103 72.3165 196.707 75.9502 195.808 77.8047C195.092 79.2976 192.764 79.681 191.885 79.7757L191.998 78.6664C193.995 77.6469 195.523 74.3992 195.523 74.3992L199.47 66.5005L200.83 67.9059C200.83 67.9059 201.341 68.3865 202.106 69.1245Z" fill="#DCE7FF"/>
<path d="M198.963 62.9391C198.963 64.3962 198.577 65.8193 197.853 67.0194C196.997 68.4386 195.725 69.4609 194.266 69.901C192.807 70.341 191.259 70.1695 189.902 69.4178C188.545 68.666 187.468 67.3837 186.867 65.8036C186.268 64.2233 186.184 62.4499 186.63 60.8052C187.079 59.1604 188.028 57.7533 189.306 56.839C190.585 55.9248 192.109 55.564 193.6 55.822C195.092 56.0802 196.454 56.9402 197.437 58.2459C198.421 59.5518 198.963 61.2168 198.963 62.9391Z" fill="#FFB0B1"/>
<path opacity="0.1" d="M209.97 87.152C209.106 86.5458 208.403 85.6833 207.935 84.6568C207.58 83.8557 207.343 82.9309 206.738 82.3628C206.19 81.8531 205.462 81.7293 204.781 81.5011C202.544 80.7463 200.668 78.4159 200.598 75.7556C200.564 74.503 200.906 73.2529 200.751 72.0126C200.662 71.3106 200.418 70.6462 200.041 70.0829C199.853 69.8135 199.647 69.561 199.426 69.3279C199.127 69.0075 198.816 68.6968 198.544 68.357C198.371 68.1466 198.222 67.9144 198.097 67.6652C197.996 67.4612 197.914 67.2455 197.853 67.0219C197.426 65.5363 197.814 63.7741 197.346 62.2716L197.321 62.189C197.145 61.655 196.785 61.121 196.284 61.0797C195.785 61.0384 195.358 61.5117 194.882 61.7229C193.884 62.1647 192.807 61.4122 191.976 60.6452C191.145 59.8782 190.207 59.0018 189.15 59.1718C188.45 59.2859 187.897 59.8296 187.253 60.1112C187.108 60.1755 186.957 60.225 186.805 60.2593C187.349 58.707 188.352 57.4199 189.639 56.6192C190.924 55.8186 192.415 55.5541 193.853 55.8715C195.293 56.1889 196.589 57.0682 197.521 58.3583C198.454 59.6486 198.963 61.2691 198.963 62.9415C198.963 63.4464 198.917 63.9503 198.824 64.4441C198.835 64.4781 198.846 64.5095 198.858 64.5436C199.104 65.2718 199.383 66.0194 199.629 66.6651L200.83 67.9079C200.83 67.9079 201.341 68.3934 202.106 69.1215C203.77 70.7236 206.647 73.5443 208.132 75.27C209.438 76.7946 209.846 82.7028 209.97 87.152Z" fill="black"/>
<path d="M187.178 55.6762C187.483 54.9699 187.634 54.1784 187.997 53.5086C188.531 52.5376 189.463 51.9162 190.42 51.5399C192.918 50.5569 198.198 49.1296 199.776 51.5399C200.088 52.0254 200.344 52.5644 200.774 52.8992C201.102 53.1542 201.498 53.2633 201.857 53.4552C202.863 53.9941 203.505 55.1689 203.848 56.368C204.19 57.5671 204.291 58.8537 204.542 60.0892C204.864 61.6743 205.427 63.1768 205.989 64.6696C206.651 66.4319 207.352 68.2596 208.627 69.5049C210.37 71.2042 210.755 73.6097 212.37 75.4739C214.284 77.6877 214.224 81.3408 213.237 84.2414C213.106 84.6227 212.96 85.0207 213.011 85.4261C213.063 85.8314 213.326 86.2005 213.575 86.5233L214.62 87.8704C212.146 88.5526 209.345 87.0766 208.191 84.4867C207.836 83.6856 207.6 82.7632 206.993 82.1929C206.448 81.6831 205.717 81.5617 205.038 81.3335C202.8 80.5761 200.925 78.2435 200.855 75.583C200.821 74.3329 201.163 73.0828 201.007 71.8449C200.922 71.1381 200.676 70.4691 200.296 69.903C199.711 69.0316 198.829 68.4467 198.352 67.4756C197.546 65.8518 198.158 63.7423 197.577 61.9994C197.398 61.4654 197.042 60.9314 196.542 60.8901C196.043 60.849 195.615 61.3223 195.137 61.5335C194.141 61.9753 193.066 61.2251 192.233 60.4558C191.402 59.6863 190.464 58.8124 189.405 58.9847C188.705 59.0963 188.154 59.6402 187.51 59.9241C187.034 60.1329 186.069 60.3198 185.652 59.861C184.771 58.9362 186.811 56.5404 187.178 55.6762Z" fill="#591D4B"/>
<path opacity="0.1" d="M208.783 83.6857C208.426 82.8848 208.191 81.9623 207.584 81.3944C207.04 80.8846 206.308 80.7608 205.627 80.5327C203.392 79.7777 201.516 77.445 201.445 74.7847C201.411 73.5346 201.753 72.282 201.599 71.044C201.51 70.3418 201.264 69.6774 200.888 69.1143C200.299 68.2428 199.417 67.6578 198.944 66.687C198.138 65.0654 198.749 62.9561 198.167 61.2108C197.99 60.6792 197.63 60.1452 197.134 60.1014C196.636 60.0578 196.205 60.5359 195.727 60.7471C194.733 61.189 193.654 60.4364 192.825 59.6694C191.995 58.9024 191.053 58.0261 189.997 58.196C189.296 58.31 188.744 58.8538 188.101 59.1354C187.625 59.3441 186.659 59.5335 186.241 59.0747C185.365 58.1038 187.404 55.7128 187.77 54.8535C188.075 54.1446 188.226 53.3558 188.591 52.6858C188.61 52.6494 188.632 52.6129 188.652 52.5767C188.378 52.8353 188.143 53.1417 187.953 53.4845C187.589 54.1544 187.438 54.9409 187.135 55.652C186.766 56.5114 184.727 58.9096 185.605 59.8733C186.03 60.3344 186.987 60.1452 187.463 59.9364C188.101 59.6524 188.658 59.1086 189.359 58.9969C190.422 58.8247 191.357 59.7009 192.186 60.468C193.016 61.2351 194.101 61.9876 195.092 61.5458C195.568 61.3346 195.985 60.8588 196.496 60.9026C197.006 60.9462 197.346 61.4778 197.531 62.0119C198.111 63.7546 197.5 65.864 198.306 67.4879C198.782 68.442 199.664 69.0391 200.25 69.9153C200.629 70.4814 200.875 71.1506 200.961 71.8571C201.116 73.0951 200.774 74.3452 200.808 75.5953C200.878 78.2654 202.754 80.5884 204.992 81.3458C205.665 81.5739 206.402 81.6954 206.946 82.2051C207.556 82.7756 207.796 83.6979 208.145 84.499C209.298 87.0889 212.099 88.5648 214.574 87.8827L214.08 87.2467C211.934 87.2831 209.763 85.8899 208.783 83.6857Z" fill="black"/>
<path opacity="0.1" d="M194.122 72.6078C193.844 73.0934 193.046 75.579 192.381 77.749C191.757 77.4723 191.192 75.7076 191.192 75.7076L194.513 70.314C194.854 70.848 194.63 71.734 194.122 72.6078Z" fill="black"/>
<path d="M194.25 72.4614C193.971 72.9469 193.173 75.4325 192.509 77.6027C191.885 77.3283 191.32 75.5612 191.32 75.5612L194.641 70.1699C194.982 70.7016 194.757 71.5899 194.25 72.4614Z" fill="#DCE7FF"/>
<path d="M174.935 97.2593L173.094 90.6301C173.072 90.5526 173.064 90.4708 173.07 90.3895C173.077 90.3084 173.095 90.2292 173.128 90.1568C173.162 90.0844 173.206 90.0202 173.262 89.9678C173.316 89.9151 173.379 89.8756 173.447 89.851C173.584 89.8022 173.732 89.817 173.86 89.8925C173.987 89.9681 174.084 90.098 174.127 90.2539L175.97 96.8758L175.786 98.2619L174.935 97.2593Z" fill="#BE8B87"/>
<path opacity="0.1" d="M173.268 90.0482C173.405 89.9985 173.555 90.0131 173.682 90.0887C173.811 90.1642 173.908 90.2945 173.951 90.4511L175.792 97.0729L175.654 98.1118L175.788 98.2721L175.971 96.886L174.119 90.2642C174.076 90.1081 173.979 89.9782 173.852 89.9029C173.724 89.8273 173.576 89.8124 173.439 89.8613C173.323 89.904 173.223 89.9893 173.156 90.1039C173.192 90.0818 173.229 90.0631 173.268 90.0482Z" fill="white"/>
<path d="M174.937 97.2597L175.97 96.8857L175.819 98.0218L175.786 98.2718L175.484 97.9125L174.937 97.2597Z" fill="#EFC8C4"/>
<path d="M175.484 97.9132C175.503 97.8872 175.525 97.8657 175.55 97.85C175.565 97.8393 175.582 97.8335 175.601 97.8335C175.618 97.8335 175.635 97.8393 175.651 97.85C175.665 97.8701 175.677 97.8921 175.687 97.9156C175.701 97.9424 175.719 97.9653 175.743 97.9824C175.766 97.9997 175.791 98.0109 175.819 98.0151L175.786 98.2579L175.484 97.9132Z" fill="#727A9C"/>
<path d="M173.083 92.9859C173.083 92.9859 176.778 92.9616 175.908 94.7553C175.038 96.5491 173.679 96.7651 173.679 96.7651L173.083 92.9859Z" fill="#FFB0B1"/>
<path d="M72.4289 74.7539H72.2421C64.8164 74.7539 58.249 78.6794 54.4715 84.4719C50.6939 78.6794 44.1265 74.7539 36.7006 74.7539H36.514C30.9411 74.807 25.6144 77.0551 21.6913 81.0096C17.7683 84.9641 15.5659 90.3056 15.5629 95.8732C15.5629 102.787 18.594 112.597 24.5043 120.669C35.765 136.051 54.4715 149.508 54.4715 149.508C54.4715 149.508 73.1779 136.053 84.4361 120.669C90.349 112.597 93.3775 102.787 93.3775 95.8732C93.3745 90.306 91.1725 84.9648 87.2499 81.0105C83.3274 77.056 78.0013 74.8076 72.4289 74.7539ZM69.7586 121.853C68.9129 121.85 68.0879 121.591 67.3919 121.111C66.6961 120.631 66.1617 119.952 65.859 119.163H61.4195C61.1271 119.161 60.8426 119.068 60.6057 118.897C60.3689 118.726 60.1913 118.485 60.0981 118.208L58.7343 114.104L54.4192 129.167C54.3351 129.457 54.1593 129.712 53.9179 129.893C53.6763 130.075 53.3825 130.173 53.0803 130.174H52.9933C52.678 130.159 52.3775 130.036 52.1418 129.826C51.9064 129.616 51.7501 129.331 51.6992 129.02L47.2521 102.3L44.0021 118.111C43.9276 118.412 43.7545 118.678 43.5105 118.869C43.2665 119.06 42.9656 119.163 42.6558 119.163H36.4021C36.2146 119.171 36.0275 119.141 35.852 119.075C35.6764 119.008 35.516 118.907 35.3806 118.778C35.2452 118.648 35.1373 118.492 35.0637 118.32C34.9901 118.147 34.9521 117.962 34.9521 117.774C34.9521 117.587 34.9901 117.401 35.0637 117.229C35.1373 117.057 35.2452 116.901 35.3806 116.771C35.516 116.641 35.6764 116.54 35.852 116.474C36.0275 116.408 36.2146 116.378 36.4021 116.386H41.5608L46.1646 95.1274C46.2402 94.8131 46.4228 94.5348 46.681 94.3399C46.9392 94.1453 47.2571 94.0462 47.5805 94.0596C47.9038 94.0732 48.2122 94.1984 48.4533 94.4141C48.6944 94.6296 48.8531 94.9222 48.9021 95.2417L53.4437 122.499L57.3109 109.022C57.3914 108.738 57.5616 108.488 57.7962 108.309C58.0309 108.13 58.3171 108.031 58.6124 108.028H58.6398C58.9323 108.028 59.2172 108.12 59.4541 108.292C59.6909 108.463 59.8674 108.705 59.9588 108.982L62.4249 116.393H65.8044C66.0447 115.664 66.4818 115.015 67.0679 114.519C67.654 114.022 68.366 113.697 69.1253 113.579C69.8848 113.461 70.662 113.555 71.3714 113.85C72.0806 114.146 72.6944 114.631 73.1449 115.253C73.5955 115.875 73.8653 116.61 73.9245 117.375C73.9836 118.141 73.83 118.907 73.4805 119.591C73.1309 120.275 72.5991 120.849 71.9436 121.25C71.2881 121.651 70.5346 121.863 69.7661 121.863L69.7586 121.853Z" fill="#E0354B"/>
</g>
<defs>
<linearGradient id="paint0_linear" x1="124.938" y1="188.089" x2="124.938" y2="38.7239" gradientUnits="userSpaceOnUse">
<stop stop-color="#808080" stop-opacity="0.25"/>
<stop offset="0.54" stop-color="#808080" stop-opacity="0.12"/>
<stop offset="1" stop-color="#808080" stop-opacity="0.1"/>
</linearGradient>
<linearGradient id="paint1_linear" x1="47469.4" y1="112698" x2="47469.4" y2="36027.7" gradientUnits="userSpaceOnUse">
<stop stop-color="#808080" stop-opacity="0.25"/>
<stop offset="0.54" stop-color="#808080" stop-opacity="0.12"/>
<stop offset="1" stop-color="#808080" stop-opacity="0.1"/>
</linearGradient>
<clipPath id="clip0">
<rect width="235" height="190" fill="white"/>
</clipPath>
</defs>
</svg>
