<svg width="69" height="63" viewBox="0 0 69 63" fill="none" xmlns="http://www.w3.org/2000/svg">
<path d="M3.5 44.9045L15.1545 33.25H45.75C47.4739 33.25 49.1272 32.5652 50.3462 31.3462C51.5652 30.1272 52.25 28.4739 52.25 26.75V10.5C52.25 8.77609 51.5652 7.12279 50.3462 5.90381C49.1272 4.68482 47.4739 4 45.75 4H10C8.27609 4 6.62279 4.68482 5.40381 5.90381C4.18482 7.12279 3.5 8.77609 3.5 10.5V44.9045ZM3.5 49.5H0.25V10.5C0.25 7.91414 1.27723 5.43419 3.10571 3.60571C4.93419 1.77723 7.41414 0.75 10 0.75H45.75C48.3359 0.75 50.8158 1.77723 52.6443 3.60571C54.4728 5.43419 55.5 7.91414 55.5 10.5V26.75C55.5 29.3359 54.4728 31.8158 52.6443 33.6443C50.8158 35.4728 48.3359 36.5 45.75 36.5H16.5L3.5 49.5ZM65.25 57.9045V23.5C65.25 21.7761 64.5652 20.1228 63.3462 18.9038C62.1272 17.6848 60.4739 17 58.75 17V13.75C61.3359 13.75 63.8158 14.7772 65.6443 16.6057C67.4728 18.4342 68.5 20.9141 68.5 23.5V62.5H65.25L52.25 49.5H23C21.0874 49.5004 19.217 48.9384 17.6215 47.8837C16.0259 46.8291 14.7758 45.3285 14.0267 43.5687L16.617 40.9785C16.9025 42.462 17.6959 43.7998 18.8608 44.7618C20.0256 45.7238 21.4892 46.25 23 46.25H53.5955L65.25 57.9045Z" fill="#2C2C2C"/>
</svg>
