<svg width="63" height="63" viewBox="0 0 63 63" fill="none" xmlns="http://www.w3.org/2000/svg">
<path d="M10.25 0.75H52.5C55.0859 0.75 57.5658 1.77723 59.3943 3.60571C61.2228 5.43419 62.25 7.91414 62.25 10.5V52.75C62.25 55.3359 61.2228 57.8158 59.3943 59.6443C57.5658 61.4728 55.0859 62.5 52.5 62.5H10.25C7.66414 62.5 5.18419 61.4728 3.35571 59.6443C1.52723 57.8158 0.5 55.3359 0.5 52.75V10.5C0.5 7.91414 1.52723 5.43419 3.35571 3.60571C5.18419 1.77723 7.66414 0.75 10.25 0.75ZM10.25 4C8.52609 4 6.87279 4.68482 5.65381 5.90381C4.43482 7.12279 3.75 8.77609 3.75 10.5V48.1545L17.7023 34.2023L25.8273 42.3273L42.0773 26.0773L59 43V10.5C59 8.77609 58.3152 7.12279 57.0962 5.90381C55.8772 4.68482 54.2239 4 52.5 4H10.25ZM25.8273 46.9228L17.7023 38.7977L3.75 52.75C3.75 54.4739 4.43482 56.1272 5.65381 57.3462C6.87279 58.5652 8.52609 59.25 10.25 59.25H52.5C54.2239 59.25 55.8772 58.5652 57.0962 57.3462C58.3152 56.1272 59 54.4739 59 52.75V47.5955L42.0773 30.6727L25.8273 46.9228ZM18.375 10.5C20.5299 10.5 22.5965 11.356 24.1202 12.8798C25.644 14.4035 26.5 16.4701 26.5 18.625C26.5 20.7799 25.644 22.8465 24.1202 24.3702C22.5965 25.894 20.5299 26.75 18.375 26.75C16.2201 26.75 14.1535 25.894 12.6298 24.3702C11.106 22.8465 10.25 20.7799 10.25 18.625C10.25 16.4701 11.106 14.4035 12.6298 12.8798C14.1535 11.356 16.2201 10.5 18.375 10.5ZM18.375 13.75C17.0821 13.75 15.8421 14.2636 14.9279 15.1779C14.0136 16.0921 13.5 17.3321 13.5 18.625C13.5 19.9179 14.0136 21.1579 14.9279 22.0721C15.8421 22.9864 17.0821 23.5 18.375 23.5C19.6679 23.5 20.9079 22.9864 21.8221 22.0721C22.7364 21.1579 23.25 19.9179 23.25 18.625C23.25 17.3321 22.7364 16.0921 21.8221 15.1779C20.9079 14.2636 19.6679 13.75 18.375 13.75Z" fill="#2C2C2C"/>
</svg>
