<svg width="49" height="49" viewBox="0 0 49 49" fill="none" xmlns="http://www.w3.org/2000/svg">
<path d="M24.4165 29.3333C37.5328 29.3333 48.1665 34.2955 48.1665 40.4166V48.3333H0.666504V40.4166C0.666504 34.2955 11.3002 29.3333 24.4165 29.3333ZM44.9998 40.4166C44.9998 36.0466 35.7848 32.5 24.4165 32.5C13.0482 32.5 3.83317 36.0466 3.83317 40.4166V45.1666H44.9998V40.4166ZM24.4165 0.833313C27.356 0.833313 30.1751 2.00102 32.2536 4.07955C34.3321 6.15807 35.4998 8.97716 35.4998 11.9166C35.4998 14.8561 34.3321 17.6752 32.2536 19.7537C30.1751 21.8323 27.356 23 24.4165 23C21.477 23 18.6579 21.8323 16.5794 19.7537C14.5009 17.6752 13.3332 14.8561 13.3332 11.9166C13.3332 8.97716 14.5009 6.15807 16.5794 4.07955C18.6579 2.00102 21.477 0.833313 24.4165 0.833313ZM24.4165 3.99998C22.3169 3.99998 20.3032 4.83405 18.8186 6.31872C17.3339 7.80338 16.4998 9.81701 16.4998 11.9166C16.4998 14.0163 17.3339 16.0299 18.8186 17.5146C20.3032 18.9992 22.3169 19.8333 24.4165 19.8333C26.5161 19.8333 28.5298 18.9992 30.0144 17.5146C31.4991 16.0299 32.3332 14.0163 32.3332 11.9166C32.3332 9.81701 31.4991 7.80338 30.0144 6.31872C28.5298 4.83405 26.5161 3.99998 24.4165 3.99998Z" fill="#2C2C2C"/>
</svg>
