<svg width="1920" height="415" viewBox="0 0 1920 415" fill="none" xmlns="http://www.w3.org/2000/svg">
<path fill-rule="evenodd" clip-rule="evenodd" d="M303 190.303L383 212.773C463 235.243 623 280.182 783 257.712C943 235.243 1103 145.364 1263 130.384C1423 115.404 1583 175.323 1743 190.303C1903 205.283 2063 175.323 2143 160.344L2223 145.364V415H2143C2063 415 1903 415 1743 415C1583 415 1423 415 1263 415C1103 415 943 415 783 415C623 415 463 415 383 415H303V190.303Z" fill="white" fill-opacity="0.4"/>
<path fill-rule="evenodd" clip-rule="evenodd" d="M0 0L80 6.0625C160 12.125 320 24.25 480 60.625C640 97 800 157.625 960 200.062C1120 242.5 1280 266.75 1440 260.688C1600 254.625 1760 218.25 1840 200.062L1920 181.875V291H1840C1760 291 1600 291 1440 291C1280 291 1120 291 960 291C800 291 640 291 480 291C320 291 160 291 80 291H0V0Z" fill="white" fill-opacity="0.8"/>
<path fill-rule="evenodd" clip-rule="evenodd" d="M1920 163.139L1812.8 180.415C1707.2 197.691 1492.8 232.242 1280 226.483C1067.2 220.725 852.8 174.656 640 163.139C427.2 151.622 212.8 174.656 107.2 186.173L0 197.691V405H107.2C212.8 405 427.2 405 640 405C852.8 405 1067.2 405 1280 405C1492.8 405 1707.2 405 1812.8 405H1920V163.139Z" fill="white"/>
</svg>
